<?xml version="1.0" encoding="utf-8"?>
<!-- Generator: Adobe Illustrator 22.0.1, SVG Export Plug-In . SVG Version: 6.00 Build 0)  -->
<svg version="1.1" id="Capa_1" xmlns="http://www.w3.org/2000/svg" xmlns:xlink="http://www.w3.org/1999/xlink" x="0px" y="0px"
	 viewBox="0 0 512 512" style="enable-background:new 0 0 512 512;" xml:space="preserve">
<style type="text/css">
	.st0{fill:#FFFFFF;}
</style>
<g id="XMLID_1_">
	<g id="Layer_2_1_">
		<g id="logos_1_">
			<rect id="XMLID_109_" x="471.6" y="2.5" class="st0" width="36.9" height="36.9"/>
			<rect id="XMLID_108_" x="393.3" y="2.5" class="st0" width="36.9" height="36.9"/>
			<rect id="XMLID_107_" x="315.1" y="2.5" class="st0" width="36.9" height="36.9"/>
			<rect id="XMLID_106_" x="236.8" y="2.5" class="st0" width="36.9" height="36.9"/>
			<rect id="XMLID_105_" x="158.5" y="2.5" class="st0" width="36.9" height="36.9"/>
			<rect id="XMLID_104_" x="80.3" y="2.5" class="st0" width="36.9" height="36.9"/>
			<rect id="XMLID_103_" x="2" y="2.5" class="st0" width="36.9" height="36.9"/>
			<rect id="XMLID_102_" x="248" y="248.5" class="st0" width="14.5" height="14.5"/>
			<rect id="XMLID_101_" x="244.6" y="166.8" class="st0" width="21.2" height="21.2"/>
			<rect id="XMLID_100_" x="166.4" y="166.8" class="st0" width="21.2" height="21.2"/>
			<rect id="XMLID_99_" x="322.9" y="245.1" class="st0" width="21.2" height="21.2"/>
			<rect id="XMLID_98_" x="397.8" y="240.6" class="st0" width="29.1" height="29.1"/>
			<rect id="XMLID_97_" x="397.8" y="318.9" class="st0" width="29.1" height="29.1"/>
			<rect id="XMLID_96_" x="397.8" y="397.2" class="st0" width="29.1" height="29.1"/>
			<rect id="XMLID_95_" x="397.8" y="162.4" class="st0" width="29.1" height="29.1"/>
			<rect id="XMLID_94_" x="397.8" y="84.1" class="st0" width="29.1" height="29.1"/>
			<rect id="XMLID_93_" x="319.5" y="84.1" class="st0" width="29.1" height="29.1"/>
			<rect id="XMLID_92_" x="241.3" y="84.1" class="st0" width="29.1" height="29.1"/>
			<rect id="XMLID_91_" x="161.9" y="84.1" class="st0" width="29.1" height="29.1"/>
			<rect id="XMLID_90_" x="319.5" y="397.2" class="st0" width="29.1" height="29.1"/>
			<rect id="XMLID_89_" x="241.3" y="397.2" class="st0" width="29.1" height="29.1"/>
			<rect id="XMLID_88_" x="161.9" y="397.2" class="st0" width="29.1" height="29.1"/>
			<rect id="XMLID_87_" x="83.6" y="240.6" class="st0" width="29.1" height="29.1"/>
			<rect id="XMLID_86_" x="83.6" y="318.9" class="st0" width="29.1" height="29.1"/>
			<rect id="XMLID_85_" x="83.6" y="397.2" class="st0" width="29.1" height="29.1"/>
			<rect id="XMLID_84_" x="83.6" y="162.4" class="st0" width="29.1" height="29.1"/>
			<rect id="XMLID_83_" x="83.6" y="84.1" class="st0" width="29.1" height="29.1"/>
			<rect id="XMLID_82_" x="471.6" y="237.3" class="st0" width="36.9" height="36.9"/>
			<rect id="XMLID_81_" x="471.6" y="315.6" class="st0" width="36.9" height="36.9"/>
			<rect id="XMLID_80_" x="471.6" y="393.8" class="st0" width="36.9" height="36.9"/>
			<rect id="XMLID_79_" x="471.6" y="472.1" class="st0" width="36.9" height="36.9"/>
			<rect id="XMLID_78_" x="471.6" y="159" class="st0" width="36.9" height="36.9"/>
			<rect id="XMLID_77_" x="471.6" y="80.8" class="st0" width="36.9" height="36.9"/>
			<rect id="XMLID_76_" x="2" y="237.3" class="st0" width="36.9" height="36.9"/>
			<rect id="XMLID_75_" x="2" y="159" class="st0" width="36.9" height="36.9"/>
			<rect id="XMLID_74_" x="2" y="80.8" class="st0" width="36.9" height="36.9"/>
			<rect id="XMLID_73_" x="2" y="315.6" class="st0" width="36.9" height="36.9"/>
			<rect id="XMLID_72_" x="2" y="393.8" class="st0" width="36.9" height="36.9"/>
			<rect id="XMLID_71_" x="2" y="472.1" class="st0" width="36.9" height="36.9"/>
			<rect id="XMLID_70_" x="80.3" y="472.1" class="st0" width="36.9" height="36.9"/>
			<rect id="XMLID_69_" x="158.5" y="472.1" class="st0" width="36.9" height="36.9"/>
			<rect id="XMLID_68_" x="236.8" y="472.1" class="st0" width="36.9" height="36.9"/>
			<rect id="XMLID_67_" x="315.1" y="472.1" class="st0" width="36.9" height="36.9"/>
			<rect id="XMLID_66_" x="393.3" y="472.1" class="st0" width="36.9" height="36.9"/>
			<rect id="XMLID_65_" x="166.4" y="245.1" class="st0" width="21.2" height="21.2"/>
			<rect id="XMLID_64_" x="322.9" y="166.8" class="st0" width="21.2" height="21.2"/>
			<rect id="XMLID_63_" x="244.6" y="323.4" class="st0" width="21.2" height="21.2"/>
			<rect id="XMLID_62_" x="166.4" y="323.4" class="st0" width="21.2" height="21.2"/>
			<rect id="XMLID_61_" x="322.9" y="323.4" class="st0" width="21.2" height="21.2"/>
		</g>
	</g>
</g>
</svg>
