<?xml version="1.0" encoding="utf-8"?>
<!-- Generator: Adobe Illustrator 22.0.1, SVG Export Plug-In . SVG Version: 6.00 Build 0)  -->
<svg version="1.1" id="Capa_1" xmlns="http://www.w3.org/2000/svg" xmlns:xlink="http://www.w3.org/1999/xlink" x="0px" y="0px"
	 viewBox="0 0 203.6 65.4" style="enable-background:new 0 0 203.6 65.4;" xml:space="preserve">
<style type="text/css">
	.st0{fill:#072146;}
	.st1{fill:#2A86CA;}
</style>
<g id="XMLID_3_">
	<g id="XMLID_90_">
		<g id="XMLID_109_">
			<path id="XMLID_117_" class="st0" d="M68.8,19.4c-0.5-1.4-0.8-1.8-2.1-1.8h-3.4l-5.4,17.6h2.7l1.2-3.8h6.4l1.2,3.8h4.8L68.8,19.4
				z M62.6,28.9l2.4-8l2.4,8H62.6z"/>
			<path id="XMLID_114_" class="st0" d="M42.2,24.6l0.9-1.3c1.8-2.7,0.6-5.6-3-5.6h-7.7v17.6h7.4C46.3,35.2,48.2,27.7,42.2,24.6z
				 M37.8,32.9h-1.2V20h2.3c1.1,0,2,0.9,2,2c0,0.4-0.1,0.7-0.4,1.3l-1.5,2.2c1.5,0.4,2.6,1.5,2.6,3.7C41.4,31.8,39.9,32.9,37.8,32.9
				z"/>
			<path id="XMLID_111_" class="st0" d="M27.3,24.6l0.9-1.3c1.8-2.7,0.6-5.6-3-5.6h-7.6v0v17.6h7.4C31.4,35.2,33.3,27.7,27.3,24.6z
				 M22.9,32.9h-1.2V20h2.2c1.1,0,2,0.9,2,2c0,0.4-0.1,0.7-0.4,1.3L24,25.4c1.5,0.4,2.6,1.5,2.6,3.7C26.6,31.8,25,32.9,22.9,32.9z"
				/>
			<path id="XMLID_110_" class="st0" d="M57.2,17.7l-4,13.3L49.9,20c-0.6-2-0.9-2.3-2.1-2.3h-3.1l5.7,17.6h4.2L60,17.7H57.2z"/>
		</g>
		<g id="XMLID_91_">
			<path id="XMLID_105_" class="st0" d="M90.7,27.3c-0.4-0.4-0.9-0.8-1.4-1c-0.3-0.1-0.5-0.2-0.8-0.3c0.1-0.1,0.3-0.1,0.4-0.2
				c0.6-0.3,1.1-0.7,1.4-1.3c0.4-0.6,0.6-1.3,0.6-2.2c0-0.8-0.2-1.6-0.4-2.1c-0.2-0.5-0.5-0.8-0.9-1.1c-0.5-0.5-1.2-0.8-1.9-1
				c-0.7-0.2-1.6-0.3-2.4-0.3H80V18v17.3h5.5c0.9,0,1.7-0.1,2.4-0.3c0.6-0.1,1.1-0.3,1.5-0.6c0.7-0.4,1.2-0.9,1.6-1.6
				c0.4-0.7,0.6-1.5,0.6-2.5c0-0.7-0.1-1.4-0.3-1.9C91.1,27.9,90.9,27.6,90.7,27.3z M81.9,19.3h3.2c0.5,0,1.1,0,1.5,0.1
				c0.3,0.1,0.7,0.2,0.9,0.3c0.4,0.2,0.7,0.5,1,0.9c0.2,0.4,0.4,0.9,0.4,1.5c0,0.6-0.1,1-0.3,1.4c-0.1,0.3-0.3,0.5-0.6,0.7
				c-0.3,0.3-0.8,0.5-1.3,0.6c-0.5,0.1-1.1,0.2-1.7,0.2h-3.1V19.3z M89.3,31.7c-0.1,0.3-0.3,0.6-0.6,0.8c-0.4,0.3-0.8,0.6-1.4,0.8
				c-0.6,0.2-1.2,0.3-1.9,0.3h-3.6v-6.7h3.3c0.7,0,1.4,0.1,1.9,0.2c0.4,0.1,0.8,0.2,1.1,0.4c0.5,0.3,0.8,0.6,1.1,1
				c0.2,0.4,0.4,1,0.4,1.7C89.7,30.8,89.5,31.3,89.3,31.7z"/>
			<path id="XMLID_102_" class="st0" d="M102.6,23c-0.4-0.4-0.9-0.7-1.5-0.9c-0.6-0.2-1.3-0.2-2-0.2c-2.5,0-3.9,0.7-4.9,1.3
				c0.7,1.4,1.4,1.1,2.3,0.7c0.7-0.3,1.5-0.4,2.4-0.4c0.4,0,0.8,0.1,1.3,0.2c0.3,0.1,0.5,0.2,0.7,0.3c0.3,0.2,0.5,0.4,0.7,0.7
				c0.2,0.3,0.2,0.7,0.2,1.2v1.9c-1-0.2-1.9-0.3-3-0.3c-0.8,0-1.5,0.1-2.1,0.2c-0.5,0.1-0.9,0.3-1.3,0.5c-0.6,0.3-1.1,0.8-1.4,1.3
				c-0.3,0.6-0.5,1.2-0.5,2c0,0.6,0.1,1.2,0.3,1.7c0.3,0.7,0.9,1.3,1.6,1.7c0.7,0.4,1.5,0.6,2.5,0.6h0c1.1,0,1.9-0.2,2.7-0.5
				c0.5-0.2,0.9-0.5,1.3-0.9c0,0.2,0,0.3,0,0.4c0,0.1,0.1,0.3,0.1,0.4c0,0.1,0.1,0.2,0.2,0.2c0.1,0.1,0.2,0.2,0.4,0.2
				c0.1,0,0.3,0,0.5,0h0.6v-9.5c0-0.7-0.1-1.3-0.3-1.8C103.1,23.6,102.8,23.3,102.6,23z M101.7,31.9c-0.5,0.5-1,1-1.5,1.3
				c-0.6,0.3-1.3,0.5-2.3,0.5c-0.4,0-0.8,0-1.1-0.1c-0.2-0.1-0.5-0.2-0.7-0.3c-0.3-0.2-0.5-0.4-0.7-0.8c-0.2-0.3-0.3-0.8-0.3-1.3
				c0-0.4,0.1-0.8,0.3-1.1c0.1-0.2,0.3-0.4,0.5-0.6c0.3-0.2,0.7-0.4,1.2-0.6c0.5-0.1,1-0.2,1.6-0.2c1.1,0,2,0.1,2.9,0.3V31.9z"/>
			<path id="XMLID_101_" class="st0" d="M116.3,22.9c-0.3-0.4-0.8-0.6-1.2-0.8c-0.5-0.1-1-0.2-1.5-0.2c-1.2,0-2.2,0.3-3.2,0.7
				c-0.8,0.3-1.4,0.7-2,1.2v-0.1c0-0.3,0-0.5,0-0.7c0-0.1-0.1-0.3-0.1-0.4c0-0.1-0.1-0.2-0.1-0.2c0,0-0.1-0.1-0.2-0.1
				c-0.1-0.1-0.2-0.1-0.3-0.1c-0.1,0-0.2,0-0.3,0h-0.9v13.2h1.8v-9.7c0.7-0.5,1.4-1,2.2-1.4c0.8-0.4,1.7-0.6,2.6-0.6
				c0.3,0,0.6,0,0.9,0.1c0.2,0.1,0.4,0.1,0.5,0.2c0.2,0.2,0.4,0.3,0.5,0.6c0.1,0.3,0.2,0.7,0.2,1.2v9.5h1.8v-9.7
				c0-0.7-0.1-1.3-0.3-1.8C116.8,23.4,116.6,23.1,116.3,22.9z"/>
			<path id="XMLID_98_" class="st0" d="M140.8,22.9c-1-0.7-2.2-1.1-3.6-1c-0.9,0-1.8,0.2-2.5,0.5c-1.1,0.5-2.1,1.3-2.7,2.3
				c-0.6,1.1-1,2.4-1,3.9c0,1,0.2,2,0.4,2.8c0.4,1.2,1.2,2.2,2.2,2.9c1,0.7,2.2,1,3.6,1c0.9,0,1.8-0.2,2.5-0.5
				c1.1-0.5,2-1.3,2.7-2.3c0.6-1.1,1-2.4,1-3.9c0-1-0.1-2-0.4-2.8C142.5,24.6,141.8,23.6,140.8,22.9z M141.3,30.8
				c-0.3,1-0.8,1.7-1.5,2.2c-0.7,0.5-1.5,0.8-2.5,0.8c-0.7,0-1.3-0.1-1.8-0.3c-0.8-0.3-1.4-0.9-1.8-1.7c-0.4-0.8-0.7-1.8-0.7-3.1
				c0-0.8,0.1-1.6,0.3-2.2c0.3-1,0.8-1.7,1.5-2.2c0.7-0.5,1.5-0.8,2.5-0.8c0.7,0,1.3,0.1,1.8,0.3c0.8,0.3,1.4,0.9,1.8,1.7
				c0.4,0.8,0.7,1.8,0.7,3.1C141.6,29.5,141.5,30.2,141.3,30.8z"/>
			<path id="XMLID_97_" class="st0" d="M162.8,22.9c-0.3-0.4-0.7-0.6-1.2-0.8c-0.5-0.2-0.9-0.2-1.5-0.2c-1.1,0-2.1,0.3-2.9,0.6
				c-0.7,0.3-1.4,0.8-2,1.2c-0.1-0.2-0.2-0.4-0.3-0.6c-0.3-0.4-0.8-0.8-1.3-1c-0.5-0.2-1-0.3-1.6-0.3c-1.1,0-2.1,0.3-3,0.7
				c-0.6,0.3-1.2,0.7-1.7,1v0c0-0.3,0-0.5,0-0.7c0-0.1,0-0.3-0.1-0.4c0-0.1-0.1-0.2-0.2-0.2c0,0-0.1-0.1-0.2-0.1
				c-0.1-0.1-0.2-0.1-0.3-0.1c-0.1,0-0.2,0-0.3,0h-0.9v13.2h1.8v-9.8c0.6-0.5,1.3-1,1.9-1.3c0.7-0.4,1.5-0.6,2.4-0.6
				c0.3,0,0.6,0,0.9,0.1c0.2,0.1,0.3,0.1,0.5,0.2c0.2,0.1,0.4,0.3,0.5,0.6c0.1,0.3,0.2,0.7,0.2,1.2v9.6h1.8v-9.9
				c0.6-0.5,1.2-0.9,1.9-1.3c0.7-0.4,1.5-0.6,2.3-0.6c0.3,0,0.6,0,0.9,0.1c0.2,0.1,0.4,0.1,0.5,0.2c0.2,0.1,0.4,0.3,0.5,0.6
				c0.1,0.3,0.2,0.7,0.2,1.2v9.6h1.8v-10c0-0.6-0.1-1.1-0.3-1.5C163.2,23.4,163,23.1,162.8,22.9z"/>
			<path id="XMLID_96_" class="st0" d="M127.7,33.3c-0.5,0.3-1.3,0.5-2.2,0.5c-0.7,0-1.3-0.1-1.9-0.3c-0.4-0.2-0.8-0.4-1.1-0.7
				c-0.5-0.4-0.8-1-1.1-1.7c-0.2-0.7-0.4-1.5-0.4-2.5c0-0.8,0.1-1.6,0.3-2.2c0.3-0.9,0.8-1.7,1.5-2.2c0.7-0.5,1.5-0.8,2.5-0.8
				c0.9,0,1.5,0.1,2,0.4c0.9,0.4,1.6,0.9,2.3-0.6c-1.9-1.5-3.7-1.3-4.2-1.4c-0.9,0-1.8,0.2-2.5,0.4c-1.1,0.5-2.1,1.3-2.7,2.3
				c-0.7,1.1-1,2.4-1,3.9c0,1,0.1,1.9,0.4,2.8c0.4,1.2,1.1,2.2,2.1,2.9c1,0.7,2.2,1,3.7,1h0c1.1,0,2.1-0.2,2.8-0.5
				c0.1,0,0.2-0.1,0.3-0.1c0.6-0.3,1.1-0.7,1.5-1C129.2,32.3,128.6,32.8,127.7,33.3z"/>
			<path id="XMLID_93_" class="st0" d="M175.9,23.8c-0.5-0.6-1.1-1.1-1.8-1.5c-0.7-0.3-1.6-0.4-2.5-0.4c-0.9,0-1.6,0.2-2.4,0.5
				c-1.1,0.5-2,1.3-2.6,2.4c-0.6,1.1-1,2.4-1,3.9c0,1,0.1,1.9,0.4,2.7c0.4,1.2,1.1,2.2,2.1,2.9c1,0.7,2.2,1,3.7,1h0
				c1.2,0,2.1-0.2,2.9-0.5c1.2-0.5,1.9-1,2.2-1.4c-0.9-1.2-1.3-0.7-2.3-0.3c-0.6,0.3-1.7,0.5-2.7,0.5c-0.8,0-1.4-0.1-2-0.3
				c-0.4-0.2-0.8-0.4-1.1-0.6c-0.5-0.4-0.8-0.9-1.1-1.6c-0.2-0.6-0.3-1.3-0.4-2.2h9.5v-0.3v-0.1c0-0.1,0-0.3,0-0.5
				c0-1-0.1-2-0.4-2.7C176.4,24.7,176.2,24.2,175.9,23.8z M167.6,27.4c0.1-0.6,0.2-1.1,0.4-1.6c0.3-0.8,0.8-1.4,1.4-1.8
				c0.6-0.4,1.3-0.6,2.2-0.6c0.5,0,1.1,0.1,1.5,0.2c0.3,0.1,0.6,0.3,0.9,0.5c0.4,0.3,0.7,0.8,0.9,1.4c0.2,0.5,0.3,1.2,0.4,1.9H167.6
				z"/>
			<path id="XMLID_92_" class="st0" d="M184.8,21.9c-1,0-1.8,0.3-2.5,0.7c-0.5,0.3-0.9,0.6-1.3,1c0-0.3,0-0.6,0-0.8
				c0-0.2,0-0.3-0.1-0.4c0-0.1-0.1-0.2-0.1-0.3c0,0-0.1-0.1-0.2-0.1c-0.1-0.1-0.2-0.1-0.3-0.1c-0.1,0-0.2,0-0.3,0h-0.9v13.2h1.8
				v-9.5c0.6-0.8,1.2-1.2,1.6-1.5c0,0,0,0,0,0c0.7-0.5,1.3-0.6,1.8-0.6c0.8-0.1,1.4-0.2,1.5-1.5C185.6,22,185.2,21.9,184.8,21.9z"/>
		</g>
	</g>
	<g id="XMLID_7_">
		<path id="XMLID_88_" class="st1" d="M46.1,44.1c0-2.4,1.4-3.8,3.2-3.8c1.4,0,2.2,0.6,2.7,1.7l-1,0.6c-0.3-0.7-0.8-1.2-1.7-1.2
			c-1.2,0-1.9,1-1.9,2.6c0,1.7,0.7,2.7,2,2.7c0.9,0,1.5-0.5,1.8-1.4l1.1,0.5c-0.4,1.2-1.3,2-2.8,2C47.5,47.9,46.1,46.5,46.1,44.1z"
			/>
		<path id="XMLID_86_" class="st1" d="M53.3,47.7v-5.2h1.1l0.1,0.8h0c0.3-0.5,0.9-1,1.8-1h0l0.1,1.1c-0.1,0-0.2,0-0.3,0
			c-0.8,0-1.4,0.4-1.7,0.9v3.3H53.3z"/>
		<path id="XMLID_83_" class="st1" d="M56.8,45.1c0-2,1.4-2.7,2.5-2.7c1.1,0,2.3,0.7,2.3,2.8v0.3H58c0,0.9,0.6,1.4,1.4,1.4
			c0.6,0,1.2-0.3,1.6-0.7l0.5,0.8c-0.6,0.6-1.3,0.8-2.2,0.8C58,47.9,56.8,47.1,56.8,45.1z M60.5,44.6c-0.1-0.8-0.5-1.2-1.2-1.2
			c-0.6,0-1.1,0.4-1.3,1.2H60.5z"/>
		<path id="XMLID_80_" class="st1" d="M62.3,46.5c0-1.2,1-1.9,3.4-2.1v-0.2c0-0.5-0.3-0.7-0.9-0.7c-0.7,0-1.2,0.3-1.7,0.7l-0.7-0.7
			c0.6-0.5,1.3-1,2.5-1c1.3,0,1.9,0.7,1.9,1.9v3.4h-1.1l-0.1-0.7c-0.5,0.5-1.1,0.7-1.9,0.7C62.9,47.8,62.3,47.3,62.3,46.5z
			 M65.7,46.3v-1.2c-1.7,0.2-2.2,0.6-2.2,1.1c0,0.4,0.3,0.6,0.7,0.6C64.8,46.9,65.3,46.7,65.7,46.3z"/>
		<path id="XMLID_78_" class="st1" d="M68.2,47.7v-5.2h1.1l0.1,0.7c0.4-0.4,1-0.8,1.9-0.8c0.9,0,1.5,0.5,1.5,1.5v3.8h-1.2v-3.4
			c0-0.6-0.2-0.9-0.8-0.9c-0.5,0-1,0.3-1.4,0.7v3.6H68.2z"/>
		<path id="XMLID_75_" class="st1" d="M73.8,45.2c0-1.8,0.9-2.7,2.1-2.7c0.7,0,1.3,0.2,1.6,0.7v-2.6l1.2-0.2v7.4h-1.1l-0.1-0.7
			c-0.4,0.4-0.9,0.8-1.7,0.8C74.7,47.8,73.8,47,73.8,45.2z M77.5,46.2v-2.1c-0.4-0.4-0.8-0.6-1.3-0.6c-0.7,0-1.2,0.6-1.2,1.7
			c0,1.1,0.5,1.7,1.2,1.7C76.8,46.8,77.2,46.6,77.5,46.2z"/>
		<path id="XMLID_72_" class="st1" d="M79.8,45.1c0-1.9,1.3-2.7,2.5-2.7c1.3,0,2.5,0.8,2.5,2.7c0,1.9-1.3,2.7-2.5,2.7
			S79.8,47,79.8,45.1z M83.7,45.1c0-1-0.4-1.7-1.3-1.7c-0.9,0-1.3,0.7-1.3,1.7c0,1,0.4,1.7,1.3,1.7C83.2,46.8,83.7,46.1,83.7,45.1z"
			/>
		<path id="XMLID_69_" class="st1" d="M88.2,44.1c0-2.5,1.5-3.8,3.3-3.8c1.8,0,3.3,1.3,3.3,3.8s-1.5,3.8-3.3,3.8
			C89.8,47.9,88.2,46.6,88.2,44.1z M93.6,44.1c0-1.7-0.8-2.6-2.1-2.6c-1.2,0-2.1,1-2.1,2.6c0,1.7,0.8,2.7,2.1,2.7
			C92.8,46.8,93.6,45.8,93.6,44.1z"/>
		<path id="XMLID_66_" class="st1" d="M95.9,49.8v-7.3H97l0.1,0.7c0.4-0.4,0.9-0.8,1.7-0.8c1.2,0,2.1,0.9,2.1,2.7
			c0,1.8-0.9,2.7-2.1,2.7c-0.7,0-1.2-0.2-1.6-0.6v2.5L95.9,49.8z M99.6,45.1c0-1.1-0.5-1.7-1.2-1.7c-0.5,0-0.9,0.3-1.3,0.6v2.1
			c0.4,0.4,0.8,0.6,1.3,0.6C99.1,46.9,99.6,46.3,99.6,45.1z"/>
		<path id="XMLID_63_" class="st1" d="M101.6,45.1c0-1.9,1.3-2.7,2.5-2.7c1.3,0,2.5,0.8,2.5,2.7c0,1.9-1.3,2.7-2.5,2.7
			S101.6,47,101.6,45.1z M105.5,45.1c0-1-0.4-1.7-1.3-1.7c-0.9,0-1.3,0.7-1.3,1.7c0,1,0.4,1.7,1.3,1.7
			C105,46.8,105.5,46.1,105.5,45.1z"/>
		<path id="XMLID_61_" class="st1" d="M107.7,47.7v-5.2h1.1l0.1,0.8h0c0.3-0.5,0.9-1,1.8-1h0l0.1,1.1c-0.1,0-0.2,0-0.3,0
			c-0.8,0-1.4,0.4-1.7,0.9v3.3H107.7z"/>
		<path id="XMLID_59_" class="st1" d="M112.2,46.3v-2.8h-0.9v-1h0.9v-1.7l1.2-0.2v1.9h1.3v1h-1.3v2.6c0,0.6,0.2,0.7,0.7,0.7
			c0.2,0,0.4,0,0.5-0.1l0.1,1c-0.1,0-0.6,0.1-1,0.1C112.7,47.8,112.2,47.4,112.2,46.3z"/>
		<path id="XMLID_57_" class="st1" d="M115.7,46.3v-3.8h1.2V46c0,0.6,0.2,0.8,0.8,0.8c0.5,0,1-0.3,1.4-0.7v-3.6h1.2v5.2h-1.1
			l-0.1-0.7c-0.4,0.4-1,0.8-1.9,0.8C116.3,47.9,115.7,47.4,115.7,46.3z"/>
		<path id="XMLID_55_" class="st1" d="M121.7,47.7v-5.2h1.1l0.1,0.7c0.4-0.4,1-0.8,1.9-0.8c0.9,0,1.5,0.5,1.5,1.5v3.8h-1.2v-3.4
			c0-0.6-0.2-0.9-0.8-0.9c-0.5,0-1,0.3-1.4,0.7v3.6H121.7z"/>
		<path id="XMLID_52_" class="st1" d="M127.6,41.1c0-0.4,0.2-0.6,0.7-0.6c0.5,0,0.7,0.3,0.7,0.6c0,0.4-0.3,0.6-0.7,0.6
			C127.8,41.8,127.6,41.5,127.6,41.1z M127.7,47.7v-5.2h1.2v5.2H127.7z"/>
		<path id="XMLID_49_" class="st1" d="M130,45.2c0-1.8,0.9-2.7,2.1-2.7c0.7,0,1.3,0.2,1.6,0.7v-2.6l1.2-0.2v7.4h-1.1l-0.1-0.7
			c-0.4,0.4-0.9,0.8-1.7,0.8C130.9,47.8,130,47,130,45.2z M133.7,46.2v-2.1c-0.4-0.4-0.8-0.6-1.3-0.6c-0.7,0-1.2,0.6-1.2,1.7
			c0,1.1,0.5,1.7,1.2,1.7C133,46.8,133.4,46.6,133.7,46.2z"/>
		<path id="XMLID_46_" class="st1" d="M136,46.5c0-1.2,1-1.9,3.4-2.1v-0.2c0-0.5-0.3-0.7-0.9-0.7c-0.7,0-1.2,0.3-1.7,0.7l-0.7-0.7
			c0.6-0.5,1.3-1,2.5-1c1.3,0,1.9,0.7,1.9,1.9v3.4h-1.1l-0.1-0.7c-0.5,0.5-1.1,0.7-1.9,0.7C136.6,47.8,136,47.3,136,46.5z
			 M139.4,46.3v-1.2c-1.7,0.2-2.2,0.6-2.2,1.1c0,0.4,0.3,0.6,0.7,0.6C138.5,46.9,139,46.7,139.4,46.3z"/>
		<path id="XMLID_13_" class="st1" d="M141.6,45.2c0-1.8,0.9-2.7,2.1-2.7c0.7,0,1.3,0.2,1.6,0.7v-2.6l1.2-0.2v7.4h-1.1l-0.1-0.7
			c-0.4,0.4-0.9,0.8-1.7,0.8C142.4,47.8,141.6,47,141.6,45.2z M145.3,46.2v-2.1c-0.4-0.4-0.8-0.6-1.3-0.6c-0.7,0-1.2,0.6-1.2,1.7
			c0,1.1,0.5,1.7,1.2,1.7C144.5,46.8,144.9,46.6,145.3,46.2z"/>
		<path id="XMLID_10_" class="st1" d="M147.6,45.1c0-2,1.4-2.7,2.5-2.7c1.1,0,2.3,0.7,2.3,2.8v0.3h-3.6c0,0.9,0.6,1.4,1.4,1.4
			c0.6,0,1.2-0.3,1.6-0.7l0.5,0.8c-0.6,0.6-1.3,0.8-2.2,0.8C148.8,47.9,147.6,47.1,147.6,45.1z M151.2,44.6
			c-0.1-0.8-0.5-1.2-1.2-1.2c-0.6,0-1.1,0.4-1.3,1.2H151.2z"/>
		<path id="XMLID_8_" class="st1" d="M153,47l0.5-0.8c0.5,0.4,1.1,0.7,1.8,0.7c0.6,0,1-0.2,1-0.6c0-0.4-0.3-0.6-1.2-0.7
			c-1.1-0.2-1.9-0.5-1.9-1.6c0-0.9,0.8-1.5,1.9-1.5c0.9,0,1.6,0.3,2.1,0.7l-0.4,0.9c-0.5-0.4-1-0.6-1.6-0.6c-0.6,0-0.9,0.2-0.9,0.5
			c0,0.3,0.3,0.5,1.1,0.7c1.2,0.2,2.1,0.5,2.1,1.6c0,1.1-1,1.7-2.2,1.7C154.2,47.8,153.5,47.5,153,47z"/>
	</g>
</g>
</svg>
