<?xml version="1.0" encoding="utf-8"?>
<!-- Generator: Adobe Illustrator 22.0.1, SVG Export Plug-In . SVG Version: 6.00 Build 0)  -->
<svg version="1.1" id="Capa_1" xmlns="http://www.w3.org/2000/svg" xmlns:xlink="http://www.w3.org/1999/xlink" x="0px" y="0px"
	 viewBox="0 0 792 612" style="enable-background:new 0 0 792 612;" xml:space="preserve">
<style type="text/css">
	.st0{fill:#A2A0A6;}
	.st1{fill:#1E120D;}
	.st2{fill:#3A9954;}
	.st3{fill:#EFA220;}
	.st4{fill:#004C94;}
	.st5{fill:#C8002D;}
	.st6{fill:#6B9B3B;}
	.st7{fill:#DCDEE2;}
</style>
<g>
	<g>
		<path class="st0" d="M147.4,421.5c-2.7,9.5-9.9,14.8-20.4,14.8c-14.3,0-21.7-9.6-21.7-28.3c0-18.4,8.2-28.6,22.3-28.6
			c10,0,16.5,5.1,18.6,14.4l-9.6,2.4c-1.4-5.3-4.6-8.1-9.7-8.1c-7.5,0-11.2,6.6-11.2,19.9c0,12.8,3.5,19,11.4,19
			c5.1,0,9.1-3.1,10.6-8.2L147.4,421.5z"/>
		<path class="st0" d="M161,415.4c0-8.5,2.5-12.6,7.6-12.6c5.1,0,7.6,4.1,7.6,12.6c0,8.5-2.4,12.7-7.6,12.7
			C163.5,428.1,161,423.9,161,415.4z M151.5,415.4c0,13.1,6.5,20.7,17.1,20.7c10.6,0,17.1-7.6,17.1-20.7c0-13.1-6.4-20.7-17.1-20.7
			C157.9,394.7,151.5,402.3,151.5,415.4z"/>
		<path class="st0" d="M192.8,395.4h8.7v4.6c3.1-3.6,6.8-5.4,11.2-5.4c4.7,0,7.9,1.9,9.8,5.9c4-4,7.9-5.9,12.9-5.9
			c6.6,0,10.7,3.9,10.7,10.1v30.6h-9.4v-27.5c0-3.4-1.5-5.4-4.3-5.4c-2.9,0-5.7,1.4-8.4,4.1v28.8h-9.2v-26.4c0-4.3-1.2-6.4-4.1-6.4
			c-3.1,0-6.2,1.4-8.5,4.1v28.7h-9.3V395.4z"/>
		<path class="st0" d="M265.1,425.1v-19c2.4-2.3,4.5-3.5,7.1-3.5c5.3,0,8.5,4.5,8.5,12.8c0,8.4-3.3,13-8.4,13
			C269.7,428.5,267.5,427.3,265.1,425.1z M265.2,431.6c2.7,3.2,5.6,4.5,9.7,4.5c8.6,0,15.2-7.8,15.2-20.7c0-12.4-6.5-20.7-15.5-20.7
			c-4.4,0-7.5,1.5-10.8,5.1l-1-4.3h-6.8v54.3h9.2V431.6z"/>
		<path class="st0" d="M308.4,436.1c-7.4,0-11.1-4.3-11.1-12.9v-27.8h9.4v25.9c0,4.9,1.1,7.2,4.6,7.2c2.8,0,5.6-1.5,8.8-4.5v-28.6
			h9.3v39.9h-8.7v-4.6C316.4,434.3,312.8,436.1,308.4,436.1z"/>
		<path class="st1" d="M347.4,418.7c2.9,5.9,6.3,8.4,11.2,8.4c5.6,0,8.9-2.8,8.9-7c0-3.7-2.5-5.6-8.2-7.8c-4.9-1.8-9.5-3.3-13.1-5.7
			c-4.2-2.7-6.5-6.9-6.5-12.2c0-8.8,7.1-15.1,18-15.1c9.4,0,15.7,4.1,18.6,12.1L367,395c-2.3-4.9-5.2-7.1-9.9-7.1
			c-4.6,0-7.3,2.3-7.3,5.9c0,5.2,5.4,6.1,14.1,9.8c9.2,3.9,13.7,7.5,13.7,16.1c0,10-6.9,16.4-18.7,16.4c-10.2,0-17.3-4.6-20.9-13.2
			L347.4,418.7z"/>
		<path class="st1" d="M392,415.4c0-8.5,2.5-12.6,7.5-12.6c5.1,0,7.6,4.1,7.6,12.6c0,8.5-2.4,12.7-7.6,12.7
			C394.5,428.1,392,423.9,392,415.4z M382.5,415.4c0,13.1,6.5,20.7,17.1,20.7c10.6,0,17.1-7.6,17.1-20.7c0-13.1-6.4-20.7-17.1-20.7
			C388.9,394.7,382.5,402.3,382.5,415.4z"/>
		<path class="st1" d="M423.8,380.1h9.4v55.3h-9.4V380.1z"/>
		<path class="st1" d="M454.2,436.1c-7.4,0-11.1-4.3-11.1-12.9v-27.8h9.4v25.9c0,4.9,1.1,7.2,4.6,7.2c2.8,0,5.6-1.5,8.8-4.5v-28.6
			h9.3v39.9h-8.7v-4.6C462.2,434.3,458.6,436.1,454.2,436.1z"/>
		<path class="st1" d="M515.2,425.9c-2.7,6.6-8.1,10.1-15.7,10.1c-11.3,0-17.2-7.1-17.2-20.7c0-12.9,6.6-20.6,17.2-20.6
			c7.5,0,12.9,3.6,15.3,10.3l-7.9,3.4c-1.4-4-3.4-6-6.8-6c-5.8,0-8.4,4.3-8.4,13.4c0,8.2,2.5,12.2,7.8,12.2c3.7,0,6.4-1.9,8.4-6
			L515.2,425.9z"/>
		<path class="st1" d="M522.2,395.4h9.4v39.9h-9.4V395.4z M522.2,380.1h9.4v8.9h-9.4V380.1z"/>
		<path class="st1" d="M548.2,415.4c0-8.5,2.5-12.6,7.5-12.6c5.1,0,7.6,4.1,7.6,12.6c0,8.5-2.4,12.7-7.6,12.7
			C550.7,428.1,548.2,423.9,548.2,415.4z M538.7,415.4c0,13.1,6.5,20.7,17.1,20.7c10.6,0,17.1-7.6,17.1-20.7
			c0-13.1-6.4-20.7-17.1-20.7C545.1,394.7,538.7,402.3,538.7,415.4z"/>
		<path class="st1" d="M580,395.4h8.7v4.7c4.4-3.6,7.9-5.4,12.3-5.4c7.4,0,11.2,4.3,11.2,12.9v27.8h-9.4v-25.9
			c0-4.9-1.1-7.1-4.6-7.1c-2.8,0-5.6,1.4-8.8,4.4v28.6H580V395.4z"/>
		<path class="st1" d="M628.5,410.3c0.4-5.4,3-8.5,7.3-8.5c4.5,0,7.2,3.1,7.2,8.5H628.5z M651.9,427.5l-6.9-4.3
			c-2.2,3.5-4.6,5.1-8.2,5.1c-5.5,0-8.4-3.8-8.4-11.3h23.9c0-0.7,0.1-1.4,0.1-2.1c0-13-6.2-20.3-16.5-20.3
			c-10.3,0-16.7,7.5-16.7,20.8c0,13.1,6.3,20.6,16.9,20.6C643.4,436.1,648.8,433.1,651.9,427.5z"/>
		<path class="st1" d="M662.6,423.1c3,3.8,5.9,5.7,9.1,5.7c3.5,0,5.6-1.8,5.6-4.4c0-3.3-2.8-4-7.3-5.7c-8.2-3.1-12.5-5.7-12.5-12.3
			c0-6.6,5.4-11.7,13.7-11.7c5.6,0,9.8,2,13.5,6.1l-5.9,5.2c-2.5-2.7-5-4-7.8-4c-3.3,0-5.1,1.6-5.1,4c0,2.7,3.3,3.3,8.9,5.6
			c7.3,2.8,11,5.6,11,12.5c0,7.4-5.5,12.2-13.9,12.2c-6.6,0-11.4-2.5-15.6-8L662.6,423.1z"/>
	</g>
	<path class="st2" d="M390.9,219.8C390.9,219.8,390.9,219.8,390.9,219.8C390.9,219.8,390.9,219.8,390.9,219.8L390.9,219.8z"/>
	<path class="st3" d="M391.8,225.6c-0.6-0.9-2.1-4-2.4-4.6c-3.3,2.4-6.7,3.7-10,3c-1.2-0.3-2.7-1.4-4.3-2.1c-3-1.3-7.2-2-10-2.2
		c1,3.2,2.7,6.1,5,8.4c4.1,4.2,9.6,5.7,15.6,4.3C387.1,230.4,389.9,227.2,391.8,225.6z"/>
	<path class="st3" d="M408.2,171.3c-15.5-15.8-42.2,8.5-44.4,36.2c0.6,0,7.3,0.8,8,1c1.1-21.7,21.2-39.5,29.7-30.9
		c6.9,7.1,2.6,21.6-0.5,28.7c-2,4.5,1.9,11.1,3.2,12.9C414.4,205.6,419.4,182.7,408.2,171.3z"/>
	<path class="st4" d="M440.3,238.8c-6.4-15.1-20.8-23.1-35.3-18.6c1.8,2.3,4,4.4,7.1,6.9c3.5,2.8,7.4,3,10.4,5.6
		c12.5,10.6,12.8,38.1-2,52.6c-14.5,14.3-31.4,5-34.1-15.7c-3,1.5-5.9,2.6-8.9,3.4c4.2,29.6,31.5,40.7,51.9,20.8
		C444.1,279.2,447.4,255.6,440.3,238.8z"/>
	<path class="st4" d="M388,251.4c2.1-6.7,5.9-12.8,10.8-17.1c-2.2-2.2-4.3-4.6-6-7.1c0,0,0,0-0.1-0.1c-8.4,7.7-13.9,19.5-15.4,31.4
		C380.9,257.3,385.2,254.9,388,251.4z"/>
	<path class="st5" d="M401.1,236.5c-0.4-0.3-0.6-0.5-1-0.9c-2.6,2.3-5.6,6.2-7.2,9.1c-2.5,17.8-33,24.4-49.5,7.6
		c-13.6-13.9-4.7-34.5,19.2-34.6c7,0,13.6,2.2,16.3,3.9c2.5,1.6,6.2,0.3,9.7-2.4c-0.2-0.6-0.4-1.1-0.6-1.7
		c-15.8-11.6-40-10.6-52.1,1.2c-13.2,13-10.5,30.2,0.3,41.2c15.8,16.1,42.9,16.1,57.2,2.1C401,254.8,403.2,245.3,401.1,236.5z"/>
	<g>
		<path class="st6" d="M452.5,202.8c-10.2-10.3-24-15.6-36.2-15.7c0.2,3-0.1,6.1-0.5,8.8c9.8-0.1,21.5,4.5,29.3,12.4
			c6.5,6.7,11.6,17.4,4.6,24.2c-2.1,2.1-5,3.5-8.4,4.2c1.5,3.1,2.5,6.4,3.2,9.9C465.4,241.1,469.1,219.6,452.5,202.8z"/>
		<path class="st6" d="M424.3,237.3c-0.5-0.7-1.3-2.3-5-3.9c-9.6-4.1-20-13.5-20.8-24.3c-0.1-1.7,0.1-4,1.9-7c1.7-2.7,2.9-9,3-12.9
			c-12.2,4.7-19.9,18.3-10.1,35.1c6.4,11,20.2,20.5,35.6,22.8C428.1,243.7,426,239.5,424.3,237.3z"/>
	</g>
	<path class="st7" d="M464.6,331.4c0-4.3-13.6-7.6-32.2-7.6c-9.7,0-18.7,0.8-25.7,2c-1.5-2-6.3-3.9-16.1-4.7
		c-8.9-2.9-18-5.3-22.7-5.3c-2.5,0-4.8,0.6-4.8,1.7c0,0.8,1.9,2.1,4.9,3.5c-19.3,1.2-41.7,5.5-41.7,11.1c0,3.9,12.8,6.5,28.5,6.5
		c12.8,0,24.2-1.2,33.1-2.9c13,6.5,38,14.2,49.1,14.2c2.9,0,7.8-0.6,7.8-2.4c0-1.9-4.8-4.8-11.8-7.8
		C453.3,338.8,464.6,334.6,464.6,331.4z M389.7,324.2c1.9,0.7,3.7,1.3,5.9,2.2c-3-0.9-5.3-1.6-7.5-2.4
		C388.7,324.1,389.2,324.1,389.7,324.2z M401.5,332.9c3,0.9,6.1,1.9,9.3,2.9C406,335.2,402.4,334.2,401.5,332.9z M355.2,334.9
		c-11.1,0-18.1-1.3-18.1-3.2c0-3.1,18-7.6,37.4-8.1c2.8,1.1,5.9,2.2,9.1,3.2c-2.4,0.4-3.8,1.1-3.8,2.3c0,0.9,1,2,2.7,3.3
		C374.5,333.9,364.5,334.9,355.2,334.9z M414.1,339.4c2.3,0.2,4.7,0.3,7.2,0.4c4.3,1.8,7.7,3.4,9.5,4.7
		C425.7,343.2,419.7,341.4,414.1,339.4z M425.9,336.7c-4.4-1.7-9.2-3.3-13.9-4.8c0.7-0.3,1-0.6,1-0.9c0-0.5-1.5-1.5-3.9-2.7
		c5.3-1.2,13-1.9,21.7-1.9c13.8,0,24.3,2,24.3,4.6C455.2,333.9,440.7,336.6,425.9,336.7z"/>
</g>
</svg>
