<?xml version="1.0" encoding="utf-8"?>
<!-- Generator: Adobe Illustrator 22.0.1, SVG Export Plug-In . SVG Version: 6.00 Build 0)  -->
<svg version="1.1" id="Capa_1" xmlns="http://www.w3.org/2000/svg" xmlns:xlink="http://www.w3.org/1999/xlink" x="0px" y="0px"
	 viewBox="0 0 1440 125" style="enable-background:new 0 0 1440 125;" xml:space="preserve">
<style type="text/css">
	.st0{clip-path:url(#SVGID_2_);}
	.st1{opacity:0.99;fill:#6EE1FF;enable-background:new    ;}
	.st2{opacity:0.99;fill:#7191F8;enable-background:new    ;}
	.st3{fill:#1F262D;}
</style>
<title>Group 7</title>
<desc>Created with Sketch.</desc>
<g id="Landing-Page">
	<g id="Desktop-HD" transform="translate(0.000000, -2380.000000)">
		<g>
			<g>
				<defs>
					<rect id="SVGID_1_" x="-29.7" y="2359.5" width="1474.6" height="137.2"/>
				</defs>
				<clipPath id="SVGID_2_">
					<use xlink:href="#SVGID_1_"  style="overflow:visible;"/>
				</clipPath>
				<g class="st0">
					<path id="Fill-1" class="st1" d="M-148.6,2704.7c0,163.3,312.5,295.7,697.9,295.7s697.9-132.4,697.9-295.7
						S934.8,2409,549.3,2409C163.9,2409-148.6,2541.4-148.6,2704.7"/>
					<path id="Fill-1_1_" class="st1" d="M-503.2,2691c0,163.3,312.5,295.7,697.9,295.7s697.9-132.4,697.9-295.7
						s-312.5-295.7-697.9-295.7C-190.8,2395.2-503.2,2527.7-503.2,2691"/>
					<path id="Fill-3" class="st2" d="M1599.4,2567.2c-44.7,47.2-46.8,95.8-5.6,134.5c26.7,25.1,36.4,68.2,21.7,99.8
						c-47.3,101.5-318.7,196.2-593.8,192.6c-252.2-3.3-334.7-151.5-521.8-107.9c-440.2,102.7-619.7-9.4-611.6-122.3
						c5.2-72.9,133.1-180.2,433.7-213.1c88.5-9.7,173.8-31,245.8-59.8c123-49.1,324.4-84.9,538.2-89.9
						c321.5-7.6,549.2,57.1,508.4,144.6C1611.1,2553,1606,2560.1,1599.4,2567.2"/>
				</g>
			</g>
		</g>
		<g id="Group-7" transform="translate(1218.000000, 649.000000)">
			<path id="Fill-3_1_" class="st3" d="M-1418.4,2168.8c43.9-48,45.2-96.6,3.2-134.6c-27.2-24.6-37.6-67.6-23.5-99.4
				c45.5-102.4,315.3-201.8,590.3-203c252.2-1.1,337.3,145.7,523.6,98.7c438.5-110.4,619.9-1.5,613.7,111.6
				c-4,73-129.9,182.5-429.9,220.6c-88.3,11.2-173.2,34.1-244.7,64.1c-122.1,51.3-322.9,90.5-536.5,99.3
				c-321.3,13.2-550.1-47.5-510.9-135.7C-1429.8,2183.1-1424.9,2175.9-1418.4,2168.8"/>
		</g>
	</g>
</g>
</svg>
