<?xml version="1.0" encoding="utf-8"?>
<!-- Generator: Adobe Illustrator 22.0.1, SVG Export Plug-In . SVG Version: 6.00 Build 0)  -->
<svg version="1.1" id="Capa_1" xmlns="http://www.w3.org/2000/svg" xmlns:xlink="http://www.w3.org/1999/xlink" x="0px" y="0px"
	 viewBox="0 0 1440 890" style="enable-background:new 0 0 1440 890;" xml:space="preserve">
<style type="text/css">
	.st0{fill:#1F262D;}
	.st1{opacity:0.3;}
	.st2{fill:#4B74DF;}
	.st3{fill:#9BE6FA;}
	.st4{fill:url(#SVGID_1_);}
	.st5{fill:#9CE6FA;}
	.st6{opacity:0.31;fill:#262A30;enable-background:new    ;}
	.st7{fill:url(#SVGID_2_);}
	.st8{fill:url(#SVGID_3_);}
	.st9{fill:#7095EE;}
	.st10{fill:url(#SVGID_4_);}
	.st11{fill:#7ACCE4;}
	.st12{fill:#97DEF4;}
	.st13{clip-path:url(#SVGID_6_);fill:#4E7EE0;}
	.st14{clip-path:url(#SVGID_8_);fill:#6FBDE9;}
	.st15{clip-path:url(#SVGID_10_);fill:#77CEF4;}
	.st16{fill:url(#SVGID_11_);}
	.st17{fill:url(#SVGID_12_);}
	.st18{opacity:0.6;fill:#15163A;enable-background:new    ;}
	.st19{fill:url(#SVGID_13_);}
	.st20{clip-path:url(#SVGID_15_);fill:#4E7EE0;}
	.st21{clip-path:url(#SVGID_17_);fill:#6FBDE9;}
	.st22{clip-path:url(#SVGID_19_);fill:#77CEF4;}
	.st23{opacity:0.4;fill:url(#SVGID_20_);enable-background:new    ;}
	.st24{fill:url(#SVGID_21_);}
</style>
<title>Rectangle</title>
<desc>Created with Sketch.</desc>
<path class="st0" d="M1412,210.4H28.5c-18.2,0-33-14.8-33-33v-680.8c0-18.2,14.8-33,33-33H1412c18.2,0,33,14.8,33,33v680.8
	C1445,195.6,1430.2,210.4,1412,210.4z"/>
<path class="st0" d="M257.4,877.7l-1462.5-737.8c-23.5-11.9-26.9-44.1-6.3-60.6L642.9-1400.3c17.3-13.8,42.8-9,53.9,10.2
	l862.2,1493.4c10,17.3,4.1,39.4-13.2,49.4l-1254,724C281.2,882.9,268.3,883.2,257.4,877.7z"/>
<g>
	<g class="st1">
		<g>
			<path class="st2" d="M993.6,297c-2.8,0-5.6-0.7-7.8-2l-17.5-9.7c-2.4-1.3-3.7-3.2-3.7-5c0-1.6,0.9-3,2.8-4.1l84.4-46.8
				c3.7-2,9.9-1.8,13.9,0.5l17.5,9.7c2.4,1.3,3.7,3.2,3.7,5c0,1.6-0.9,3-2.8,4.1l-84.4,46.8C998.3,296.6,996.1,297,993.6,297z
				 M969.7,283.4l17.5,9.7c3.3,2,8.7,2.1,11.5,0.5l84.4-46.8c0.7-0.4,1.7-1.1,1.7-2.1c0-1.1-0.9-2.1-2.6-3l-17.5-9.7
				c-3.3-2-8.7-2.1-11.5-0.5l-84.4,46.8c-0.7,0.4-1.7,1.1-1.7,2.1C967,281.4,968,282.5,969.7,283.4L969.7,283.4z"/>
			<path class="st2" d="M1018.6,414c-2.8,0-5.6-0.7-7.8-2L1000,406c-2.4-1.3-3.7-3.2-3.7-5c0-1.6,0.9-3,2.8-4.1l43-23.8
				c3.7-2,9.9-1.8,13.9,0.5l10.8,6.1c2.4,1.3,3.7,3.2,3.7,5c0,1.6-0.9,3-2.8,4.1l-43,23.8C1023,413.5,1020.8,414,1018.6,414z
				 M1048,374.2c-1.9,0-3.7,0.4-5,1.1l-42.8,23.8c-0.7,0.4-1.7,1.1-1.7,2.1s0.9,2.1,2.6,3l10.8,6.1c3.3,2,8.7,2.1,11.5,0.5l43-23.8
				c0.7-0.4,1.7-1.1,1.7-2.1c0-1.1-0.9-2.1-2.6-3l-10.8-6.1C1052.8,374.7,1050.4,374.2,1048,374.2z"/>
			<path class="st2" d="M1066,455.5c-2.6,0-5-0.5-7.1-1.6L827,325.2c-2-1.1-3.2-2.9-3.2-4.5c0-1.8,1.1-3.4,3.2-4.5l221-122.6
				c3.9-2.1,10-2.1,13.9,0l137.4,76.1c2,1.1,3.2,2.9,3.2,4.5c0,1.8-1.1,3.4-3.2,4.5l-41.8,23.2c-1.3,0.7-2,1.6-2,2.5
				c0,0.9,0.7,1.8,2,2.5l81.8,45.4c3.2,1.8,8.4,1.8,11.5,0l91.7-50.9c1.3-0.7,2-1.6,2-2.5c0-0.9-0.7-1.8-2-2.5L937.5,71.8
				c-3.2-1.8-8.4-1.8-11.5,0l-227.1,126c-1.3,0.7-2,1.6-2,2.5s0.7,1.8,2,2.5l56.5,31.5l-1.1,2l-56.7-31.5c-2-1.1-3.2-2.9-3.2-4.5
				c0-1.8,1.1-3.4,3.2-4.5l227.1-126c3.9-2.1,10-2.1,13.9,0l405.3,224.8c2,1.1,3.2,2.9,3.2,4.5c0,1.8-1.1,3.4-3.2,4.5l-91.7,50.9
				c-3.9,2.1-10,2.1-13.9,0l-81.8-45.4c-2-1.1-3.2-2.9-3.2-4.5c0-1.8,1.1-3.4,3.2-4.5l41.8-23.2c1.3-0.7,2-1.6,2-2.5
				c0-0.9-0.7-1.8-2-2.5l-137.4-76.1c-3.2-1.8-8.4-1.8-11.5,0l-221,122.6c-1.3,0.7-2,1.6-2,2.5c0,0.9,0.7,1.8,2,2.5l231.9,128.7
				c3.2,1.8,8.4,1.8,11.5,0l115.3-64c1.3-0.7,2-1.6,2-2.5c0-0.9-0.7-1.8-2-2.5L1053.3,309c-3.2-1.8-8.4-1.8-11.5,0l-58.4,32.5
				l-1.1-2l58.4-32.5c3.9-2.1,10-2.1,13.9,0l133.7,74.2c2,1.1,3.2,2.9,3.2,4.5c0,1.8-1.1,3.4-3.2,4.5l-115.3,64
				C1071,455,1068.6,455.5,1066,455.5z"/>
			<path class="st2" d="M844.3,235.2c-2.6,0-5-0.5-7.1-1.6l-27-15l140.4-77.9c3.9-2.1,10-2.1,13.9,0l18.8,10.4
				c2,1.1,3.2,2.9,3.2,4.5c0,1.8-1.1,3.4-3.2,4.5l0,0l-132.2,73.5C849.3,234.6,846.7,235.2,844.3,235.2z M815.1,218.5l23.2,12.9
				c3.2,1.8,8.4,1.8,11.5,0l132.2-73.5c1.3-0.7,2-1.6,2-2.5c0-0.9-0.7-1.8-2-2.5l-18.6-10.4c-3.2-1.8-8.4-1.8-11.5,0L815.1,218.5z"
				/>
			<path class="st2" d="M923.7,534.5c-2.6,0-5-0.5-7.1-1.6L604.2,359.5c-2-1.1-3.2-2.9-3.2-4.5c0-1.8,1.1-3.4,3.2-4.5l179.7-99.7
				l1.1,2l-179.7,99.7c-1.3,0.7-2,1.6-2,2.5c0,0.9,0.7,1.8,2,2.5l312.5,173.4c3.2,1.8,8.4,1.8,11.5,0l36.6-20.4c1.3-0.7,2-1.6,2-2.5
				c0-0.9-0.7-1.8-2-2.5L917,478.4c-3.2-1.8-8.4-1.8-11.5,0L888,488c-3.9,2.1-10,2.1-13.9,0l-221.3-123c-2-1.1-3.2-2.9-3.2-4.5
				c0-1.8,1.1-3.4,3.2-4.5l15.1-8.4c3.9-2.1,10-2.1,13.9,0l197.3,109.4c3.2,1.8,8.4,1.8,11.5,0l39.1-21.6c3.9-2.1,10-2.1,13.9,0
				l79.4,44.1l-1.1,2l-79.4-44.1c-3.2-1.8-8.4-1.8-11.5,0l-39.1,21.6c-3.9,2.1-10,2.1-13.9,0L680.6,349.7c-3.2-1.8-8.4-1.8-11.5,0
				l-15.1,8.4c-1.3,0.7-2,1.6-2,2.5c0,0.9,0.7,1.8,2,2.5l221.3,122.8c3.2,1.8,8.4,1.8,11.5,0l17.5-9.7c3.9-2.1,10-2.1,13.9,0
				l48.9,27.2c2,1.1,3.2,2.9,3.2,4.5c0,1.8-1.1,3.4-3.2,4.5l-36.6,20.4C928.7,534,926.3,534.5,923.7,534.5z"/>
			<path class="st2" d="M878.3,433.7c-2.8,0-5.6-0.7-7.8-2l-153.6-85.2c-2.4-1.3-3.7-3.2-3.7-5c0-1.6,0.9-3,2.8-4.1l36.5-20.2
				c3.7-2,9.9-1.8,13.9,0.5L920,403c2.4,1.3,3.7,3.2,3.7,5c0,1.6-0.9,3-2.8,4.1l-36.5,20.2C882.8,433.4,880.6,433.7,878.3,433.7z
				 M718,344.5l153.6,85.2c3.3,2,8.7,2.1,11.5,0.5l36.5-20.2c0.7-0.4,1.7-1.1,1.7-2.1s-0.9-2.1-2.6-3l-153.6-85.2
				c-3.3-2-8.7-2.1-11.5-0.5l-36.5,20.2c-0.7,0.4-1.7,1.1-1.7,2.1C715.4,342.6,716.3,343.6,718,344.5L718,344.5z"/>
			<path class="st2" d="M582.8,341.7c-2.6,0-5-0.5-7.1-1.6l-61-34c-2-1.1-3.2-2.9-3.2-4.5c0-1.6,1.1-3.4,3.2-4.5L666.3,213l1.1,2
				L516,299.1c-1.3,0.7-2,1.6-2,2.5c0,0.9,0.7,1.8,2,2.5l61,34c3.2,1.8,8.4,1.8,11.5,0L729.4,260c1.3-0.7,2-1.6,2-2.5
				c0-0.9-0.7-1.8-2-2.5l-24.2-13.4c-3.2-1.8-8.4-1.8-11.5,0l-98.6,54.7l-1.1-2l98.6-54.7c3.9-2.1,10-2.1,13.9,0l24.2,13.4
				c2,1.1,3.2,2.9,3.2,4.5c0,1.8-1.1,3.4-3.2,4.5l-140.8,78.1C588,341.1,585.4,341.7,582.8,341.7z"/>
			<path class="st2" d="M1128.3,397.1c-2.8,0-5.6-0.7-7.8-2l-10.8-6.1c-2.4-1.3-3.7-3.2-3.7-5c0-1.6,0.9-3,2.8-4.1l12.6-7
				c3.7-2,9.9-1.8,13.9,0.5l10.8,6.1c2.4,1.3,3.7,3.2,3.7,5c0,1.6-0.9,3-2.8,4.1l-12.6,7C1132.8,396.7,1130.5,397.1,1128.3,397.1z
				 M1127.4,374c-1.9,0-3.7,0.4-5,1.1l-12.6,7c-0.7,0.4-1.7,1.1-1.7,2.1c0,1.1,0.9,2.1,2.6,3l10.8,6.1c3.3,2,8.7,2.1,11.5,0.5
				l12.6-7c0.7-0.4,1.7-1.1,1.7-2.1c0-1.1-0.9-2.1-2.6-3l-10.8-6.1C1132.2,374.6,1129.8,374,1127.4,374z"/>
			<path class="st2" d="M1088.5,375.1c-2.8,0-5.6-0.7-7.8-2l-10.8-6.1c-2.4-1.3-3.7-3.2-3.7-5c0-1.6,0.9-3,2.8-4.1l12.6-7
				c3.7-2,9.9-1.8,13.9,0.5l10.8,6.1c2.4,1.3,3.7,3.2,3.7,5c0,1.6-0.9,3-2.8,4.1l-12.6,7C1093.1,374.7,1090.9,375.1,1088.5,375.1z
				 M1087.8,352c-1.9,0-3.7,0.4-5,1.1l-12.6,7c-0.7,0.4-1.7,1.1-1.7,2.1c0,1.1,0.9,2.1,2.6,3l10.8,6.1c3.3,2,8.7,2.1,11.5,0.5
				l12.6-7c0.7-0.4,1.7-1.1,1.7-2.1c0-1.1-0.9-2.1-2.6-3l-10.8-6.1C1092.6,352.6,1090.2,352,1087.8,352z"/>
			<path class="st2" d="M1049.1,353.1c-2.8,0-5.6-0.7-7.8-2l-10.8-6.1c-2.4-1.3-3.7-3.2-3.7-5c0-1.6,0.9-3,2.8-4.1l12.6-7
				c3.7-2,9.9-1.8,13.9,0.5l10.8,6.1c2.4,1.3,3.7,3.2,3.7,5c0,1.6-0.9,3-2.8,4.1l-12.6,7C1053.5,352.7,1051.3,353.1,1049.1,353.1z
				 M1048.1,330.1c-1.9,0-3.7,0.4-5,1.1l-12.6,7c-0.7,0.4-1.7,1.1-1.7,2.1c0,1.1,0.9,2.1,2.6,3l10.8,6.1c3.3,2,8.7,2.1,11.5,0.5
				l12.6-7c0.7-0.4,1.7-1.1,1.7-2.1c0-1.1-0.9-2.1-2.6-3l-10.8-6.1C1053,330.6,1050.6,330.1,1048.1,330.1z"/>
			<path class="st2" d="M1088.3,419.2c-2.8,0-5.6-0.7-7.8-2l-10.8-6.1c-2.4-1.3-3.7-3.2-3.7-5c0-1.6,0.9-3,2.8-4.1l12.6-7
				c3.7-2,9.9-1.8,13.9,0.5l10.8,6.1c2.4,1.3,3.7,3.2,3.7,5c0,1.6-0.9,3-2.8,4.1l-12.6,7C1093,418.7,1090.7,419.2,1088.3,419.2z
				 M1087.6,396.2c-1.9,0-3.7,0.4-5,1.1l-12.6,7c-0.7,0.4-1.7,1.1-1.7,2.1c0,1.1,0.9,2.1,2.6,3l10.8,6.1c3.3,2,8.7,2.1,11.5,0.5
				l12.6-7c0.7-0.4,1.7-1.1,1.7-2.1s-0.9-2.1-2.6-3l-10.8-6.1C1092.4,396.7,1090,396.2,1087.6,396.2z"/>
			<path class="st2" d="M1009.1,375.3c-2.8,0-5.6-0.7-7.8-2l-10.8-6.1c-2.4-1.3-3.7-3.2-3.7-5c0-1.6,0.9-3,2.8-4.1l12.6-7
				c3.7-2,9.9-1.8,13.9,0.5l10.8,6.1c2.4,1.3,3.7,3.2,3.7,5c0,1.6-0.9,3-2.8,4.1l-12.6,7C1013.7,374.7,1011.5,375.3,1009.1,375.3z
				 M1008.3,352.2c-1.9,0-3.7,0.4-5,1.1l-12.6,7c-0.7,0.4-1.7,1.1-1.7,2.1c0,1.1,0.9,2.1,2.6,3l10.8,6.1c3.3,2,8.7,2.1,11.5,0.5
				l12.6-7c0.7-0.4,1.7-1.1,1.7-2.1c0-1.1-0.9-2.1-2.6-3l-10.8-6.1C1013.2,352.7,1010.8,352.2,1008.3,352.2z"/>
		</g>
		<g>
			<path class="st2" d="M1342.7,527.7c-2.8,0-5.6-0.7-7.8-2l-82.6-45.9c-2.4-1.3-3.7-3.2-3.7-5c0-1.6,0.9-3,2.8-4.1l19.3-10.7
				c3.7-2,9.9-1.8,13.9,0.5l82.6,45.9c2.4,1.3,3.7,3.2,3.7,5c0,1.6-0.9,3-2.8,4.1l-19.3,10.7
				C1347.4,527.2,1345.2,527.7,1342.7,527.7z M1276.9,461.1c-1.9,0-3.7,0.4-5,1.1l-19.3,10.7c-0.7,0.4-1.7,1.1-1.7,2.1
				s0.9,2.1,2.6,3L1336,524c3.3,2,8.7,2.1,11.5,0.5l19.3-10.7c0.7-0.4,1.7-1.1,1.7-2.1c0-1.1-0.9-2.1-2.6-3l-82.6-45.9
				C1281.6,461.6,1279.1,461.1,1276.9,461.1z"/>
			<path class="st2" d="M1560.3,510.2c-2.8,0-5.6-0.7-7.8-2l-41.1-22.9c-2.4-1.3-3.7-3.2-3.7-5c0-1.6,0.9-3,2.8-4.1l12.6-7
				c3.7-2,9.9-1.8,13.9,0.5l41.1,22.9c2.4,1.3,3.7,3.2,3.7,5c0,1.6-0.9,3-2.8,4.1l-12.6,7C1564.8,509.8,1562.6,510.2,1560.3,510.2z
				 M1529.3,470.3c-1.9,0-3.7,0.4-5,1.1l-12.6,7c-0.7,0.4-1.7,1.1-1.7,2.1s0.9,2.1,2.6,3l41.1,22.9c3.3,2,8.7,2.1,11.5,0.5l12.6-7
				c0.7-0.4,1.7-1.1,1.7-2.1s-0.9-2.1-2.6-3l-41.1-22.9C1534.1,470.9,1531.5,470.3,1529.3,470.3z"/>
			<path class="st2" d="M1197.7,677.7c-2.6,0-5-0.5-7.1-1.6l-227.1-126c-2-1.1-3.2-2.9-3.2-4.5c0-1.8,1.1-3.4,3.2-4.5l405.3-224.8
				c3.9-2.1,10-2.1,13.9,0l91.7,50.9c2,1.1,3.2,2.9,3.2,4.5c0,1.8-1.1,3.4-3.2,4.5l-81.8,45.4c-3.9,2.1-10,2.1-13.9,0l-41.8-23.2
				c-3.2-1.8-8.4-1.8-11.5,0l-137.4,76.1c-1.3,0.7-2,1.6-2,2.5c0,0.9,0.7,1.8,2,2.5l221,122.6c3.2,1.8,8.4,1.8,11.5,0l231.9-128.7
				c1.3-0.7,2-1.6,2-2.5c0-0.9-0.7-1.8-2-2.5l-115.3-64c-3.2-1.8-8.4-1.8-11.5,0l-133.7,74.2c-1.3,0.7-2,1.6-2,2.5s0.7,1.8,2,2.5
				l58.4,32.5l-1.1,2l-58.4-32.5c-2-1.3-3.2-2.9-3.2-4.5c0-1.8,1.1-3.4,3.2-4.5l133.7-74.2c3.9-2.1,10-2.1,13.9,0l115.3,64
				c2,1.1,3.2,2.9,3.2,4.5c0,1.8-1.1,3.4-3.2,4.5L1421.6,604c-3.9,2.1-10,2.1-13.9,0l-221-122.4c-2-1.1-3.2-2.9-3.2-4.5
				c0-1.8,1.1-3.4,3.2-4.5l137.4-76.1c3.9-2.1,10-2.1,13.9,0l41.8,23.2c3.2,1.8,8.4,1.8,11.5,0l81.8-45.4c1.3-0.7,2-1.6,2-2.5
				c0-0.9-0.7-1.8-2-2.5l-91.7-50.9c-3.2-1.8-8.4-1.8-11.5,0L964.8,543.1c-1.3,0.7-2,1.6-2,2.5s0.7,1.8,2,2.5l227.1,126
				c3.2,1.8,8.4,1.8,11.5,0l56.7-31.5l1.1,2l-56.7,31.5C1202.7,677.1,1200.1,677.7,1197.7,677.7z"/>
			<path class="st2" d="M1230.6,612.8l-1.9-1.1l-137.4-76.3c-2-1.1-3.2-2.9-3.2-4.5c0-1.8,1.1-3.4,3.2-4.5l18.8-10.4
				c3.9-2.1,10-2.1,13.9,0l132.2,73.5c2,1.1,3.2,2.9,3.2,4.5c0,1.8-1.1,3.4-3.2,4.5L1230.6,612.8z M1117,516.8c-2,0-4.3,0.4-5.8,1.3
				l-18.8,10.4c-1.3,0.7-2,1.6-2,2.5c0,0.9,0.7,1.8,2,2.5l138,76.7l24.6-13.6c1.3-0.7,2-1.6,2-2.5s-0.7-1.8-2-2.5l-132.2-73.5
				C1121.2,517.2,1119.2,516.8,1117,516.8z"/>
			<path class="st2" d="M1476.3,729.5c-2.6,0-5-0.5-7.1-1.6l-179.7-99.7l1.1-2l179.7,99.7c3.2,1.8,8.4,1.8,11.5,0l312.5-173.4
				c1.3-0.7,2-1.6,2-2.5c0-0.9-0.7-1.8-2-2.5l-36.6-20.4c-3.2-1.8-8.4-1.8-11.5,0l-49.1,27.2c-1.3,0.7-2,1.6-2,2.5
				c0,0.9,0.7,1.8,2,2.5l17.5,9.7c2,1.3,3.2,2.9,3.2,4.5c0,1.8-1.1,3.4-3.2,4.5l-221.3,122.8c-3.9,2.1-10,2.1-13.9,0l-15.1-8.4
				c-2-1.1-3.2-2.9-3.2-4.5c0-1.8,1.1-3.4,3.2-4.5L1661.5,574c1.3-0.7,2-1.6,2-2.5c0-0.9-0.7-1.8-2-2.5l-39.1-21.6
				c-2-1.1-3.2-2.9-3.2-4.5c0-1.8,1.1-3.4,3.2-4.5l79.4-44.1l1.1,2l-79,44c-1.3,0.7-2,1.6-2,2.5c0,0.9,0.7,1.8,2,2.5l39.1,21.6
				c2,1.1,3.2,2.9,3.2,4.5c0,1.8-1.1,3.4-3.2,4.5l-197.3,109.7c-1.3,0.7-2,1.6-2,2.5c0,0.9,0.7,1.8,2,2.5l15.1,8.4
				c3.2,1.8,8.4,1.8,11.5,0l221.3-122.8c1.3-0.7,2-1.6,2-2.5c0-0.9-0.7-1.8-2-2.5l-17.5-9.7c-2-1.1-3.2-2.9-3.2-4.5s1.1-3.4,3.2-4.5
				l49.1-27.2c3.9-2.1,10-2.1,13.9,0l36.6,20.4c2,1.1,3.2,2.9,3.2,4.5c0,1.8-1.1,3.4-3.2,4.5l-312.5,173.4
				C1481.3,729,1478.9,729.5,1476.3,729.5z"/>
			<path class="st2" d="M1453,667.3c-2.8,0-5.6-0.7-7.8-2l-34.6-19.1c-2.4-1.3-3.7-3.2-3.7-5c0-1.6,0.9-3,2.8-4.1l155.5-86.3
				c3.7-2,9.9-1.8,13.9,0.5l34.6,19.1c2.4,1.3,3.7,3.2,3.7,5c0,1.6-0.9,3-2.8,4.1l-155.5,86.3C1457.5,666.9,1455.3,667.3,1453,667.3
				z M1571.3,551.8c-1.9,0-3.7,0.4-5,1.1l-155.5,86.3c-0.7,0.4-1.7,1.1-1.7,2.1s0.9,2.1,2.6,3l34.6,19.1c3.3,2,8.7,2.1,11.5,0.5
				l155.5-86.3c0.7-0.4,1.7-1.1,1.7-2.1s-0.9-2.1-2.6-3l-34.6-19.1C1576.2,552.4,1573.7,551.8,1571.3,551.8z"/>
			<path class="st2" d="M1380.3,779c-2.6,0-5-0.5-7.1-1.6l-151.6-84.2l1.1-2l151.6,84.2c3.2,1.8,8.4,1.8,11.5,0l61-34
				c1.3-0.7,2-1.6,2-2.5c0-0.9-0.7-1.8-2-2.5l-140.8-78.1c-3.2-1.8-8.4-1.8-11.5,0l-24.2,13.4c-1.3,0.7-2,1.6-2,2.5
				c0,0.9,0.7,1.8,2,2.5l98.6,54.7l-1.1,2l-98.6-54.7c-2-1.1-3.2-2.9-3.2-4.5c0-1.8,1.1-3.4,3.2-4.5l24.2-13.4
				c3.9-2.1,10-2.1,13.9,0l140.8,78.1c2,1.1,3.2,2.9,3.2,4.5s-1.1,3.4-3.2,4.5l-61,34C1385.3,778.5,1382.9,779,1380.3,779z"/>
			<path class="st2" d="M1529.8,449.4c-2.8,0-5.6-0.7-7.8-2l-10.8-6.1c-2.4-1.3-3.7-3.2-3.7-5c0-1.6,0.9-3,2.8-4.1l12.6-7
				c3.7-2,9.9-1.8,13.9,0.5l10.8,6.1c2.4,1.3,3.7,3.2,3.7,5c0,1.6-0.9,3-2.8,4.1l-12.6,7C1534.3,448.9,1532.1,449.4,1529.8,449.4z
				 M1529.1,426.4c-1.9,0-3.7,0.4-5,1.1l-12.6,7c-0.7,0.4-1.7,1.1-1.7,2.1c0,1.1,0.9,2.1,2.6,3l10.8,6.1c3.3,2,8.7,2.1,11.5,0.5
				l12.6-7c0.7-0.4,1.7-1.1,1.7-2.1c0-1.1-0.9-2.1-2.6-3l-10.8-6.1C1533.9,426.9,1531.3,426.4,1529.1,426.4z"/>
			<path class="st2" d="M1490.2,471.4c-2.8,0-5.6-0.7-7.8-2l-10.8-6.1c-2.4-1.3-3.7-3.2-3.7-5c0-1.6,0.9-3,2.8-4.1l12.6-7
				c3.7-2,9.9-1.8,13.9,0.5l10.8,6.1c2.4,1.3,3.7,3.2,3.7,5c0,1.6-0.9,3-2.8,4.1l-12.6,7C1494.7,470.9,1492.5,471.4,1490.2,471.4z
				 M1489.5,448.4c-1.9,0-3.7,0.4-5,1.1l-12.6,7c-0.7,0.4-1.7,1.1-1.7,2.1s0.9,2.1,2.6,3l10.8,6.1c3.3,2,8.7,2.1,11.5,0.5l12.6-7
				c0.7-0.4,1.7-1.1,1.7-2.1c0-1.1-0.9-2.1-2.6-3L1496,450C1494.3,448.9,1491.7,448.4,1489.5,448.4z"/>
			<path class="st2" d="M1450.6,493.4c-2.8,0-5.6-0.7-7.8-2l-10.8-6.1c-2.4-1.3-3.7-3.2-3.7-5c0-1.6,0.9-3,2.8-4.1l12.6-7
				c3.7-2,9.9-1.8,13.9,0.5l10.8,6.1c2.4,1.3,3.7,3.2,3.7,5c0,1.6-0.9,3-2.8,4.1l-12.6,7C1455.1,492.9,1452.8,493.4,1450.6,493.4z
				 M1449.9,470.2c-1.9,0-3.7,0.4-5,1.1l-12.6,7c-0.7,0.4-1.7,1.1-1.7,2.1s0.9,2.1,2.6,3l10.8,6.1c3.3,2,8.7,2.1,11.5,0.5l12.6-7
				c0.7-0.4,1.7-1.1,1.7-2.1s-0.9-2.1-2.6-3l-10.8-6.1C1454.7,470.9,1452.1,470.2,1449.9,470.2z"/>
			<path class="st2" d="M1569.6,471.4c-2.8,0-5.6-0.7-7.8-2l-10.8-6.1c-2.4-1.3-3.7-3.2-3.7-5c0-1.6,0.9-3,2.8-4.1l12.6-7
				c3.7-2,9.9-1.8,13.9,0.5l10.8,6.1c2.4,1.3,3.7,3.2,3.7,5c0,1.6-0.9,3-2.8,4.1l-12.6,7C1574.1,471.1,1571.9,471.4,1569.6,471.4z
				 M1568.9,448.4c-1.9,0-3.7,0.4-5,1.1l-12.6,7c-0.7,0.4-1.7,1.1-1.7,2.1s0.9,2.1,2.6,3l10.8,6.1c3.3,2,8.7,2.1,11.5,0.5l12.6-7
				c0.7-0.4,1.7-1.1,1.7-2.1c0-1.1-0.9-2.1-2.6-3l-10.8-6.1C1573.7,448.9,1571.1,448.4,1568.9,448.4z"/>
			<path class="st2" d="M1490.4,515.4c-2.8,0-5.6-0.7-7.8-2l-10.8-6.1c-2.4-1.3-3.7-3.2-3.7-5c0-1.6,0.9-3,2.8-4.1l12.6-7
				c3.7-2,9.9-1.8,13.9,0.5l10.8,6.1c2.4,1.3,3.7,3.2,3.7,5c0,1.6-0.9,3-2.8,4.1l-12.6,7C1494.9,515,1492.6,515.4,1490.4,515.4z
				 M1489.7,492.3c-1.9,0-3.7,0.4-5,1.1l-12.6,7c-0.7,0.4-1.7,1.1-1.7,2.1s0.9,2.1,2.6,3l10.8,6.1c3.3,2,8.7,2.1,11.5,0.5l12.6-7
				c0.7-0.4,1.7-1.1,1.7-2.1s-0.9-2.1-2.6-3l-10.8-6.1C1494.5,492.9,1491.9,492.3,1489.7,492.3z"/>
		</g>
	</g>
	<g>
		<path class="st3" d="M948.1,588.1c-5.6,0-11.3-1.3-15.6-3.6L776,497.9c-4.5-2.5-6.9-5.7-6.9-9.3c0-3.6,2.4-7,6.9-9.3l239.7-133
			c3.5-2,5.6-4.6,5.6-7.3c0-2.7-2-5.2-5.6-7.3l-62.3-34.5l1.3-2.1l62.3,34.5c4.5,2.5,6.9,5.7,6.9,9.3s-2.4,7-6.9,9.3L777.3,481.2
			c-3.5,2-5.6,4.6-5.6,7.3c0,2.7,2,5.2,5.6,7.3l156.4,86.7c8,4.5,20.8,4.5,28.6,0l61.4-34.1l1.3,2.1l-61.4,34.1
			C959.4,586.9,953.8,588.1,948.1,588.1z"/>
		<path class="st3" d="M1297.5,786.3l-1.3-2.1l208.5-115.6c4.3-2.3,6.7-5.5,6.7-8.8s-2.4-6.3-6.7-8.8l-87-48.3l1.3-2.1l87,48.3
			c5.2,2.9,8,6.6,8,10.9s-2.8,8-8,10.9L1297.5,786.3z"/>
		<path class="st3" d="M1627.5,597.6c-6.3,0-12.5-1.3-17.3-3.9l-88-48.8l1.3-2.1l88,48.8c8.7,4.8,23.1,4.8,32,0l109.7-60.9
			c4.1-2.3,6.3-5.2,6.3-8.2s-2.2-5.9-6.3-8.2l-383.9-212.7c-4.8-2.7-7.4-6.3-7.4-10.4c0-3.9,2.6-7.5,7.4-10.2l61.9-34.3l1.3,2.1
			l-61.9,34.3c-4.1,2.1-6.3,5.2-6.3,8.2s2.2,5.9,6.3,8.2l383.9,213c4.8,2.7,7.4,6.3,7.4,10.4c0,3.9-2.6,7.5-7.4,10.4l-109.7,60.9
			C1639.9,596.3,1633.6,597.6,1627.5,597.6z"/>
		<path class="st3" d="M1267.4,679.4c-6.9,0-13.4-1.3-18.2-4.1L974.3,522.9c-4.8-2.7-7.6-6.6-7.6-10.7c0-5,3.9-10,10.6-13.8
			l268.9-149.2c12.3-6.8,31.1-7.5,41.7-1.6L1562.8,500c4.8,2.7,7.6,6.6,7.6,10.7c0,5-3.9,10-10.6,13.8l-268.9,149.4
			C1284.2,677.7,1275.6,679.4,1267.4,679.4z M1250.5,673.4c10,5.5,27.5,4.8,39.2-1.6l268.9-149.2c6-3.2,9.3-7.5,9.3-11.6
			c0-3.4-2.2-6.4-6.3-8.8l-274.9-152.4c-10-5.5-27.5-4.8-39.2,1.6L978.4,500.6c-6,3.2-9.3,7.5-9.3,11.6c0,3.4,2.2,6.4,6.3,8.8
			L1250.5,673.4z"/>
	</g>
	
		<linearGradient id="SVGID_1_" gradientUnits="userSpaceOnUse" x1="574.8006" y1="1355.0627" x2="848.201" y2="1355.0627" gradientTransform="matrix(1 0 0 -1 0 1854.4513)">
		<stop  offset="0.3152" style="stop-color:#7A65F7"/>
		<stop  offset="0.815" style="stop-color:#7ACCE4"/>
	</linearGradient>
	<path class="st4" d="M773.1,576c-3.3,0-6.9-0.9-9.9-2.5l-186-102c-1.5-0.9-2.4-2.3-2.4-3.9s0.7-3,2.2-3.9l70.3-40.7l0.9,1.6
		l-70.1,40.7c-0.9,0.5-1.3,1.4-1.3,2.3c0,0.9,0.6,1.8,1.3,2.3l186,102c5.6,3,12.5,3,17.9,0l65.3-36.5l0.9,1.6l-65.1,36.5
		C779.9,575.1,776.4,576,773.1,576z"/>
	<g class="st1">
		<path class="st3" d="M948.1,593.1c-6.5,0-13-1.4-18.2-4.3l-156.4-86.7c-6-3.4-9.5-8.2-9.5-13.6c0-5.4,3.3-10.4,9.5-13.6
			l239.7-133.1c2.4-1.3,3-2.5,3-3s-0.6-1.6-3-3l-62.3-34.5c-3-1.8-4.1-5.5-2.4-8.4c1.9-2.9,5.8-3.9,8.7-2.3l62.3,34.5
			c6,3.4,9.5,8.2,9.5,13.6s-3.3,10.4-9.5,13.6l-239.7,133c-2.4,1.3-3,2.5-3,3s0.6,1.6,3,3l156.4,86.7c6.3,3.4,17.3,3.4,23.6,0
			l61.4-34.1c3.2-1.8,7.1-0.7,8.7,2.3c1.9,2.9,0.7,6.8-2.4,8.4l-61.4,34.1C961.1,591.7,954.6,593.1,948.1,593.1z"/>
		<path class="st3" d="M1296.8,791.5c-2.2,0-4.3-1.1-5.6-3c-1.9-2.9-0.7-6.8,2.4-8.4l208.5-115.6c2.6-1.4,4.1-3,4.1-4.5
			c0-1.3-1.5-3-4.1-4.5l-87-48.3c-3-1.8-4.1-5.5-2.4-8.4c1.9-3,5.8-3.9,8.7-2.3l87,48.3c6.7,3.8,10.4,9.3,10.4,15.2
			c0,5.9-3.9,11.4-10.4,15l-208.3,115.6C1299,791.1,1297.9,791.5,1296.8,791.5z"/>
		<path class="st3" d="M1627.5,602.6c-7.1,0-14.3-1.6-19.9-4.6l-88-48.8c-3-1.8-4.1-5.5-2.4-8.4c1.9-3,5.8-3.9,8.7-2.3l88,48.8
			c7.1,3.9,19.7,3.9,26.8,0l109.7-60.9c2.8-1.4,3.7-3,3.7-3.9s-0.9-2.3-3.7-3.9l-383.7-212.7c-6.3-3.6-10-8.9-10-14.5
			c0-5.7,3.7-11.1,10-14.5l61.9-34.3c3-1.8,7.1-0.7,8.7,2.3c1.9,2.9,0.7,6.8-2.4,8.4l-61.9,34.3c-2.8,1.4-3.7,3-3.7,3.9
			s0.9,2.3,3.7,3.9l384.1,212.7c6.3,3.6,10,8.9,10,14.5c0,5.7-3.7,11.1-10,14.5L1647.4,598C1641.8,601,1634.6,602.6,1627.5,602.6z"
			/>
		<path class="st3" d="M1267.4,684.5c-7.6,0-15.1-1.6-20.8-4.6L971.7,527.4c-6.5-3.6-10.2-8.9-10.2-15c0-6.8,4.8-13.4,13-18.1
			l269.1-149.2c13.9-7.7,34.6-8.4,46.9-1.6l274.9,152.4c6.5,3.6,10.2,8.9,10.2,15c0,6.8-4.8,13.4-13,18.1l-269.1,149.2
			C1286,682.3,1276.5,684.5,1267.4,684.5z M1253.1,669.1c8.4,4.6,24,3.9,34-1.6l269.1-149.2c5-2.7,6.7-5.7,6.7-7.3
			c0-2-2.4-3.6-3.7-4.5L1284.3,354c-8.4-4.6-24-3.9-34,1.6L981.2,504.8c-5,2.7-6.7,5.7-6.7,7.3c0,2,2.4,3.6,3.7,4.5L1253.1,669.1z"
			/>
	</g>
	<g>
		<g>
			<g>
				<path class="st5" d="M994.8,566c-1.7-2.7-0.7-6.1,2-7.5c2.8-1.6,6.3-0.5,7.8,2c1.7,2.7,0.7,6.1-2,7.5
					C999.8,569.5,996.2,568.6,994.8,566z"/>
			</g>
			<g>
				<path class="st5" d="M965,582.4c-1.7-2.7-0.7-6.1,2-7.5c2.8-1.6,6.3-0.5,7.8,2c1.7,2.7,0.7,6.1-2,7.5
					C970,586,966.5,585.1,965,582.4z"/>
			</g>
			<g>
				<path class="st5" d="M932.3,582.9c0.7-1.4,2.2-2.1,3.3-2.7c1.3-0.5,2.4-0.7,3.7-0.2c2.2,0.7,4.1,3.4,3.7,6.4
					c-0.4,3-3.7,5.2-7.4,3.9c-1.9-0.5-3.2-2-3.7-3.4C931.2,585.8,931.5,584.4,932.3,582.9z"/>
			</g>
			<g>
				<path class="st5" d="M902.5,566.5c1.7-2.7,5-3.6,7.8-2s3.7,4.8,2,7.5c-1.7,2.7-5,3.6-7.8,2C901.8,572.4,900.8,569.2,902.5,566.5
					z"/>
			</g>
			<g>
				<path class="st5" d="M872.8,549.9c1.7-2.7,5-3.6,7.8-2c2.8,1.6,3.7,4.8,2,7.5c-1.7,2.7-5,3.6-7.8,2
					C872,556,871.1,552.6,872.8,549.9z"/>
			</g>
			<g>
				<path class="st5" d="M843,533.4c1.7-2.7,5-3.6,7.8-2s3.7,4.8,2,7.5c-1.7,2.7-5,3.6-7.8,2C842.2,539.5,841.3,536.1,843,533.4z"/>
			</g>
			<g>
				<path class="st5" d="M813.2,517c1.7-2.7,5-3.6,7.8-2s3.7,4.8,2,7.5c-1.7,2.7-5,3.6-7.8,2C812.5,522.9,811.6,519.5,813.2,517z"/>
			</g>
			<g>
				<path class="st5" d="M783.5,500.4c1.7-2.7,5-3.6,7.8-2s3.7,4.8,2,7.5c-1.7,2.7-5,3.6-7.8,2C782.7,506.4,781.8,503.1,783.5,500.4
					z"/>
			</g>
			<g>
				<path class="st5" d="M780.5,478c0.7,1.3,0.9,2.9,0.6,4.1c-0.2,0.7-0.6,1.3-0.9,2c-0.2,0.4-0.6,0.5-0.7,0.7
					c-0.2,0.2-0.4,0.4-0.6,0.5c-0.9,0.5-1.9,0.5-3.2,0.5c-1.3-0.2-2.8-0.4-4.1-1.3c-1.3-0.7-2.2-2.1-2.2-3.8c0-1.8,1.1-3.6,3-4.6
					c0.4-0.4,0.9-0.5,1.3-0.7c0.4-0.2,0.7-0.2,1.1-0.2c0.7,0,1.5,0,2.2,0.2C778.5,475.7,779.8,476.6,780.5,478z"/>
			</g>
			<g>
				<path class="st5" d="M810.3,461.4c1.7,2.7,0.7,6.1-2,7.5c-2.8,1.6-6.3,0.5-7.8-2c-1.7-2.7-0.7-6.1,2-7.5
					C805.2,457.8,808.8,458.9,810.3,461.4z"/>
			</g>
			<g>
				<path class="st5" d="M840.2,445c1.7,2.7,0.7,6.1-2,7.5c-2.8,1.6-6.3,0.5-7.8-2c-1.5-2.5-0.7-6.1,2-7.5
					C835,441.4,838.5,442.3,840.2,445z"/>
			</g>
			<g>
				<path class="st5" d="M870,428.5c1.7,2.7,0.7,6.1-2,7.5c-2.8,1.6-6.3,0.5-7.8-2c-1.7-2.7-0.7-6.1,2-7.5
					C864.8,425,868.3,425.8,870,428.5z"/>
			</g>
			<g>
				<path class="st5" d="M899.7,411.9c1.7,2.7,0.7,6.1-2,7.5c-2.8,1.6-6.3,0.5-7.8-2c-1.7-2.7-0.7-6.1,2-7.5
					C894.5,408.3,898,409.2,899.7,411.9z"/>
			</g>
			<g>
				<path class="st5" d="M929.5,395.5c1.7,2.7,0.7,6.1-2,7.5c-2.8,1.6-6.3,0.5-7.8-2c-1.7-2.7-0.7-6.1,2-7.5
					C924.3,391.9,927.8,392.8,929.5,395.5z"/>
			</g>
			<g>
				<path class="st5" d="M959.2,378.8c1.7,2.7,0.7,6.1-2,7.5c-2.8,1.6-6.3,0.5-7.8-2c-1.7-2.7-0.7-6.1,2-7.5
					C954,375.3,957.6,376.3,959.2,378.8z"/>
			</g>
			<g>
				<path class="st5" d="M989,362.4c1.7,2.7,0.7,6.1-2,7.5c-2.8,1.6-6.3,0.5-7.8-2c-1.7-2.7-0.7-6.1,2-7.5
					C983.8,358.8,987.3,359.7,989,362.4z"/>
			</g>
			<g>
				<path class="st5" d="M1018.6,345.8c0.9,1.3,1.3,2.7,0.7,4.3c-0.2,0.4-0.4,0.7-0.6,1.1c-0.2,0.4-0.4,0.7-0.6,0.9
					c-0.4,0.5-0.9,1.1-1.7,1.4c-2.8,1.6-6.3,0.5-7.8-2c-1.7-2.7-0.7-6.1,2-7.5C1013.7,342.2,1016.3,343.5,1018.6,345.8z"/>
			</g>
			<g>
				<path class="st5" d="M1003.9,323.4c1.7-2.7,5-3.6,7.8-2s3.7,4.8,2,7.5c-1.7,2.7-5,3.6-7.8,2
					C1003.1,329.5,1002.2,326.1,1003.9,323.4z"/>
			</g>
			<g>
				<path class="st5" d="M974.1,307c1.7-2.7,5-3.6,7.8-2c2.8,1.6,3.7,4.8,2,7.5s-5,3.6-7.8,2C973.4,313.1,972.4,309.7,974.1,307z"/>
			</g>
		</g>
		<g>
			<g>
				<path class="st5" d="M1553.1,560.6c-1.7,2.7-5.2,3.6-8,2s-3.7-5-2.2-7.7c1.7-2.7,5.2-3.6,8-2S1554.6,557.9,1553.1,560.6z"/>
			</g>
			<g>
				<path class="st5" d="M1583.4,577.4c-1.7,2.7-5.2,3.6-8,2c-2.8-1.6-3.7-5-2.2-7.7c1.7-2.7,5.2-3.6,8-2S1584.9,574.7,1583.4,577.4
					z"/>
			</g>
			<g>
				<path class="st5" d="M1613.7,594c-0.6,1.4-1.9,2.5-3.3,2.9c-0.7,0.2-1.7,0.2-2.4,0c-0.7-0.2-1.5-0.4-2.2-0.7
					c-2.8-1.6-3.7-5-2.2-7.7c1.7-2.7,5.2-3.6,8-2c0.7,0.4,1.3,0.9,1.7,1.4c0.4,0.5,0.6,1.1,0.7,1.8
					C1614.3,591.2,1614.3,592.6,1613.7,594z"/>
			</g>
			<g>
				<path class="st5" d="M1647.2,591c0.7,1.3,0.9,2.9,0.6,4.3c-0.2,0.7-0.6,1.4-0.9,2c-0.6,0.5-1.3,1.3-2.2,1.6
					c-3.7,1.6-7.3-0.2-8-3.2c-0.7-3,0.9-5.9,3.2-6.8c0.6-0.2,1.1-0.4,1.9-0.4c0.7-0.2,1.5,0,2.2,0.2
					C1645.2,588.7,1646.5,589.6,1647.2,591z"/>
			</g>
			<g>
				<path class="st5" d="M1677.5,574.2c1.7,2.7,0.6,6.1-2.2,7.7c-2.8,1.6-6.3,0.7-8-2c-1.7-2.7-0.6-6.1,2.2-7.7
					C1672.3,570.6,1675.8,571.5,1677.5,574.2z"/>
			</g>
			<g>
				<path class="st5" d="M1707.6,557.4c1.7,2.7,0.6,6.1-2.2,7.7s-6.3,0.7-8-2c-1.7-2.7-0.6-6.1,2.2-7.7
					C1702.6,553.8,1706.2,554.7,1707.6,557.4z"/>
			</g>
			<g>
				<path class="st5" d="M1738,540.6c1.7,2.7,0.6,6.1-2.2,7.7s-6.3,0.7-8-2c-1.7-2.7-0.6-6.1,2.2-7.7
					C1732.8,537,1736.5,537.9,1738,540.6z"/>
			</g>
			<g>
				<path class="st5" d="M1759.7,518.6c1.5-0.7,3-0.7,4.6,0.4c1.5,1.1,2.6,3.6,2,6.3c-0.6,2.7-2.4,4.3-4.1,4.8
					c-1.7,0.5-3.2,0-4.5-1.1c-1.1-1.1-1.9-2.5-2.2-3.6c-0.6-1.1-0.7-2-0.7-2.3s0.7-0.7,1.5-1.6
					C1757.3,520.6,1758.2,519.3,1759.7,518.6z"/>
			</g>
			<g>
				<path class="st5" d="M1730.5,500.4c1.7-2.7,5.2-3.6,8-2c2.8,1.6,3.7,5,2.2,7.7c-1.7,2.7-5.2,3.6-8,2
					C1730,506.4,1729,503.1,1730.5,500.4z"/>
			</g>
			<g>
				<path class="st5" d="M1700.4,483.6c1.7-2.7,5.2-3.6,8-2s3.7,5,2.2,7.7c-1.7,2.7-5.2,3.6-8,2
					C1699.6,489.6,1698.7,486.3,1700.4,483.6z"/>
			</g>
			<g>
				<path class="st5" d="M1670.1,466.8c1.7-2.7,5.2-3.6,8-2c2.8,1.6,3.7,5,2.2,7.7c-1.7,2.7-5.2,3.6-8,2
					C1669.5,472.8,1668.4,469.5,1670.1,466.8z"/>
			</g>
			<g>
				<path class="st5" d="M1639.8,450c1.7-2.7,5.2-3.6,8-2c2.8,1.6,3.7,5,2.2,7.7c-1.7,2.7-5.2,3.6-8,2S1638.3,452.7,1639.8,450z"/>
			</g>
			<g>
				<path class="st5" d="M1609.4,433.2c1.7-2.7,5.2-3.6,8-2s3.7,5,2.2,7.7c-1.7,2.7-5.2,3.6-8,2
					C1608.9,439.2,1608,435.9,1609.4,433.2z"/>
			</g>
			<g>
				<path class="st5" d="M1579.3,416.4c1.7-2.7,5.2-3.6,8-2c2.8,1.6,3.7,5,2.2,7.7c-1.7,2.7-5.2,3.6-8,2
					C1578.6,422.4,1577.6,419.1,1579.3,416.4z"/>
			</g>
			<g>
				<path class="st5" d="M1549,399.8c1.7-2.7,5.2-3.6,8-2s3.7,5,2.2,7.7c-1.7,2.7-5.2,3.6-8,2C1548.4,405.7,1547.3,402.3,1549,399.8
					z"/>
			</g>
			<g>
				<path class="st5" d="M1518.7,383c1.7-2.7,5.2-3.6,8-2s3.7,5,2.2,7.7c-1.7,2.7-5.2,3.6-8,2C1518.1,388.9,1517.2,385.5,1518.7,383
					z"/>
			</g>
			<g>
				<path class="st5" d="M1488.4,366.2c1.7-2.7,5.2-3.6,8-2s3.7,5,2.2,7.7c-1.7,2.7-5.2,3.6-8,2
					C1487.8,372.1,1486.9,368.7,1488.4,366.2z"/>
			</g>
			<g>
				<path class="st5" d="M1458.2,349.4c1.7-2.7,5.2-3.6,8-2s3.7,5,2.2,7.7c-1.7,2.7-5.2,3.6-8,2
					C1457.5,355.4,1456.6,351.9,1458.2,349.4z"/>
			</g>
			<g>
				<path class="st5" d="M1427.9,332.6c1.7-2.7,5.2-3.6,8-2c2.8,1.6,3.7,5,2.2,7.7c-1.7,2.7-5.2,3.6-8,2
					C1427.4,338.6,1426.2,335.2,1427.9,332.6z"/>
			</g>
			<g>
				<path class="st5" d="M1397.6,315.8c1.7-2.7,5.2-3.6,8-2s3.7,5,2.2,7.7c-1.7,2.7-5.2,3.6-8,2S1396.1,318.4,1397.6,315.8z"/>
			</g>
			<g>
				<path class="st5" d="M1367.5,298.8c1.1-1.3,2.4-2,3.7-2.3c1.1-0.5,2.8-0.4,4.1,0.5c2.8,1.6,3.7,5,2.2,7.7c-1.7,2.7-5.2,3.6-8,2
					c-1.3-0.7-2.2-2-3-3.6C1366.2,301.5,1366.5,299.8,1367.5,298.8z"/>
			</g>
			<g>
				<path class="st5" d="M1381.4,275.5c1.7,2.7,0.6,6.1-2.2,7.7c-2.8,1.6-6.3,0.7-8-2c-1.7-2.7-0.6-6.1,2.2-7.7
					C1376.4,272,1379.9,272.9,1381.4,275.5z"/>
			</g>
			<g>
				<path class="st5" d="M1411.7,258.7c1.7,2.7,0.6,6.1-2.2,7.7c-2.8,1.6-6.3,0.7-8-2c-1.7-2.7-0.6-6.1,2.2-7.7
					C1406.5,255.2,1410.1,256.1,1411.7,258.7z"/>
			</g>
		</g>
		<g>
			<g>
				<path class="st5" d="M1448.2,618.3c-1.7,2.7-5,3.6-7.8,2s-3.7-4.8-2-7.5s5-3.6,7.8-2C1448.8,612.2,1449.7,615.6,1448.2,618.3z"
					/>
			</g>
			<g>
				<path class="st5" d="M1478,634.9c-1.7,2.7-5,3.6-7.8,2c-2.8-1.6-3.7-4.8-2-7.5c1.7-2.7,5-3.6,7.8-2
					C1478.7,628.9,1479.6,632.3,1478,634.9z"/>
			</g>
			<g>
				<path class="st5" d="M1507.7,651.6c-0.9,1.3-2.2,2-3.5,2.3c-1.1,0.5-2.8,0.4-4.1-0.5c-2.8-1.6-3.7-4.8-2-7.5
					c1.7-2.7,5-3.6,7.8-2c1.3,0.7,2.2,2,2.8,3.6C1509,648.9,1508.6,650.5,1507.7,651.6z"/>
			</g>
			<g>
				<path class="st5" d="M1495.8,675c-1.7-2.7-0.7-6.1,2-7.5c2.8-1.6,6.3-0.5,7.8,2c1.7,2.7,0.7,6.1-2,7.5
					C1500.8,678.6,1497.3,677.7,1495.8,675z"/>
			</g>
			<g>
				<path class="st5" d="M1465.9,691.4c-1.7-2.7-0.7-6.1,2-7.5c2.8-1.6,6.3-0.5,7.8,2c1.7,2.7,0.7,6.1-2,7.5
					C1471.1,695,1467.5,694.1,1465.9,691.4z"/>
			</g>
			<g>
				<path class="st5" d="M1436.1,708c-1.7-2.7-0.7-6.1,2-7.5c2.8-1.6,6.3-0.5,7.8,2c1.7,2.7,0.7,6.1-2,7.5
					C1441.1,711.6,1437.6,710.7,1436.1,708z"/>
			</g>
			<g>
				<path class="st5" d="M1406.2,724.7c-1.7-2.7-0.7-6.1,2-7.5c2.8-1.6,6.3-0.5,7.8,2c1.7,2.7,0.7,6.1-2,7.5
					C1411.4,728.2,1407.8,727.2,1406.2,724.7z"/>
			</g>
			<g>
				<path class="st5" d="M1376.4,741.1c-1.7-2.7-0.7-6.1,2-7.5c2.8-1.6,6.3-0.5,7.8,2c1.7,2.7,0.7,6.1-2,7.5
					C1381.6,744.7,1378.1,743.8,1376.4,741.1z"/>
			</g>
			<g>
				<path class="st5" d="M1346.6,757.7c-1.7-2.7-0.7-6.1,2-7.5c2.8-1.6,6.3-0.5,7.8,2c1.7,2.7,0.7,6.1-2,7.5
					C1351.7,761.3,1348.1,760.4,1346.6,757.7z"/>
			</g>
			<g>
				<path class="st5" d="M1316.7,774.2c-1.7-2.7-0.7-6.1,2-7.5c2.8-1.6,6.3-0.5,7.8,2c1.7,2.7,0.7,6.1-2,7.5
					C1321.9,777.7,1318.4,776.9,1316.7,774.2z"/>
			</g>
		</g>
	</g>
	<g>
		<g>
			<g>
				<path class="st6" d="M1252.9,861.2l-83.1-46.1c-6-3.2-5.2-8.9,1.7-12.9l79.8-44.3c6.9-3.8,17.1-4.3,23.1-0.9l83.1,46.1
					c6,3.2,5.2,8.9-1.7,12.9l-79.8,44.3C1269.1,864.1,1258.9,864.4,1252.9,861.2z"/>
				
					<linearGradient id="SVGID_2_" gradientUnits="userSpaceOnUse" x1="1147.2676" y1="1045.1744" x2="1379.751" y2="1045.1744" gradientTransform="matrix(1 0 0 -1 0 1854.4513)">
					<stop  offset="0" style="stop-color:#7ACCE4"/>
					<stop  offset="0.7052" style="stop-color:#7A65F7"/>
				</linearGradient>
				<path class="st7" d="M1262.8,874.1c-4.6,0-8.9-0.9-12.3-2.7l-98-54.3c-3.3-1.8-5.2-4.5-5.2-7.3c0-3.4,2.6-6.8,7.1-9.3l94.1-52.2
					c8.4-4.6,21-5,28.1-1.1l98,54.3c3.3,1.8,5.2,4.5,5.2,7.3c0,3.4-2.6,6.8-7.1,9.3l-94.1,52.2
					C1274.1,872.6,1268.3,874.1,1262.8,874.1z M1264.4,746.1c-5.2,0-10.6,1.3-14.9,3.6l-94.1,52.2c-3.9,2.1-6.1,5-6.1,7.7
					c0,2.1,1.5,4.3,4.3,5.7l98,54.3c6.7,3.8,18.4,3.2,26.2-1.1l94.1-52.2c3.9-2.1,6.1-5,6.1-7.7c0-2.1-1.5-4.3-4.3-5.7l-98-54.3
					C1272.6,746.8,1268.7,746.1,1264.4,746.1z"/>
				
					<linearGradient id="SVGID_3_" gradientUnits="userSpaceOnUse" x1="1147.2107" y1="1065.6266" x2="1385.7107" y2="1065.6266" gradientTransform="matrix(1 0 0 -1 0 1854.4513)">
					<stop  offset="0.3152" style="stop-color:#7A65F7"/>
					<stop  offset="0.815" style="stop-color:#7ACCE4"/>
				</linearGradient>
				<path class="st8" d="M1361.5,762.4h-41.3l-45.9-25.6c-6-3.2-16.2-2.9-23.1,0.9l-44.3,24.5h-41.3v26.6l0,0
					c-0.2,2.1,1.1,4.3,3.9,5.9l83.1,46.1c6,3.2,16.2,2.9,23.1-0.9l79.8-44.3c3.5-2,5.4-4.5,5.6-6.8l0,0v-26.5H1361.5z"/>
				<path class="st9" d="M1355.8,794l-79.8,44.3c-6.9,3.8-17.1,4.3-23.1,0.9l-83.1-46.1c-2.8-1.6-4.1-3.8-3.9-5.9l0,0v1.8l0,0
					c-0.2,2.1,1.1,4.3,3.9,5.9l83.1,46.1c6,3.2,16.2,2.9,23.1-0.9l79.8-44.3c3.5-2,5.4-4.5,5.6-6.8l0,0v-1.8l0,0
					C1361.3,789.5,1359.3,792,1355.8,794z"/>
				<path class="st9" d="M1168.3,790.8L1168.3,790.8v-26.6h41.3l44.3-24.5c6.9-3.8,17.1-4.3,23.1-0.9l45.9,25.6h38.7v-1.8h-41.3
					l-45.9-25.7c-6-3.2-16.2-2.9-23.1,0.9l-44.3,24.5h-41.3v26.6l0,0c-0.2,2.1,1.1,4.3,3.9,5.9l0.6,0.2
					C1168.8,793.8,1168.3,792.2,1168.3,790.8z"/>
				<path class="st3" d="M1359.1,764.3v26.5l0,0c-0.2,1.4-0.7,2.7-2,4.1c2.8-1.8,4.1-3.9,4.3-6.1l0,0v-26.3
					C1360.6,763.1,1359.9,763.6,1359.1,764.3z"/>
				
					<linearGradient id="SVGID_4_" gradientUnits="userSpaceOnUse" x1="2896.6392" y1="-1335.1316" x2="3009.1309" y2="-1237.7109" gradientTransform="matrix(0.866 0.5 1 -0.5774 -9.216 -1456.9736)">
					<stop  offset="0" style="stop-color:#7ACCE4"/>
					<stop  offset="0.7052" style="stop-color:#7A65F7"/>
				</linearGradient>
				<path class="st10" d="M1252.9,814.4l-83.1-46.1c-6-3.2-5.2-8.9,1.7-12.9l79.8-44.3c6.9-3.8,17.1-4.3,23.1-0.9l83.1,46.1
					c6,3.2,5.2,8.9-1.7,12.9l-79.8,44.3C1269.1,817.2,1258.9,817.6,1252.9,814.4z"/>
				<path class="st3" d="M1357.4,756.3l-83.1-46.1c-3-1.8-7.3-2.3-11.7-2.1c3.2,0.2,6.1,0.9,8.4,2.1l83.1,46.1
					c6,3.2,5.2,8.9-1.7,12.9l-79.8,44.3c-3.3,1.8-7.4,2.9-11.3,3c5,0.4,10.4-0.7,14.7-3l79.8-44.3
					C1362.6,765.4,1363.4,759.7,1357.4,756.3z"/>
				<path class="st11" d="M1255.7,801.2l-61.9-34.3c-4.5-2.5-3.9-6.8,1.3-9.5l59.5-33.1c5-2.9,12.8-3,17.1-0.7l61.9,34.3
					c4.5,2.5,3.9,6.8-1.3,9.5l-59.5,33.1C1267.8,803.3,1260,803.5,1255.7,801.2z"/>
				<path class="st12" d="M1257.7,790.4l-44.8-25c-3.2-1.8-2.8-4.8,0.9-7l43.1-23.9c3.7-2,9.3-2.3,12.5-0.5l44.8,24.8
					c3.2,1.8,2.8,4.8-0.9,7l-43.1,23.9C1266.7,791.9,1261.1,792.2,1257.7,790.4z"/>
				<path class="st9" d="M1256.6,814.4l-83.1-46.1c-6-3.2-5.2-8.9,1.7-12.9l79.8-44.3c3.2-1.8,7.3-2.9,11.2-3
					c-5-0.4-10.8,0.7-15.1,3l-79.8,44.3c-6.9,3.8-7.6,9.5-1.7,12.9l83.1,46.1c3.2,1.8,7.4,2.5,11.9,2.1
					C1261.6,816.3,1258.9,815.6,1256.6,814.4z"/>
				<g>
					<g>
						<defs>
							<path id="SVGID_5_" d="M1257.7,790.4l-44.8-25c-3.2-1.8-2.8-4.8,0.9-7l43.1-23.9c3.7-2,9.3-2.3,12.5-0.5l44.8,24.8
								c3.2,1.8,2.8,4.8-0.9,7l-43.1,23.9C1266.7,791.9,1261.1,792.2,1257.7,790.4z"/>
						</defs>
						<clipPath id="SVGID_6_">
							<use xlink:href="#SVGID_5_"  style="overflow:visible;"/>
						</clipPath>
						<path class="st13" d="M1213.9,762l43.1-23.9c3.7-2,9.3-2.3,12.5-0.5l44.8,24.8c0.7,0.4,1.3,0.9,1.5,1.4
							c1.1-1.6,0.6-3.6-1.5-4.6l-44.8-24.8c-3.2-1.8-8.7-1.6-12.5,0.5l-43.1,23.9c-2.8,1.6-3.7,3.8-2.4,5.5
							C1211.8,763.4,1212.7,762.6,1213.9,762z"/>
					</g>
					<g>
						<defs>
							<path id="SVGID_7_" d="M1257.7,790.4l-44.8-25c-3.2-1.8-2.8-4.8,0.9-7l43.1-23.9c3.7-2,9.3-2.3,12.5-0.5l44.8,24.8
								c3.2,1.8,2.8,4.8-0.9,7l-43.1,23.9C1266.7,791.9,1261.1,792.2,1257.7,790.4z"/>
						</defs>
						<clipPath id="SVGID_8_">
							<use xlink:href="#SVGID_7_"  style="overflow:visible;"/>
						</clipPath>
						<path class="st14" d="M1213.9,765.9L1257,742c3.7-2,9.3-2.3,12.5-0.5l44.8,24.8c0.6,0.4,0.9,0.7,1.3,1.1
							c1.5-1.8,1.1-3.8-1.3-5.2l-44.8-24.8c-3.2-1.8-8.7-1.6-12.5,0.5l-43.1,23.9c-3,1.6-3.7,4.1-2.2,5.9
							C1212.2,767.2,1212.9,766.5,1213.9,765.9z"/>
					</g>
					<g>
						<defs>
							<path id="SVGID_9_" d="M1257.7,790.4l-44.8-25c-3.2-1.8-2.8-4.8,0.9-7l43.1-23.9c3.7-2,9.3-2.3,12.5-0.5l44.8,24.8
								c3.2,1.8,2.8,4.8-0.9,7l-43.1,23.9C1266.7,791.9,1261.1,792.2,1257.7,790.4z"/>
						</defs>
						<clipPath id="SVGID_10_">
							<use xlink:href="#SVGID_9_"  style="overflow:visible;"/>
						</clipPath>
						<path class="st15" d="M1212,772.4c0.6-0.5,1.1-0.9,1.9-1.3l43.1-23.9c3.7-2,9.3-2.3,12.5-0.5l44.8,24.8
							c0.4,0.2,0.6,0.4,0.9,0.5c1.9-2,1.7-4.1-0.9-5.5l-44.8-24.8c-3.2-1.8-8.7-1.6-12.5,0.5l-43.1,23.9
							C1210.5,767.9,1209.9,770.6,1212,772.4z"/>
					</g>
				</g>
			</g>
		</g>
	</g>
	<g>
		<g>
			<g>
				<path class="st6" d="M886.9,310.8l-83.3-46.1c-6-3.2-5.2-8.9,1.7-12.9l79.8-44.3c6.9-3.8,17.1-4.3,23.1-0.9l83.1,46.1
					c6,3.2,5.2,8.9-1.7,12.9l-79.8,44.3C903.1,313.6,892.7,314,886.9,310.8z"/>
				
					<linearGradient id="SVGID_11_" gradientUnits="userSpaceOnUse" x1="887.3842" y1="1659.4088" x2="907.5385" y2="1532.1602" gradientTransform="matrix(1 0 0 -1 0 1854.4513)">
					<stop  offset="0.3152" style="stop-color:#7A65F7"/>
					<stop  offset="0.815" style="stop-color:#7ACCE4"/>
				</linearGradient>
				<path class="st16" d="M896.7,323.6c-4.6,0-8.9-0.9-12.3-2.7l0,0l-98-54.3c-3.3-1.8-5.2-4.5-5.2-7.3c0-3.4,2.6-6.8,7.1-9.3
					l94.1-52.2c8.4-4.6,21-5,28.1-1.1l98,54.3c3.3,1.8,5.2,4.5,5.2,7.3c0,3.4-2.6,6.8-7.1,9.3l-94.1,52.2
					C908.1,322.2,902.1,323.6,896.7,323.6z M885.4,319.1c6.7,3.8,18.4,3.2,26.2-1.1l94.1-52.2c3.9-2.1,6.1-5,6.1-7.7
					c0-2.1-1.5-4.3-4.3-5.7l-98-54.3c-6.7-3.8-18.4-3.2-26.2,1.1l-94.1,52.2c-3.9,2.1-6.1,5-6.1,7.7c0,2.1,1.5,4.3,4.3,5.7
					L885.4,319.1L885.4,319.1z"/>
				
					<linearGradient id="SVGID_12_" gradientUnits="userSpaceOnUse" x1="781.1198" y1="1616.0825" x2="1019.6198" y2="1616.0825" gradientTransform="matrix(1 0 0 -1 0 1854.4513)">
					<stop  offset="0.3152" style="stop-color:#7A65F7"/>
					<stop  offset="0.815" style="stop-color:#7ACCE4"/>
				</linearGradient>
				<path class="st17" d="M995.3,211.9h-41.1l-45.9-25.6c-6-3.2-16.2-2.9-23.1,0.9l-44.3,24.5h-41.3v26.6l0,0
					c-0.2,2.1,1.1,4.3,3.9,5.9l83.1,46.1c6,3.2,16.2,2.9,23.1-0.9l79.8-44.3c3.5-2,5.4-4.5,5.6-6.8l0,0v-26.5H995.3z"/>
				<path class="st9" d="M989.7,243.6l-79.8,44.3c-6.9,3.8-17.1,4.3-23.1,0.9l-83.3-46.3c-2.8-1.6-4.1-3.8-3.9-5.9l0,0v1.8l0,0
					c-0.2,2.1,1.1,4.3,3.9,5.9l83.1,46.1c6,3.2,16.2,2.9,23.1-0.9l79.8-44.3c3.5-2,5.4-4.5,5.6-6.8l0,0v-1.8l0,0
					C995.1,239.1,993.3,241.6,989.7,243.6z"/>
				<path class="st18" d="M802.3,240.3L802.3,240.3v-26.6h41.3l44.3-24.5c6.9-3.8,17.1-4.3,23.1-0.9l45.9,25.6h38.7v-1.8h-41.3
					l-45.9-25.7c-6-3.2-16.2-2.9-23.1,0.9l-44.3,24.5h-41.3v26.6l0,0c-0.2,2.1,1.1,4.3,3.9,5.9l0.6,0.2
					C802.8,243.4,802.1,241.8,802.3,240.3z"/>
				<path class="st3" d="M993.1,214.1v26.5l0,0c-0.2,1.4-0.7,2.7-2,4.1c2.8-1.8,4.1-3.9,4.3-6.1l0,0v-26.3
					C994.6,212.6,993.8,213.2,993.1,214.1z"/>
				
					<linearGradient id="SVGID_13_" gradientUnits="userSpaceOnUse" x1="799.5461" y1="1642.6587" x2="995.2429" y2="1642.6587" gradientTransform="matrix(1 0 0 -1 0 1854.4513)">
					<stop  offset="0" style="stop-color:#7ACCE4"/>
					<stop  offset="0.7052" style="stop-color:#7A65F7"/>
				</linearGradient>
				<path class="st19" d="M886.9,263.9l-83.3-46.1c-6-3.2-5.2-8.9,1.7-12.9l79.8-44.3c6.9-3.8,17.1-4.3,23.1-0.9l83.1,46.1
					c6,3.2,5.2,8.9-1.7,12.9L909.8,263C903.1,266.8,892.7,267.1,886.9,263.9z"/>
				<path class="st3" d="M991.4,205.8l-83.1-46.1c-3-1.8-7.3-2.3-11.7-2.1c3.2,0.2,6.1,0.9,8.4,2.1l83.1,46.1
					c6,3.2,5.2,8.9-1.7,12.9L906.6,263c-3.3,1.8-7.4,2.9-11.3,3c5,0.4,10.4-0.7,14.7-3l79.8-44.3C996.6,215,997.4,209.2,991.4,205.8
					z"/>
				<path class="st11" d="M889.5,250.7l-61.9-34.3c-4.5-2.5-3.9-6.8,1.3-9.5l59.5-33.1c5-2.9,12.8-3,17.1-0.7l61.9,34.3
					c4.5,2.5,3.9,6.8-1.3,9.5L906.6,250C901.6,252.8,894,253,889.5,250.7z"/>
				<path class="st12" d="M891.7,240l-44.8-24.8c-3.2-1.8-2.8-4.8,0.9-7l43.1-23.9c3.7-2,9.3-2.3,12.5-0.5l44.8,24.8
					c3.2,1.8,2.8,4.8-0.9,7l-43.1,23.9C900.5,241.4,894.9,241.8,891.7,240z"/>
				<path class="st9" d="M890.6,263.9l-83.3-46.1c-6-3.2-5.2-8.9,1.7-12.9l79.8-44.3c3.2-1.8,7.3-2.9,11.2-3c-5-0.4-10.8,0.7-15.1,3
					l-79.8,44.3c-6.9,3.8-7.6,9.5-1.7,12.9l83.1,46.1c3.2,1.8,7.4,2.5,11.9,2.1C895.6,265.9,892.8,265.2,890.6,263.9z"/>
				<g>
					<g>
						<defs>
							<path id="SVGID_14_" d="M891.7,240l-44.8-24.8c-3.2-1.8-2.8-4.8,0.9-7l43.1-23.9c3.7-2,9.3-2.3,12.5-0.5l44.8,24.8
								c3.2,1.8,2.8,4.8-0.9,7l-43.1,23.9C900.5,241.4,894.9,241.8,891.7,240z"/>
						</defs>
						<clipPath id="SVGID_15_">
							<use xlink:href="#SVGID_14_"  style="overflow:visible;"/>
						</clipPath>
						<path class="st20" d="M847.8,211.6l43.1-23.9c3.7-2,9.3-2.3,12.5-0.5l44.8,24.8c0.7,0.4,1.3,0.9,1.5,1.4
							c1.1-1.6,0.6-3.6-1.5-4.6l-44.8-24.8c-3.2-1.8-8.7-1.6-12.5,0.5l-43.1,23.9c-2.8,1.6-3.7,3.8-2.4,5.5
							C845.8,213,846.5,212.1,847.8,211.6z"/>
					</g>
					<g>
						<defs>
							<path id="SVGID_16_" d="M891.7,240l-44.8-24.8c-3.2-1.8-2.8-4.8,0.9-7l43.1-23.9c3.7-2,9.3-2.3,12.5-0.5l44.8,24.8
								c3.2,1.8,2.8,4.8-0.9,7l-43.1,23.9C900.5,241.4,894.9,241.8,891.7,240z"/>
						</defs>
						<clipPath id="SVGID_17_">
							<use xlink:href="#SVGID_16_"  style="overflow:visible;"/>
						</clipPath>
						<path class="st21" d="M847.8,215.5l43.1-23.9c3.7-2,9.3-2.3,12.5-0.5l44.8,24.8c0.6,0.4,0.9,0.7,1.3,1.1
							c1.5-1.8,1.1-3.8-1.3-5.2l-44.8-24.8c-3.2-1.8-8.7-1.6-12.5,0.5l-43.1,23.9c-3,1.6-3.7,4.1-2.2,5.9
							C846,216.7,846.7,216,847.8,215.5z"/>
					</g>
					<g>
						<defs>
							<path id="SVGID_18_" d="M891.7,240l-44.8-24.8c-3.2-1.8-2.8-4.8,0.9-7l43.1-23.9c3.7-2,9.3-2.3,12.5-0.5l44.8,24.8
								c3.2,1.8,2.8,4.8-0.9,7l-43.1,23.9C900.5,241.4,894.9,241.8,891.7,240z"/>
						</defs>
						<clipPath id="SVGID_19_">
							<use xlink:href="#SVGID_18_"  style="overflow:visible;"/>
						</clipPath>
						<path class="st22" d="M846,221.9c0.6-0.5,1.1-0.9,1.9-1.3l43.1-23.9c3.7-2,9.3-2.3,12.5-0.5l44.8,24.8
							c0.4,0.2,0.6,0.4,0.9,0.5c1.9-2,1.7-4.1-0.9-5.5l-44.8-24.8c-3.2-1.8-8.7-1.6-12.5,0.5l-43.1,23.9
							C844.5,217.5,843.7,220.1,846,221.9z"/>
					</g>
				</g>
			</g>
			
				<linearGradient id="SVGID_20_" gradientUnits="userSpaceOnUse" x1="897.4875" y1="1613.2555" x2="897.4875" y2="1714.7356" gradientTransform="matrix(1 0 0 -1 0 1854.4513)">
				<stop  offset="1.075270e-02" style="stop-color:#6FBDE9"/>
				<stop  offset="3.299648e-02" style="stop-color:#6CB6E2"/>
				<stop  offset="0.2086" style="stop-color:#5387B1"/>
				<stop  offset="0.3823" style="stop-color:#3E5F87"/>
				<stop  offset="0.551" style="stop-color:#2E4067"/>
				<stop  offset="0.7132" style="stop-color:#222A51"/>
				<stop  offset="0.866" style="stop-color:#1B1D43"/>
				<stop  offset="1" style="stop-color:#19183E"/>
			</linearGradient>
			<path class="st23" d="M950.3,139.7H844.7v72.4l0,0c0,1.1,0.7,2.1,2.2,3l44.8,24.8c3.2,1.8,8.7,1.6,12.5-0.5l43.1-23.9
				c1.9-1.1,3-2.3,3-3.8l0,0V139.7z"/>
		</g>
	</g>
	
		<linearGradient id="SVGID_21_" gradientUnits="userSpaceOnUse" x1="580.3802" y1="1446.1893" x2="766.9249" y2="1446.1893" gradientTransform="matrix(1 0 0 -1 0 1854.4513)">
		<stop  offset="0.3152" style="stop-color:#7A65F7"/>
		<stop  offset="0.815" style="stop-color:#7ACCE4"/>
	</linearGradient>
	<path class="st24" d="M725.1,460.3c-8.4,0-16.4-1.6-22.5-5l-112.9-62.6c-6-3.4-9.3-7.9-9.3-13c0-6.1,4.6-12.2,12.8-16.6
		c15.3-8.4,38.3-9.3,51.5-2l112.9,62.6c6,3.4,9.3,7.9,9.3,13c0,6.1-4.6,12.2-12.8,16.6C745.9,458,735.1,460.3,725.1,460.3z
		 M622.4,357.9c-9.9,0-20.1,2.3-28.1,6.8c-7.6,4.1-11.9,9.7-11.9,15c0,4.3,3,8.4,8.2,11.4l112.9,62.6c12.6,7,35,6.1,49.7-2
		c7.6-4.1,11.9-9.7,11.9-15c0-4.3-3-8.4-8.2-11.4L644,362.8C638.2,359.5,630.6,357.9,622.4,357.9z"/>
</g>
</svg>
