<?xml version="1.0" encoding="UTF-8"?>
<svg width="892px" height="642px" viewBox="0 0 892 642" version="1.1" xmlns="http://www.w3.org/2000/svg" xmlns:xlink="http://www.w3.org/1999/xlink">
    <!-- Generator: Sketch 52.4 (67378) - http://www.bohemiancoding.com/sketch -->
    <title>Concept</title>
    <desc>Created with Sketch.</desc>
    <defs>
        <polygon id="path-1" points="0 0.963726975 336.21786 0.963726975 336.21786 197.457444 0 197.457444"></polygon>
        <filter x="-56.5%" y="-96.7%" width="213.0%" height="293.4%" filterUnits="objectBoundingBox" id="filter-3">
            <feGaussianBlur stdDeviation="15" in="SourceGraphic"></feGaussianBlur>
        </filter>
        <polygon id="path-4" points="0 0.228247021 79.6291137 0.228247021 79.6291137 46.7653958 0 46.7653958"></polygon>
        <filter x="-76.3%" y="-130.5%" width="252.6%" height="361.1%" filterUnits="objectBoundingBox" id="filter-6">
            <feGaussianBlur stdDeviation="15" in="SourceGraphic"></feGaussianBlur>
        </filter>
        <polygon id="path-7" points="0 0.169071868 58.9845287 0.169071868 58.9845287 34.6410339 0 34.6410339"></polygon>
        <polygon id="path-9" points="0.28744715 0.127739938 9.59308881 0.127739938 9.59308881 21.6718266 0.28744715 21.6718266"></polygon>
        <polygon id="path-11" points="0.169907121 0.518415358 10.6080495 0.518415358 10.6080495 30.6193235 0.169907121 30.6193235"></polygon>
        <polygon id="path-13" points="13.6270268 0.0245288249 50.9325825 0.0245288249 50.9325825 40.3081766 13.6270268 40.3081766"></polygon>
    </defs>
    <g id="Blockchain-Cloud-Computing" stroke="none" stroke-width="1" fill="none" fill-rule="evenodd">
        <g transform="translate(-154.000000, -129.000000)" id="Concept">
            <g transform="translate(154.000000, 129.000000)">
                <g id="BG" transform="translate(51.000000, 61.000000)">
                    <g id="Line" opacity="0.100000001" stroke="#39475B">
                        <path d="M0.1484375,47.859375 L184.109375,154.328125" id="Path-27"></path>
                        <polyline id="Path-28" points="437.496094 0.18359375 376.585938 37.2148438 469.242188 89.640625 372.253906 143.679688"></polyline>
                        <polyline id="Path-29" points="688.523438 119.789062 467.726562 247.800781 413.992188 215.746094"></polyline>
                        <polyline id="Path-30" points="41.7304688 443.171875 146.886719 381.042969 68.4335938 334.96875 175.589844 277.160156"></polyline>
                        <polyline id="Path-31" points="416.199219 348.636719 362.128906 380.378906 424.007812 415.128906 484.527344 380.378906 546.46875 415.128906"></polyline>
                    </g>
                    <g id="Effect" transform="translate(54.000000, 71.000000)">
                        <path d="M0.46875,8.2265625 L62.7109375,44.7617188" id="Path-32" stroke="#FF8F00"></path>
                        <polyline id="Path-33" stroke="#FF8F00" points="62.4296875 291.794922 93.2636719 309.892578 48.0449219 335.896484"></polyline>
                        <polyline id="Path-34" stroke="#FF8F00" points="382.951172 0.171875 415.837891 18.6113281 385.029297 35.2558594"></polyline>
                        <path d="M476.064453,141.34375 L536.869141,105.306641" id="Path-35" stroke="#FF8F00"></path>
                        <polyline id="Path-36" stroke="#9C73FF" points="399.720703 327.173828 430.986328 309.603516 461.623047 327.173828"></polyline>
                    </g>
                </g>
                <g id="Base" transform="translate(555.000000, 442.000000)">
                    <path d="M335.204991,81.5546701 L304.911749,168.000707 C302.643031,174.473785 296.87705,179.087662 290.062709,179.882123 L123.564541,199.284977 C114.077427,200.390669 104.492029,198.283029 96.3453965,193.300587 L8.57525901,142.840061 C3.75935423,139.894278 0.758969119,134.966439 0.128314923,129.631815 L1.72413793,118.411187 C2.20190626,124.027012 3.53002544,107.8838 8.57525901,110.968819 L96.3453965,161.429345 C104.492029,166.411786 114.077427,168.519427 123.564541,167.413734 L290.062709,148.01088 C296.87705,147.216419 302.643031,142.602542 304.911749,136.129464 L334.055565,68.340739 C334.337676,67.532628 335.057531,69.1798659 336.21513,73.2824527 C335.985801,77.5286756 335.649088,80.2860814 335.204991,81.5546701 Z" id="Fill-4" fill="#B1BAC9"></path>
                    <g id="Group-3" transform="translate(0.000000, 0.042786)">
                        <mask id="mask-2" fill="white">
                            <use xlink:href="#path-1"></use>
                        </mask>
                        <g id="Clip-2"></g>
                        <path d="M29.6696863,32.6105552 L0.905302734,119.80191 C-1.7046774,127.711024 1.47316452,136.379106 8.57689707,140.725433 L96.3470345,191.185959 C104.493667,196.1684 114.079065,198.276041 123.568909,197.170349 L290.064347,177.767494 C296.878688,176.973034 302.64467,172.359157 304.913387,165.886079 L335.206629,79.4400419 C338.059588,71.3015996 334.71521,62.2895239 327.248373,57.9786885 L238.408035,6.6827504 C230.482541,2.10709484 221.295738,0.198751625 212.20176,1.23892153 L44.6606915,20.4151773 C37.7125749,21.2123679 31.8646905,25.9709404 29.6696863,32.6105552" id="Fill-1" fill="#FFFFFF" mask="url(#mask-2)"></path>
                    </g>
                </g>
                <g id="Cloud" transform="translate(153.000000, 130.000000)">
                    <g transform="translate(156.000000, 120.500000) scale(-1, 1) translate(-156.000000, -120.500000) ">
                        <path d="M48.3701953,67.14375 C48.3701953,67.14375 51.0104297,33.1980469 80.4291797,43.3816406 C80.4291797,43.3816406 97.0252734,47.1527344 109.849102,68.2757812 C109.849102,68.2757812 137.383477,35.4609375 173.590898,74.6871094 C173.590898,74.6871094 213.57293,113.535937 209.800664,161.814844 C209.800664,161.814844 233.18543,177.65625 236.957695,215.750391 C236.957695,215.750391 238.505742,230.058984 230.689336,236.797266 L307.018242,192.953906 C307.018242,192.953906 325.025273,164.396484 284.490117,118.308984 C284.490117,118.308984 289.080352,47.1714844 235.626445,20.5804688 C235.626445,20.5804688 204.331523,7.15898437 185.452617,28.8152344 C185.452617,28.8152344 152.943633,-23.8300781 114.263555,13.340625 C114.263555,13.340625 110.094023,9.609375 92.1549609,20.2605469 C74.2158984,30.9117187 15.5002734,64.5257813 15.5002734,64.5257813" id="Fill-42" fill="#2B6EFF"></path>
                        <path d="M48.3701953,148.990664 C48.3701953,148.990664 -27.9833203,104.943398 11.6366016,67.1012109 C11.6366016,67.1012109 24.0948047,54.8351953 48.3701953,67.1433984 C48.3701953,67.1433984 51.0104297,33.1976953 80.4291797,43.3812891 C80.4291797,43.3812891 97.0252734,47.1535547 109.849102,68.2754297 C109.849102,68.2754297 137.383477,35.4605859 173.590898,74.6879297 C173.590898,74.6879297 213.57293,113.535586 209.800664,161.814492 C209.800664,161.814492 233.18543,177.655898 236.957695,215.750039 C236.957695,215.750039 240.728789,250.602773 206.783086,237.13793 L48.3701953,148.990664 Z" id="Fill-44" fill="#3EB4FF"></path>
                    </g>
                    <g transform="translate(311.730290, 120.000000) scale(-1, 1) translate(-311.730290, -120.000000) translate(247.000000, 70.000000)">
                        <path d="M20.0706205,27.8604772 C20.0706205,27.8604772 21.1661534,13.7751232 33.3731036,18.0006808 C33.3731036,18.0006808 40.2594496,19.5654499 45.5805401,28.3301997 C45.5805401,28.3301997 57.0055919,14.714082 72.0294184,30.9905018 C72.0294184,30.9905018 88.6194729,47.1103475 87.0542175,67.1430887 C87.0542175,67.1430887 96.7574397,73.7162863 98.3226952,89.5229837 C98.3226952,89.5229837 98.9650383,95.4601595 95.7217162,98.2561268 L127.393461,80.0638615 C127.393461,80.0638615 134.865259,68.2143089 118.045692,49.0908649 C118.045692,49.0908649 119.950353,19.57323 97.7703093,8.53961359 C97.7703093,8.53961359 84.7848645,2.97053294 76.9512934,11.9565288 C76.9512934,11.9565288 63.4620883,-9.88799922 47.4122634,5.53552905 C47.4122634,5.53552905 45.6821674,3.98729253 38.238573,8.40686592 C30.7949786,12.8264393 6.43164873,26.7741831 6.43164873,26.7741831" id="Fill-42" fill="#2B6EFF"></path>
                        <path d="M20.0706205,61.8218523 C20.0706205,61.8218523 -11.6113362,43.5449786 4.82846538,27.8428261 C4.82846538,27.8428261 9.99784427,22.7531931 20.0706205,27.8603313 C20.0706205,27.8603313 21.1661534,13.7749773 33.3731036,18.0005349 C33.3731036,18.0005349 40.2594496,19.5657903 45.5805401,28.3300538 C45.5805401,28.3300538 57.0055919,14.7139361 72.0294184,30.9908422 C72.0294184,30.9908422 88.6194729,47.1102016 87.0542175,67.1429428 C87.0542175,67.1429428 96.7574397,73.7161404 98.3226952,89.5228378 C98.3226952,89.5228378 99.8874643,103.984553 85.8021103,98.3974812 L20.0706205,61.8218523 Z" id="Fill-44" fill="#3EB4FF"></path>
                    </g>
                    <g id="Item" transform="translate(159.000000, 101.000000)">
                        <g id="Base" transform="translate(0.000000, 53.000000)">
                            <path d="M7.02690461,14.781581 L0.21440995,35.4317938 C-0.403732125,37.3049712 0.348901112,39.3579012 2.03133383,40.3872758 L22.8186242,52.3382382 C24.7480551,53.5182688 27.01824,54.0174379 29.2657943,53.7555681 L68.6982152,49.1602378 C70.3121091,48.9720795 71.6777117,47.8793388 72.2150298,46.3462689 L79.389616,25.8725758 C80.0653048,23.9450846 79.2732294,21.810684 77.5048,20.789715 L56.4640455,8.64089555 C54.5869886,7.55720714 52.4112061,7.10523925 50.2574077,7.35159085 L10.577342,11.893254 C8.93176502,12.0820589 7.54676468,13.2090689 7.02690461,14.781581" id="Fill-1" fill-opacity="0.39" fill="#61E8FF" filter="url(#filter-3)"></path>
                            <path d="M79.3892281,21.356938 L72.2146418,41.8306311 C71.6773238,43.3637011 70.3117212,44.4564418 68.6978272,44.6446001 L29.2647597,49.2399303 C27.0178521,49.5018001 24.7476671,49.002631 22.8182362,47.8226004 L2.03094587,35.8716381 C0.89035736,35.1739652 0.179752612,34.0068664 0.03038983,32.7434254 L0,29.5415011 C0.113153622,30.8715412 0.836043621,27.5926725 2.03094587,28.3233216 L22.8182362,40.2742839 C24.7476671,41.4543145 27.0178521,41.9534836 29.2647597,41.6916138 L68.6978272,37.0962836 C70.3117212,36.9081253 71.6773238,35.8153846 72.2146418,34.2823146 L79.3892281,17.1384694 C79.4560426,16.9470781 79.5357889,17.7001763 79.6284672,19.3977638 C79.5741534,20.4034301 79.4944071,21.0564882 79.3892281,21.356938 Z" id="Fill-4" fill="#B1BAC9"></path>
                            <g id="Group-3" transform="translate(0.000000, 0.418474)">
                                <mask id="mask-5" fill="white">
                                    <use xlink:href="#path-4"></use>
                                </mask>
                                <g id="Clip-2"></g>
                                <path d="M7.02690461,7.72341365 L0.21440995,28.3736264 C-0.403732125,30.2468038 0.348901112,32.2997338 2.03133383,33.3291085 L22.8186242,45.2800708 C24.7480551,46.4601014 27.01824,46.9592706 29.2657943,46.6974008 L68.6982152,42.1020705 C70.3121091,41.9139122 71.6777117,40.8211715 72.2150298,39.2881016 L79.389616,18.8144084 C80.0653048,16.8869173 79.2732294,14.7525167 77.5048,13.7315477 L56.4640455,1.58272821 C54.5869886,0.499039804 52.4112061,0.0470719069 50.2574077,0.293423508 L10.577342,4.83508661 C8.93176502,5.02389152 7.54676468,6.1509016 7.02690461,7.72341365" id="Fill-1" fill="#FFFFFF" mask="url(#mask-5)"></path>
                            </g>
                        </g>
                        <g id="ethereum" transform="translate(23.000000, 0.000000)">
                            <polygon id="Fill-1" fill="#8091A9" points="0 41.7723741 16.3911683 51.2379707 32.7891144 41.7723741 16.3945572 32.3069961"></polygon>
                            <polygon id="Fill-2" fill="#0D2155" points="16.3911792 51.2379925 16.3911792 79.6285512 32.7956844 41.7745823"></polygon>
                            <polygon id="Fill-3" fill="#39475B" points="16.3911792 79.6285512 16.3911792 51.2379925 0.00274390468 41.7745823"></polygon>
                            <polygon id="Fill-4" fill="#0D2155" points="16.3911792 47.1730344 32.7956844 37.7898642 16.3945681 0.00651540713"></polygon>
                            <polygon id="Fill-5" fill="#39475B" points="0.00275483657 37.7898642 16.3911902 47.1730344 16.3911902 6.5591347e-05"></polygon>
                        </g>
                    </g>
                    <g transform="translate(223.730290, 262.000000) scale(-1, 1) translate(-223.730290, -262.000000) translate(159.000000, 212.000000)">
                        <path d="M20.0706205,27.8604772 C20.0706205,27.8604772 21.1661534,13.7751232 33.3731036,18.0006808 C33.3731036,18.0006808 40.2594496,19.5654499 45.5805401,28.3301997 C45.5805401,28.3301997 57.0055919,14.714082 72.0294184,30.9905018 C72.0294184,30.9905018 88.6194729,47.1103475 87.0542175,67.1430887 C87.0542175,67.1430887 96.7574397,73.7162863 98.3226952,89.5229837 C98.3226952,89.5229837 98.9650383,95.4601595 95.7217162,98.2561268 L127.393461,80.0638615 C127.393461,80.0638615 134.865259,68.2143089 118.045692,49.0908649 C118.045692,49.0908649 119.950353,19.57323 97.7703093,8.53961359 C97.7703093,8.53961359 84.7848645,2.97053294 76.9512934,11.9565288 C76.9512934,11.9565288 63.4620883,-9.88799922 47.4122634,5.53552905 C47.4122634,5.53552905 45.6821674,3.98729253 38.238573,8.40686592 C30.7949786,12.8264393 6.43164873,26.7741831 6.43164873,26.7741831" id="Fill-42" fill="#2B6EFF"></path>
                        <path d="M20.0706205,61.8218523 C20.0706205,61.8218523 -11.6113362,43.5449786 4.82846538,27.8428261 C4.82846538,27.8428261 9.99784427,22.7531931 20.0706205,27.8603313 C20.0706205,27.8603313 21.1661534,13.7749773 33.3731036,18.0005349 C33.3731036,18.0005349 40.2594496,19.5657903 45.5805401,28.3300538 C45.5805401,28.3300538 57.0055919,14.7139361 72.0294184,30.9908422 C72.0294184,30.9908422 88.6194729,47.1102016 87.0542175,67.1429428 C87.0542175,67.1429428 96.7574397,73.7161404 98.3226952,89.5228378 C98.3226952,89.5228378 99.8874643,103.984553 85.8021103,98.3974812 L20.0706205,61.8218523 Z" id="Fill-44" fill="#3EB4FF"></path>
                    </g>
                    <g transform="translate(337.838174, 262.000000) scale(-1, 1) translate(-337.838174, -262.000000) translate(299.000000, 232.000000)">
                        <path d="M12.0423723,16.7162863 C12.0423723,16.7162863 12.699692,8.26507391 20.0238622,10.8004085 C20.0238622,10.8004085 24.1556697,11.73927 27.348324,16.9981198 C27.348324,16.9981198 34.2033552,8.82844917 43.2176511,18.5943011 C43.2176511,18.5943011 53.1716837,28.2662085 52.2325305,40.2858532 C52.2325305,40.2858532 58.0544638,44.2297718 58.9936171,53.7137902 C58.9936171,53.7137902 59.379023,57.2760957 57.4330297,58.9536761 L76.4360769,48.0383169 C76.4360769,48.0383169 80.9191552,40.9285853 70.8274151,29.4545189 C70.8274151,29.4545189 71.970212,11.743938 58.6621856,5.12376815 C58.6621856,5.12376815 50.8709187,1.78231976 46.1707761,7.17391727 C46.1707761,7.17391727 38.077253,-5.93279953 28.447358,3.32131743 C28.447358,3.32131743 27.4093004,2.39237552 22.9431438,5.04411955 C18.4769872,7.69586359 3.85898924,16.0645099 3.85898924,16.0645099" id="Fill-42" fill="#2B6EFF"></path>
                        <path d="M12.0423723,37.0931114 C12.0423723,37.0931114 -6.96680174,26.1269872 2.89707923,16.7056957 C2.89707923,16.7056957 5.99870656,13.6519158 12.0423723,16.7161988 C12.0423723,16.7161988 12.699692,8.26498638 20.0238622,10.8003209 C20.0238622,10.8003209 24.1556697,11.7394742 27.348324,16.9980323 C27.348324,16.9980323 34.2033552,8.82836164 43.2176511,18.5945053 C43.2176511,18.5945053 53.1716837,28.266121 52.2325305,40.2857657 C52.2325305,40.2857657 58.0544638,44.2296843 58.9936171,53.7137027 C58.9936171,53.7137027 59.9324786,62.390732 51.4812662,59.0384887 L12.0423723,37.0931114 Z" id="Fill-44" fill="#3EB4FF"></path>
                    </g>
                </g>
                <g id="Data" transform="translate(696.000000, 113.000000)">
                    <path d="M64.4238281,87.6776733 L64.3469238,74.6720581 C64.3425293,72.8450317 63.0549316,70.6224976 61.4707031,69.7084351 L3.15966797,36.0419312 C1.57543945,35.1278687 0.295532227,35.8683472 0.299926758,37.6953735 L0.376831055,50.7009888 C0.382324219,52.5280151 1.66882324,54.7505493 3.25305176,55.6646118 L61.5640869,89.3311157 C63.1483154,90.2451782 64.4282227,89.5046997 64.4238281,87.6776733" id="Fill-76" fill="#1D5084"></path>
                    <path d="M55.7017822,79.1386597 C56.4807129,78.6882202 57.7485352,79.4243042 58.532959,80.7822144 C59.3173828,82.1401245 59.3206787,83.6067993 58.541748,84.0572388 C57.7617188,84.5076782 56.4938965,83.7715942 55.7094727,82.4125854 C54.9250488,81.0546753 54.9217529,79.5880005 55.7017822,79.1386597" id="Fill-78" fill="#FFFFFF"></path>
                    <path d="M55.9051392,71.6648804 C56.5258667,71.3067261 57.5739624,71.959314 58.2452271,73.1216675 C58.9175903,74.2862183 58.9582397,75.5199829 58.3375122,75.8781372 C57.7167847,76.2362915 56.668689,75.5837036 55.9974243,74.4202515 C55.3261597,73.2567993 55.2844116,72.0230347 55.9051392,71.6648804 M55.7095825,74.586145 C56.4940063,75.9451538 57.7618286,76.6801392 58.5418579,76.2307983 C59.3207886,75.7803589 59.3174927,74.3147827 58.5330688,72.9568726 C57.748645,71.5978638 56.4808228,70.8617798 55.7018921,71.3122192 C54.9218628,71.7626587 54.9251587,73.2282349 55.7095825,74.586145" id="Fill-80" fill="#00FFFF"></path>
                    <path d="M3.15955811,36.0419312 C2.38831787,35.5969849 1.69178467,35.5464478 1.17762451,35.8200073 L1.17322998,35.8178101 L62.3396118,0.503356934 L62.3418091,0.506652832 C62.8559692,0.230895996 63.5546997,0.281433105 64.3259399,0.726379395 L122.638074,34.3939819 C124.221204,35.3080444 125.508801,37.52948 125.513196,39.357605 L125.5901,52.3632202 C125.592297,53.2992554 125.256116,53.9485474 124.715588,54.2374878 L124.717786,54.2396851 L63.5514038,89.5552368 L63.5514038,89.5508423 C64.0908325,89.2608032 64.4259155,88.6137085 64.4237183,87.6776733 L64.346814,74.6720581 C64.3424194,72.8450317 63.0548218,70.6224976 61.4716919,69.7084351 L6.343396,37.8799438" id="Fill-82" fill="#8091A9"></path>
                    <path d="M51.3062622,70.8120117 L51.29198,70.2363281 C51.29198,69.9078369 51.0601685,69.5079346 50.7756226,69.3442383 L4.41990967,42.6925049 C4.13536377,42.5288086 3.90465088,42.6617432 3.90574951,42.9902344 L3.92003174,43.565918 C3.92113037,43.8944092 4.15184326,44.2932129 4.43638916,44.4580078 L50.7921021,71.1097412 C51.0777466,71.2734375 51.3062622,71.1405029 51.3062622,70.8120117" id="Fill-84" fill="#00FFFF"></path>
                    <path d="M51.7890015,78.9561768 L51.7747192,78.3793945 C51.7747192,78.0509033 51.5429077,77.6520996 51.2583618,77.4873047 L21.8161011,60.5661621 C21.5315552,60.4013672 21.3019409,60.5343018 21.3019409,60.862793 L21.3162231,61.4395752 C21.3173218,61.7669678 21.5480347,62.1668701 21.8325806,62.3305664 L51.2748413,79.2539062 C51.5604858,79.4176025 51.7890015,79.284668 51.7890015,78.9561768" id="Fill-86" fill="#FFFFFF"></path>
                    <path d="M18.7769531,59.8256836 L18.7626709,59.25 C18.7615723,58.9215088 18.5308594,58.5216064 18.2463135,58.3568115 L4.07285156,50.2434082 C3.78720703,50.0797119 3.55759277,50.2126465 3.55869141,50.5411377 L3.57297363,51.1179199 C3.57297363,51.4464111 3.80478516,51.8452148 4.08933105,52.0100098 L18.262793,60.1234131 C18.5473389,60.2871094 18.7769531,60.1541748 18.7769531,59.8256836" id="Fill-88" fill="#FFFFFF"></path>
                </g>
                <g id="Item" transform="translate(471.000000, 0.000000)">
                    <g id="Base" transform="translate(0.000000, 39.259259)">
                        <path d="M5.20511453,10.9493193 L0.158822185,26.2457732 C-0.299060833,27.633312 0.258445268,29.1540009 1.50469173,29.9165006 L16.9026846,38.7690653 C18.3318926,39.6431621 20.0135111,40.012917 21.6783661,39.8189393 L50.8875668,36.414991 C52.0830438,36.2756145 53.0946013,35.4661769 53.4926146,34.3305696 L58.807123,19.1648709 C59.3076332,17.7370997 58.7209107,16.1560622 57.4109629,15.3997889 L41.8252189,6.40066337 C40.4348064,5.59793122 38.8231156,5.26314018 37.2277094,5.44562285 L7.83506814,8.80981774 C6.61612224,8.94967323 5.59019606,9.78449551 5.20511453,10.9493193" id="Fill-1" fill-opacity="0.39" fill="#61E8FF" filter="url(#filter-6)"></path>
                        <path d="M58.8068356,15.8199541 L53.4923273,30.9856527 C53.0943139,32.12126 52.0827564,32.9306976 50.8872794,33.0700741 L21.6775998,36.4740225 C20.0132238,36.6680001 18.3316053,36.2982452 16.9023972,35.4241484 L1.50440435,26.5715838 C0.659523971,26.054789 0.133150083,25.1902714 0.0225109852,24.2543892 L0,21.8825934 C0.0838174981,22.8678083 0.619291571,20.4390166 1.50440435,20.9802382 L16.9023972,29.8328029 C18.3316053,30.7068996 20.0132238,31.0766545 21.6775998,30.8826769 L50.8872794,27.4787286 C52.0827564,27.339352 53.0943139,26.5299145 53.4923273,25.3943071 L58.8068356,12.6951625 C58.8563278,12.5533912 58.9153992,13.1112417 58.9840497,14.368714 C58.9438173,15.1136519 58.884746,15.5973987 58.8068356,15.8199541 Z" id="Fill-4" fill="#B1BAC9"></path>
                        <g id="Group-3" transform="translate(0.000000, 0.309981)">
                            <mask id="mask-8" fill="white">
                                <use xlink:href="#path-7"></use>
                            </mask>
                            <g id="Clip-2"></g>
                            <path d="M5.20511453,5.72104715 L0.158822185,21.0175011 C-0.299060833,22.4050399 0.258445268,23.9257288 1.50469173,24.6882285 L16.9026846,33.5407932 C18.3318926,34.41489 20.0135111,34.7846449 21.6783661,34.5906672 L50.8875668,31.1867189 C52.0830438,31.0473424 53.0946013,30.2379048 53.4926146,29.1022975 L58.807123,13.9365988 C59.3076332,12.5088276 58.7209107,10.9277901 57.4109629,10.1715168 L41.8252189,1.17239127 C40.4348064,0.369659114 38.8231156,0.0348680792 37.2277094,0.217350746 L7.83506814,3.58154564 C6.61612224,3.72140112 5.59019606,4.5562234 5.20511453,5.72104715" id="Fill-1" fill="#FFFFFF" mask="url(#mask-8)"></path>
                        </g>
                    </g>
                    <g id="ethereum" transform="translate(17.037037, 0.000000)">
                        <polygon id="Fill-1" fill="#8091A9" points="0 30.9424993 12.1416061 37.9540523 24.2882329 30.9424993 12.1441164 23.9311082"></polygon>
                        <polygon id="Fill-2" fill="#0D2155" points="12.1416142 37.9540685 12.1416142 58.984112 24.2930996 30.944135"></polygon>
                        <polygon id="Fill-3" fill="#39475B" points="12.1416142 58.984112 12.1416142 37.9540685 0.00203252199 30.944135"></polygon>
                        <polygon id="Fill-4" fill="#0D2155" points="12.1416142 34.9429884 24.2930996 27.992492 12.1441245 0.00482622751"></polygon>
                        <polygon id="Fill-5" fill="#39475B" points="0.00204061968 27.992492 12.1416223 34.9429884 12.1416223 4.85861829e-05"></polygon>
                    </g>
                </g>
                <g id="Data" transform="translate(42.000000, 482.000000)">
                    <path d="M42.9492187,58.4517822 L42.8979492,49.7813721 C42.8950195,48.5633545 42.0366211,47.081665 40.9804687,46.47229 L2.10644531,24.0279541 C1.05029297,23.4185791 0.197021484,23.9122314 0.199951172,25.130249 L0.251220703,33.8006592 C0.254882813,35.0186768 1.11254883,36.5003662 2.16870117,37.1097412 L41.0427246,59.5540771 C42.098877,60.1634521 42.9521484,59.6697998 42.9492187,58.4517822" id="Fill-76" fill="#1D5084"></path>
                    <path d="M37.1345215,52.7591064 C37.6538086,52.4588135 38.4990234,52.9495361 39.0219727,53.8548096 C39.5449219,54.760083 39.5471191,55.7378662 39.027832,56.0381592 C38.5078125,56.3384521 37.6625977,55.8477295 37.1396484,54.9417236 C36.6166992,54.0364502 36.614502,53.058667 37.1345215,52.7591064" id="Fill-78" fill="#FFFFFF"></path>
                    <path d="M37.2700928,47.7765869 C37.6839111,47.5378174 38.3826416,47.972876 38.8301514,48.7477783 C39.2783936,49.5241455 39.3054932,50.3466553 38.8916748,50.5854248 C38.4778564,50.8241943 37.779126,50.3891357 37.3316162,49.613501 C36.8841064,48.8378662 36.8562744,48.0153564 37.2700928,47.7765869 M37.1397217,49.7240967 C37.6626709,50.6301025 38.5078857,51.1200928 39.0279053,50.8205322 C39.5471924,50.5202393 39.5449951,49.5431885 39.0220459,48.637915 C38.4990967,47.7319092 37.6538818,47.2411865 37.1345947,47.5414795 C36.6145752,47.8417725 36.6167725,48.8188232 37.1397217,49.7240967" id="Fill-80" fill="#00FFFF"></path>
                    <path d="M2.10637207,24.0279541 C1.59221191,23.7313232 1.12785645,23.6976318 0.785083008,23.8800049 L0.78215332,23.87854 L41.5597412,0.335571289 L41.5612061,0.337768555 C41.9039795,0.153930664 42.3697998,0.18762207 42.88396,0.48425293 L81.7587158,22.9293213 C82.8141357,23.5386963 83.6725342,25.0196533 83.6754639,26.2384033 L83.7267334,34.9088135 C83.7281982,35.5328369 83.5040771,35.9656982 83.1437256,36.1583252 L83.1451904,36.15979 L42.3676025,59.7034912 L42.3676025,59.7005615 C42.7272217,59.5072021 42.9506104,59.0758057 42.9491455,58.4517822 L42.897876,49.7813721 C42.8949463,48.5633545 42.0365479,47.081665 40.9811279,46.47229 L4.22893066,25.2532959" id="Fill-82" fill="#8091A9"></path>
                    <path d="M34.2041748,47.2080078 L34.1946533,46.8242188 C34.1946533,46.6052246 34.0401123,46.338623 33.850415,46.2294922 L2.94660645,28.4616699 C2.75690918,28.3525391 2.60310059,28.4411621 2.60383301,28.6601563 L2.61335449,29.0439453 C2.61408691,29.2629395 2.76789551,29.5288086 2.95759277,29.6386719 L33.8614014,47.4064941 C34.0518311,47.515625 34.2041748,47.427002 34.2041748,47.2080078" id="Fill-84" fill="#00FFFF"></path>
                    <path d="M34.526001,52.6374512 L34.5164795,52.2529297 C34.5164795,52.0339355 34.3619385,51.7680664 34.1722412,51.6582031 L14.5440674,40.3774414 C14.3543701,40.2675781 14.2012939,40.3562012 14.2012939,40.5751953 L14.2108154,40.9597168 C14.2115479,41.1779785 14.3653564,41.4445801 14.5550537,41.5537109 L34.1832275,52.8359375 C34.3736572,52.9450684 34.526001,52.8564453 34.526001,52.6374512" id="Fill-86" fill="#FFFFFF"></path>
                    <path d="M12.5179688,39.8837891 L12.5084473,39.5 C12.5077148,39.2810059 12.3539063,39.0144043 12.164209,38.904541 L2.71523438,33.4956055 C2.52480469,33.3864746 2.37172852,33.4750977 2.37246094,33.6940918 L2.38198242,34.0786133 C2.38198242,34.2976074 2.53652344,34.5634766 2.7262207,34.6733398 L12.1751953,40.0822754 C12.3648926,40.1914062 12.5179688,40.1027832 12.5179688,39.8837891" id="Fill-88" fill="#FFFFFF"></path>
                </g>
                <g id="Data" transform="translate(42.000000, 462.000000)">
                    <path d="M42.9492187,58.4517822 L42.8979492,49.7813721 C42.8950195,48.5633545 42.0366211,47.081665 40.9804687,46.47229 L2.10644531,24.0279541 C1.05029297,23.4185791 0.197021484,23.9122314 0.199951172,25.130249 L0.251220703,33.8006592 C0.254882813,35.0186768 1.11254883,36.5003662 2.16870117,37.1097412 L41.0427246,59.5540771 C42.098877,60.1634521 42.9521484,59.6697998 42.9492187,58.4517822" id="Fill-76" fill="#1D5084"></path>
                    <path d="M37.1345215,52.7591064 C37.6538086,52.4588135 38.4990234,52.9495361 39.0219727,53.8548096 C39.5449219,54.760083 39.5471191,55.7378662 39.027832,56.0381592 C38.5078125,56.3384521 37.6625977,55.8477295 37.1396484,54.9417236 C36.6166992,54.0364502 36.614502,53.058667 37.1345215,52.7591064" id="Fill-78" fill="#FFFFFF"></path>
                    <path d="M37.2700928,47.7765869 C37.6839111,47.5378174 38.3826416,47.972876 38.8301514,48.7477783 C39.2783936,49.5241455 39.3054932,50.3466553 38.8916748,50.5854248 C38.4778564,50.8241943 37.779126,50.3891357 37.3316162,49.613501 C36.8841064,48.8378662 36.8562744,48.0153564 37.2700928,47.7765869 M37.1397217,49.7240967 C37.6626709,50.6301025 38.5078857,51.1200928 39.0279053,50.8205322 C39.5471924,50.5202393 39.5449951,49.5431885 39.0220459,48.637915 C38.4990967,47.7319092 37.6538818,47.2411865 37.1345947,47.5414795 C36.6145752,47.8417725 36.6167725,48.8188232 37.1397217,49.7240967" id="Fill-80" fill="#00FFFF"></path>
                    <path d="M2.10637207,24.0279541 C1.59221191,23.7313232 1.12785645,23.6976318 0.785083008,23.8800049 L0.78215332,23.87854 L41.5597412,0.335571289 L41.5612061,0.337768555 C41.9039795,0.153930664 42.3697998,0.18762207 42.88396,0.48425293 L81.7587158,22.9293213 C82.8141357,23.5386963 83.6725342,25.0196533 83.6754639,26.2384033 L83.7267334,34.9088135 C83.7281982,35.5328369 83.5040771,35.9656982 83.1437256,36.1583252 L83.1451904,36.15979 L42.3676025,59.7034912 L42.3676025,59.7005615 C42.7272217,59.5072021 42.9506104,59.0758057 42.9491455,58.4517822 L42.897876,49.7813721 C42.8949463,48.5633545 42.0365479,47.081665 40.9811279,46.47229 L4.22893066,25.2532959" id="Fill-82" fill="#8091A9"></path>
                    <path d="M34.2041748,47.2080078 L34.1946533,46.8242188 C34.1946533,46.6052246 34.0401123,46.338623 33.850415,46.2294922 L2.94660645,28.4616699 C2.75690918,28.3525391 2.60310059,28.4411621 2.60383301,28.6601563 L2.61335449,29.0439453 C2.61408691,29.2629395 2.76789551,29.5288086 2.95759277,29.6386719 L33.8614014,47.4064941 C34.0518311,47.515625 34.2041748,47.427002 34.2041748,47.2080078" id="Fill-84" fill="#00FFFF"></path>
                    <path d="M34.526001,52.6374512 L34.5164795,52.2529297 C34.5164795,52.0339355 34.3619385,51.7680664 34.1722412,51.6582031 L14.5440674,40.3774414 C14.3543701,40.2675781 14.2012939,40.3562012 14.2012939,40.5751953 L14.2108154,40.9597168 C14.2115479,41.1779785 14.3653564,41.4445801 14.5550537,41.5537109 L34.1832275,52.8359375 C34.3736572,52.9450684 34.526001,52.8564453 34.526001,52.6374512" id="Fill-86" fill="#FFFFFF"></path>
                    <path d="M12.5179688,39.8837891 L12.5084473,39.5 C12.5077148,39.2810059 12.3539063,39.0144043 12.164209,38.904541 L2.71523438,33.4956055 C2.52480469,33.3864746 2.37172852,33.4750977 2.37246094,33.6940918 L2.38198242,34.0786133 C2.38198242,34.2976074 2.53652344,34.5634766 2.7262207,34.6733398 L12.1751953,40.0822754 C12.3648926,40.1914062 12.5179688,40.1027832 12.5179688,39.8837891" id="Fill-88" fill="#FFFFFF"></path>
                </g>
                <g id="Group" transform="translate(0.000000, 30.000000)">
                    <g id="Data" transform="translate(42.000000, 70.000000) scale(-1, 1) translate(-42.000000, -70.000000) translate(0.000000, 40.000000)">
                        <path d="M42.9492187,58.4517822 L42.8979492,49.7813721 C42.8950195,48.5633545 42.0366211,47.081665 40.9804687,46.47229 L2.10644531,24.0279541 C1.05029297,23.4185791 0.197021484,23.9122314 0.199951172,25.130249 L0.251220703,33.8006592 C0.254882813,35.0186768 1.11254883,36.5003662 2.16870117,37.1097412 L41.0427246,59.5540771 C42.098877,60.1634521 42.9521484,59.6697998 42.9492187,58.4517822" id="Fill-76" fill="#1D5084"></path>
                        <path d="M37.1345215,52.7591064 C37.6538086,52.4588135 38.4990234,52.9495361 39.0219727,53.8548096 C39.5449219,54.760083 39.5471191,55.7378662 39.027832,56.0381592 C38.5078125,56.3384521 37.6625977,55.8477295 37.1396484,54.9417236 C36.6166992,54.0364502 36.614502,53.058667 37.1345215,52.7591064" id="Fill-78" fill="#FFFFFF"></path>
                        <path d="M37.2700928,47.7765869 C37.6839111,47.5378174 38.3826416,47.972876 38.8301514,48.7477783 C39.2783936,49.5241455 39.3054932,50.3466553 38.8916748,50.5854248 C38.4778564,50.8241943 37.779126,50.3891357 37.3316162,49.613501 C36.8841064,48.8378662 36.8562744,48.0153564 37.2700928,47.7765869 M37.1397217,49.7240967 C37.6626709,50.6301025 38.5078857,51.1200928 39.0279053,50.8205322 C39.5471924,50.5202393 39.5449951,49.5431885 39.0220459,48.637915 C38.4990967,47.7319092 37.6538818,47.2411865 37.1345947,47.5414795 C36.6145752,47.8417725 36.6167725,48.8188232 37.1397217,49.7240967" id="Fill-80" fill="#00FFFF"></path>
                        <path d="M2.10637207,24.0279541 C1.59221191,23.7313232 1.12785645,23.6976318 0.785083008,23.8800049 L0.78215332,23.87854 L41.5597412,0.335571289 L41.5612061,0.337768555 C41.9039795,0.153930664 42.3697998,0.18762207 42.88396,0.48425293 L81.7587158,22.9293213 C82.8141357,23.5386963 83.6725342,25.0196533 83.6754639,26.2384033 L83.7267334,34.9088135 C83.7281982,35.5328369 83.5040771,35.9656982 83.1437256,36.1583252 L83.1451904,36.15979 L42.3676025,59.7034912 L42.3676025,59.7005615 C42.7272217,59.5072021 42.9506104,59.0758057 42.9491455,58.4517822 L42.897876,49.7813721 C42.8949463,48.5633545 42.0365479,47.081665 40.9811279,46.47229 L4.22893066,25.2532959" id="Fill-82" fill="#8091A9"></path>
                        <path d="M34.2041748,47.2080078 L34.1946533,46.8242188 C34.1946533,46.6052246 34.0401123,46.338623 33.850415,46.2294922 L2.94660645,28.4616699 C2.75690918,28.3525391 2.60310059,28.4411621 2.60383301,28.6601563 L2.61335449,29.0439453 C2.61408691,29.2629395 2.76789551,29.5288086 2.95759277,29.6386719 L33.8614014,47.4064941 C34.0518311,47.515625 34.2041748,47.427002 34.2041748,47.2080078" id="Fill-84" fill="#00FFFF"></path>
                        <path d="M34.526001,52.6374512 L34.5164795,52.2529297 C34.5164795,52.0339355 34.3619385,51.7680664 34.1722412,51.6582031 L14.5440674,40.3774414 C14.3543701,40.2675781 14.2012939,40.3562012 14.2012939,40.5751953 L14.2108154,40.9597168 C14.2115479,41.1779785 14.3653564,41.4445801 14.5550537,41.5537109 L34.1832275,52.8359375 C34.3736572,52.9450684 34.526001,52.8564453 34.526001,52.6374512" id="Fill-86" fill="#FFFFFF"></path>
                        <path d="M12.5179688,39.8837891 L12.5084473,39.5 C12.5077148,39.2810059 12.3539063,39.0144043 12.164209,38.904541 L2.71523438,33.4956055 C2.52480469,33.3864746 2.37172852,33.4750977 2.37246094,33.6940918 L2.38198242,34.0786133 C2.38198242,34.2976074 2.53652344,34.5634766 2.7262207,34.6733398 L12.1751953,40.0822754 C12.3648926,40.1914063 12.5179688,40.1027832 12.5179688,39.8837891" id="Fill-88" fill="#FFFFFF"></path>
                    </g>
                    <g id="Data" transform="translate(42.000000, 50.000000) scale(-1, 1) translate(-42.000000, -50.000000) translate(0.000000, 20.000000)">
                        <path d="M42.9492187,58.4517822 L42.8979492,49.7813721 C42.8950195,48.5633545 42.0366211,47.081665 40.9804687,46.47229 L2.10644531,24.0279541 C1.05029297,23.4185791 0.197021484,23.9122314 0.199951172,25.130249 L0.251220703,33.8006592 C0.254882813,35.0186768 1.11254883,36.5003662 2.16870117,37.1097412 L41.0427246,59.5540771 C42.098877,60.1634521 42.9521484,59.6697998 42.9492187,58.4517822" id="Fill-76" fill="#1D5084"></path>
                        <path d="M37.1345215,52.7591064 C37.6538086,52.4588135 38.4990234,52.9495361 39.0219727,53.8548096 C39.5449219,54.760083 39.5471191,55.7378662 39.027832,56.0381592 C38.5078125,56.3384521 37.6625977,55.8477295 37.1396484,54.9417236 C36.6166992,54.0364502 36.614502,53.058667 37.1345215,52.7591064" id="Fill-78" fill="#FFFFFF"></path>
                        <path d="M37.2700928,47.7765869 C37.6839111,47.5378174 38.3826416,47.972876 38.8301514,48.7477783 C39.2783936,49.5241455 39.3054932,50.3466553 38.8916748,50.5854248 C38.4778564,50.8241943 37.779126,50.3891357 37.3316162,49.613501 C36.8841064,48.8378662 36.8562744,48.0153564 37.2700928,47.7765869 M37.1397217,49.7240967 C37.6626709,50.6301025 38.5078857,51.1200928 39.0279053,50.8205322 C39.5471924,50.5202393 39.5449951,49.5431885 39.0220459,48.637915 C38.4990967,47.7319092 37.6538818,47.2411865 37.1345947,47.5414795 C36.6145752,47.8417725 36.6167725,48.8188232 37.1397217,49.7240967" id="Fill-80" fill="#00FFFF"></path>
                        <path d="M2.10637207,24.0279541 C1.59221191,23.7313232 1.12785645,23.6976318 0.785083008,23.8800049 L0.78215332,23.87854 L41.5597412,0.335571289 L41.5612061,0.337768555 C41.9039795,0.153930664 42.3697998,0.18762207 42.88396,0.48425293 L81.7587158,22.9293213 C82.8141357,23.5386963 83.6725342,25.0196533 83.6754639,26.2384033 L83.7267334,34.9088135 C83.7281982,35.5328369 83.5040771,35.9656982 83.1437256,36.1583252 L83.1451904,36.15979 L42.3676025,59.7034912 L42.3676025,59.7005615 C42.7272217,59.5072021 42.9506104,59.0758057 42.9491455,58.4517822 L42.897876,49.7813721 C42.8949463,48.5633545 42.0365479,47.081665 40.9811279,46.47229 L4.22893066,25.2532959" id="Fill-82" fill="#8091A9"></path>
                        <path d="M34.2041748,47.2080078 L34.1946533,46.8242188 C34.1946533,46.6052246 34.0401123,46.338623 33.850415,46.2294922 L2.94660645,28.4616699 C2.75690918,28.3525391 2.60310059,28.4411621 2.60383301,28.6601563 L2.61335449,29.0439453 C2.61408691,29.2629395 2.76789551,29.5288086 2.95759277,29.6386719 L33.8614014,47.4064941 C34.0518311,47.515625 34.2041748,47.427002 34.2041748,47.2080078" id="Fill-84" fill="#00FFFF"></path>
                        <path d="M34.526001,52.6374512 L34.5164795,52.2529297 C34.5164795,52.0339355 34.3619385,51.7680664 34.1722412,51.6582031 L14.5440674,40.3774414 C14.3543701,40.2675781 14.2012939,40.3562012 14.2012939,40.5751953 L14.2108154,40.9597168 C14.2115479,41.1779785 14.3653564,41.4445801 14.5550537,41.5537109 L34.1832275,52.8359375 C34.3736572,52.9450684 34.526001,52.8564453 34.526001,52.6374512" id="Fill-86" fill="#FFFFFF"></path>
                        <path d="M12.5179688,39.8837891 L12.5084473,39.5 C12.5077148,39.2810059 12.3539063,39.0144043 12.164209,38.904541 L2.71523438,33.4956055 C2.52480469,33.3864746 2.37172852,33.4750977 2.37246094,33.6940918 L2.38198242,34.0786133 C2.38198242,34.2976074 2.53652344,34.5634766 2.7262207,34.6733398 L12.1751953,40.0822754 C12.3648926,40.1914063 12.5179688,40.1027832 12.5179688,39.8837891" id="Fill-88" fill="#FFFFFF"></path>
                    </g>
                    <g id="Data" transform="translate(42.000000, 30.000000) scale(-1, 1) translate(-42.000000, -30.000000) ">
                        <path d="M42.9492187,58.4517822 L42.8979492,49.7813721 C42.8950195,48.5633545 42.0366211,47.081665 40.9804687,46.47229 L2.10644531,24.0279541 C1.05029297,23.4185791 0.197021484,23.9122314 0.199951172,25.130249 L0.251220703,33.8006592 C0.254882813,35.0186768 1.11254883,36.5003662 2.16870117,37.1097412 L41.0427246,59.5540771 C42.098877,60.1634521 42.9521484,59.6697998 42.9492187,58.4517822" id="Fill-76" fill="#1D5084"></path>
                        <path d="M37.1345215,52.7591064 C37.6538086,52.4588135 38.4990234,52.9495361 39.0219727,53.8548096 C39.5449219,54.760083 39.5471191,55.7378662 39.027832,56.0381592 C38.5078125,56.3384521 37.6625977,55.8477295 37.1396484,54.9417236 C36.6166992,54.0364502 36.614502,53.058667 37.1345215,52.7591064" id="Fill-78" fill="#FFFFFF"></path>
                        <path d="M37.2700928,47.7765869 C37.6839111,47.5378174 38.3826416,47.972876 38.8301514,48.7477783 C39.2783936,49.5241455 39.3054932,50.3466553 38.8916748,50.5854248 C38.4778564,50.8241943 37.779126,50.3891357 37.3316162,49.613501 C36.8841064,48.8378662 36.8562744,48.0153564 37.2700928,47.7765869 M37.1397217,49.7240967 C37.6626709,50.6301025 38.5078857,51.1200928 39.0279053,50.8205322 C39.5471924,50.5202393 39.5449951,49.5431885 39.0220459,48.637915 C38.4990967,47.7319092 37.6538818,47.2411865 37.1345947,47.5414795 C36.6145752,47.8417725 36.6167725,48.8188232 37.1397217,49.7240967" id="Fill-80" fill="#00FFFF"></path>
                        <path d="M2.10637207,24.0279541 C1.59221191,23.7313232 1.12785645,23.6976318 0.785083008,23.8800049 L0.78215332,23.87854 L41.5597412,0.335571289 L41.5612061,0.337768555 C41.9039795,0.153930664 42.3697998,0.18762207 42.88396,0.48425293 L81.7587158,22.9293213 C82.8141357,23.5386963 83.6725342,25.0196533 83.6754639,26.2384033 L83.7267334,34.9088135 C83.7281982,35.5328369 83.5040771,35.9656982 83.1437256,36.1583252 L83.1451904,36.15979 L42.3676025,59.7034912 L42.3676025,59.7005615 C42.7272217,59.5072021 42.9506104,59.0758057 42.9491455,58.4517822 L42.897876,49.7813721 C42.8949463,48.5633545 42.0365479,47.081665 40.9811279,46.47229 L4.22893066,25.2532959" id="Fill-82" fill="#8091A9"></path>
                        <path d="M34.2041748,47.2080078 L34.1946533,46.8242188 C34.1946533,46.6052246 34.0401123,46.338623 33.850415,46.2294922 L2.94660645,28.4616699 C2.75690918,28.3525391 2.60310059,28.4411621 2.60383301,28.6601563 L2.61335449,29.0439453 C2.61408691,29.2629395 2.76789551,29.5288086 2.95759277,29.6386719 L33.8614014,47.4064941 C34.0518311,47.515625 34.2041748,47.427002 34.2041748,47.2080078" id="Fill-84" fill="#00FFFF"></path>
                        <path d="M34.526001,52.6374512 L34.5164795,52.2529297 C34.5164795,52.0339355 34.3619385,51.7680664 34.1722412,51.6582031 L14.5440674,40.3774414 C14.3543701,40.2675781 14.2012939,40.3562012 14.2012939,40.5751953 L14.2108154,40.9597168 C14.2115479,41.1779785 14.3653564,41.4445801 14.5550537,41.5537109 L34.1832275,52.8359375 C34.3736572,52.9450684 34.526001,52.8564453 34.526001,52.6374512" id="Fill-86" fill="#FFFFFF"></path>
                        <path d="M12.5179688,39.8837891 L12.5084473,39.5 C12.5077148,39.2810059 12.3539063,39.0144043 12.164209,38.904541 L2.71523438,33.4956055 C2.52480469,33.3864746 2.37172852,33.4750977 2.37246094,33.6940918 L2.38198242,34.0786133 C2.38198242,34.2976074 2.53652344,34.5634766 2.7262207,34.6733398 L12.1751953,40.0822754 C12.3648926,40.1914063 12.5179688,40.1027832 12.5179688,39.8837891" id="Fill-88" fill="#FFFFFF"></path>
                    </g>
                </g>
                <g id="Engineer-Blockchain" transform="translate(711.000000, 442.500000) scale(-1, 1) translate(-711.000000, -442.500000) translate(663.000000, 342.000000)">
                    <g id="Man">
                        <g id="Group-3" transform="translate(13.622291, 178.014241)">
                            <mask id="mask-10" fill="white">
                                <use xlink:href="#path-9"></use>
                            </mask>
                            <g id="Clip-2"></g>
                            <path d="M0.852569659,0.127739938 C0.852569659,0.127739938 -2.09975232,22.6905882 5.49157895,21.6360991 C13.0829102,20.5816099 7.81108359,0.127739938 7.81108359,0.127739938 L0.852569659,0.127739938 Z" id="Fill-1" fill="#4748FF" mask="url(#mask-10)"></path>
                        </g>
                        <path d="M37.7560372,167.176347 C37.7560372,167.176347 35.7721362,173.502663 39.7789474,175.822167 C43.7851393,178.141672 52.4309598,179.196161 57.4916409,181.937337 C57.4916409,181.937337 62.7628483,178.352817 57.4916409,175.400495 C52.2198142,172.448793 45.4718266,167.176347 45.4718266,167.176347 L37.7560372,167.176347 Z" id="Fill-4" fill="#4748FF"></path>
                        <path d="M13.1040248,82.1990712 C13.1040248,82.1990712 12.7882353,93.7959752 14.8965944,98.0133127 C17.0049536,102.23065 14.8965944,141.873375 14.8965944,141.873375 L13.0873065,178.774923 C13.0873065,178.774923 17.2167183,182.360062 23.120743,179.618885 C23.120743,179.618885 27.1263158,138.921053 27.1263158,137.656037 C27.1263158,136.391022 29.6569659,103.706811 29.0241486,96.9588235 C29.0241486,96.9588235 32.6092879,98.4349845 35.1399381,97.3811146 L41.3114551,121.841176 C41.3114551,121.841176 37.2482972,163.803406 37.2482972,166.755728 C37.2482972,166.755728 39.7789474,169.70743 47.3696594,167.388545 C47.3696594,167.388545 52.2198142,125.847988 52.2198142,121.63065 C52.2198142,117.413313 47.580805,86.652322 47.580805,86.652322 C47.580805,86.652322 22.0662539,73.9749226 13.1040248,82.1990712" id="Fill-6" fill="#3A485A"></path>
                        <g id="Group-10" transform="translate(56.346749, 56.032817)">
                            <mask id="mask-12" fill="white">
                                <use xlink:href="#path-11"></use>
                            </mask>
                            <g id="Clip-9"></g>
                            <path d="M0.169907121,11.5655728 C0.169907121,11.5655728 2.4101548,13.9358514 3.04297214,24.0578328 C3.67578947,34.179195 11.4776471,30.6993189 10.5284211,26.166192 C9.57981424,21.6324458 6.15442724,23.4250155 5.38910217,24.690031 C4.62439628,25.9556656 13.3098452,27.8101548 7.96557276,8.53708978 C2.62068111,-10.735356 1.51479876,10.6714551 0.169907121,11.5655728" id="Fill-8" fill="#FEC2BE" mask="url(#mask-12)"></path>
                        </g>
                        <path d="M29.4117028,32.0243344 C29.4117028,32.0243344 16.5832198,32.2237152 10.2575232,42.9778947 C10.2575232,42.9778947 2.66619195,63.2212384 0.768359133,64.4862539 C0.768359133,64.4862539 6.77826625,61.9556037 12.155356,64.4862539 C12.155356,64.4862539 13.1039628,82.1989474 13.4203715,83.7803715 C13.7367802,85.3624149 13.1039628,82.1989474 13.1039628,82.1989474 C13.1039628,82.1989474 21.6445201,78.3401238 33.9801238,84.2237152 C46.3157276,90.1066873 45.9993189,90.1066873 50.7442105,87.8924458 C50.7442105,87.8924458 46.8829102,87.7549845 48.9714551,69.4782043 C48.9714551,69.4782043 52.5157276,57.5277399 50.7442105,48.0385759 C50.7442105,48.0385759 55.9770279,58.7927554 55.7324458,67.9655108 C55.7324458,67.9655108 65.6098452,63.2212384 66.8748607,64.4862539 C66.8748607,64.4862539 62.5863158,32.8274303 52.3175851,30.1537461 L40.4643344,30.1537461 L32.9256347,30.9580805 L29.4117028,32.0243344 Z" id="Fill-11" fill="#FFFFFF"></path>
                        <path d="M32.9258204,23.3670588 L32.9258204,30.9583901 C32.9258204,30.9583901 25.0180805,31.5905882 31.3443963,35.7026625 C31.3443963,35.7026625 45.0570898,39.8766563 42.0490402,32.8878019 L42.0490402,27.4791331 L32.9258204,23.3670588 Z" id="Fill-13" fill="#F5AEAD"></path>
                        <path d="M53.5908978,10.083096 C53.5908978,10.083096 54.0769659,11.400743 55.7326935,5.02365325 C55.7326935,5.02365325 21.5878019,-13.4506502 29.5766563,20.457709 L34.8237152,21.6050774 L39.0404334,25.899195 C39.0404334,25.899195 44.7345511,21.0490402 45.3667492,20.4162229 C45.9995666,19.7840248 53.5908978,10.083096 53.5908978,10.083096" id="Fill-15" fill="#B698FF"></path>
                        <path d="M53.5908978,10.083096 C53.5908978,10.083096 47.9512693,13.035418 40.9388854,12.6131269 C40.9388854,12.6131269 38.8299071,15.9877399 39.2515789,19.7834056 L36.721548,21.8917647 C36.721548,21.8917647 36.4051393,15.1431579 29.4466254,18.3060062 C29.4466254,18.3060062 28.813808,23.0508978 32.9258824,23.3673065 C32.9258824,23.3673065 36.9735604,36.651517 48.8670588,32.2236533 C60.7605573,27.7951703 53.5908978,10.083096 53.5908978,10.083096" id="Fill-17" fill="#FEC2BE"></path>
                        <path d="M0.768482972,64.48613 C0.768482972,64.48613 -3.02656347,73.9752941 6.25083591,72.7102786 C6.25083591,72.7102786 20.8013003,71.044644 31.9765325,72.8260681 C43.1530031,74.6081115 41.9059443,65.3982043 40.2031579,64.4149226 L38.4997523,63.4316409 C38.4997523,63.4316409 35.0341176,63.4322601 33.8217337,65.5406192 C33.8217337,65.5406192 17.4266873,67.438452 12.1554799,64.48613 C12.1554799,64.48613 8.14866873,59.2143034 0.768482972,64.48613" id="Fill-19" fill="#FEC2BE"></path>
                    </g>
                    <g id="Laptop" transform="translate(44.800000, 51.600000)">
                        <path d="M29.3748994,17.6607723 C28.4144811,16.8540145 26.6920354,16.6133065 25.5473854,17.1257763 L1.05406275,28.0915044 C-0.0905872888,28.6039743 -0.240707965,29.6823331 0.720675784,30.4879646 L11.6661303,39.6599678 C12.6275141,40.4654385 14.3489944,40.7013194 15.4915527,40.1838616 L39.8567981,29.1510378 C40.9991955,28.63358 41.1483508,27.5502333 40.1879324,26.7434755 L29.3748994,17.6607723 Z" id="Fill-76" fill="#B1BAC9"></path>
                        <mask id="mask-14" fill="white">
                            <use xlink:href="#path-13"></use>
                        </mask>
                        <g id="Clip-79"></g>
                        <path d="M15.9548994,17.1836364 C16.0886082,15.9364924 17.1346259,14.4970716 18.2795977,13.9850845 L49.0815286,0.207288817 C50.2265004,-0.304698311 51.0530491,0.296427997 50.918214,1.5434111 L48.558922,23.3627192 C48.4240869,24.6097023 47.3748512,26.044457 46.2277876,26.5512953 L15.4842639,40.1290909 C14.3368785,40.6357683 13.5075945,40.0299759 13.6411424,38.7828319 L15.9548994,17.1836364 Z" id="Fill-78" fill="#39475B" mask="url(#mask-14)"></path>
                    </g>
                </g>
            </g>
        </g>
    </g>
</svg>