<?xml version="1.0" encoding="UTF-8"?>
<svg width="798px" height="585px" viewBox="0 0 798 585" version="1.1" xmlns="http://www.w3.org/2000/svg" xmlns:xlink="http://www.w3.org/1999/xlink">
    <!-- Generator: Sketch 52.4 (67378) - http://www.bohemiancoding.com/sketch -->
    <title>3</title>
    <desc>Created with Sketch.</desc>
    <defs>
        <linearGradient x1="-8.45508416%" y1="13.3632597%" x2="86.9243443%" y2="86.6902053%" id="linearGradient-1">
            <stop stop-color="#19FFF3" offset="0%"></stop>
            <stop stop-color="#00A4FF" offset="100%"></stop>
            <stop stop-color="#00A4FF" offset="100%"></stop>
        </linearGradient>
        <linearGradient x1="100%" y1="-4.65755143%" x2="11.908303%" y2="95.5619669%" id="linearGradient-2">
            <stop stop-color="#19FFF3" offset="0%"></stop>
            <stop stop-color="#00A4FF" offset="100%"></stop>
        </linearGradient>
        <polygon id="path-3" points="0 0.343431494 127.102572 0.343431494 127.102572 130.915781 0 130.915781"></polygon>
        <polygon id="path-5" points="0 0.353345505 127.1027 0.353345505 127.1027 73.3060583 0 73.3060583"></polygon>
        <filter x="-23.6%" y="-41.1%" width="147.2%" height="182.2%" filterUnits="objectBoundingBox" id="filter-7">
            <feGaussianBlur stdDeviation="10" in="SourceGraphic"></feGaussianBlur>
        </filter>
        <polygon id="path-8" points="0 0.343431494 127.102572 0.343431494 127.102572 130.915781 0 130.915781"></polygon>
        <polygon id="path-10" points="0 0 127.1027 0 127.1027 72.9527128 0 72.9527128"></polygon>
        <filter x="-30.3%" y="-52.7%" width="160.5%" height="205.4%" filterUnits="objectBoundingBox" id="filter-12">
            <feGaussianBlur stdDeviation="4" in="SourceGraphic"></feGaussianBlur>
        </filter>
        <polygon id="path-13" points="8.53721297e-05 0.355959095 128.058195 0.355959095 128.058195 73.8570942 8.53721297e-05 73.8570942"></polygon>
        <path d="M24.503237,0.621811646 L1.05504255,14.159421 C0.122775799,14.6975793 -0.18443413,15.4564094 0.124939249,16.1411414 L0.123136374,16.1413217 L0.13359305,16.1615139 C0.148917489,16.1943262 0.166225091,16.2269583 0.184614417,16.2597706 L24.5221672,63.0003911 C24.5436214,62.9982277 25.2645912,64.8011028 27.0674664,64.8011028 C28.214095,64.8011028 29.0001486,63.9012878 29.3637885,63.3710623 L29.3430554,63.4319994 L29.4115647,63.2998487 C29.5310953,63.1182992 29.5932945,62.9942613 29.5938354,62.9929993 L30.7227958,60.7788883 L53.9376982,16.1413217 L53.9373376,16.1413217 C54.3072876,15.4356763 54.0087315,14.6395267 53.0402269,14.0837003 L29.5749052,0.614239571 C28.8766516,0.21346042 27.9627742,0.0131609887 27.0479953,0.0131609887 C26.1270867,0.0133412763 25.2054569,0.216164733 24.503237,0.621811646 Z" id="path-15"></path>
        <filter x="-55.5%" y="-96.4%" width="210.9%" height="292.7%" filterUnits="objectBoundingBox" id="filter-17">
            <feGaussianBlur stdDeviation="10" in="SourceGraphic"></feGaussianBlur>
        </filter>
        <filter x="-55.5%" y="-96.4%" width="210.9%" height="292.7%" filterUnits="objectBoundingBox" id="filter-18">
            <feGaussianBlur stdDeviation="10" in="SourceGraphic"></feGaussianBlur>
        </filter>
        <path d="M24.5221672,1.84416101 L0.184614417,48.5847815 C0.166225091,48.6174136 0.148917489,48.6500456 0.13359305,48.6832185 L0.123136374,48.7030502 L0.124939249,48.7032304 C-0.18443413,49.3879624 0.122775799,50.1469729 1.05504255,50.6849508 L24.503237,64.2229208 C25.9031696,65.0309694 28.1738909,65.0343949 29.5749052,64.2301323 L53.0402269,50.7608519 C54.0087315,50.2048452 54.3072876,49.4086955 53.9373376,48.7030502 L53.9376982,48.7030502 L30.7227958,4.06548351 L29.5938354,1.8515528 C29.5932945,1.8501105 29.5310953,1.72625298 29.4115647,1.54452316 L29.3430554,1.4125527 L29.3637885,1.47330959 C29.0001486,0.943264289 28.214095,0.0432690041 27.0674664,0.0432690041 C25.2645912,0.0432690041 24.5436214,1.84614417 24.5221672,1.84416101 Z" id="path-19"></path>
        <polygon id="path-21" points="0 0.206058896 76.2615435 0.206058896 76.2615435 78.5494683 0 78.5494683"></polygon>
        <polygon id="path-23" points="5.07568099e-05 0.211630519 76.1352149 0.211630519 76.1352149 43.910706 5.07568099e-05 43.910706"></polygon>
        <path d="M1.47118614,0.127145809 C1.03467757,0.389304732 0.62354741,0.665421778 0.237541871,0.953466675 L0.237541871,37.4001554 C4.11409323,39.0997472 8.95705425,40.1098077 14.2119068,40.1098077 C19.4667593,40.1098077 24.3097203,39.0997472 28.1862717,37.4001554 L28.1862717,0.953466675 C27.8005199,0.665421778 27.389136,0.389304732 26.9523736,0.127145809 L1.47118614,0.127145809 Z" id="path-25"></path>
        <polygon id="path-27" points="0 0.308250073 101.640512 0.308250073 101.640512 95.1848771 0 95.1848771"></polygon>
        <polygon id="path-29" points="5.64281272e-05 0.130594978 101.640553 0.130594978 101.640553 58.6431763 5.64281272e-05 58.6431763"></polygon>
        <path d="M36.7147255,1.03607319 L1.75367993,21.1043392 C-0.333755446,22.3020854 -0.334731339,24.2496428 1.75075225,25.4542202 L36.6864246,45.6239791 C38.7722335,46.8282312 42.1553297,46.8331107 44.242765,45.6353645 L79.2034853,25.5670985 C81.2909207,24.369027 81.2922219,22.4214696 79.206413,21.2172175 L44.2710659,1.04713331 C43.2245832,0.443055475 41.8518269,0.140528609 40.4797212,0.140528609 C39.1170491,0.140853906 37.7547023,0.439151902 36.7147255,1.03607319 Z" id="path-31"></path>
        <filter x="-31.3%" y="-54.3%" width="162.5%" height="208.6%" filterUnits="objectBoundingBox" id="filter-33">
            <feGaussianBlur stdDeviation="4.13504464" in="SourceGraphic"></feGaussianBlur>
        </filter>
        <polygon id="path-34" points="2.54205399e-05 0.0186358096 63.4347966 0.0186358096 63.4347966 68.3812524 2.54205399e-05 68.3812524"></polygon>
        <path d="M3.50501535,17.8230051 C1.71644555,18.8602977 0.266412477,21.3771633 0.266412477,23.4447682 L0.266412477,58.0702387 C0.266412477,60.1375644 1.71644555,60.9724244 3.50501535,59.9348525 L33.4625812,42.559433 C35.251151,41.5221403 36.7014636,39.0052747 36.7014636,36.9376698 L36.7014636,2.31219929 C36.7014636,0.847704026 35.9735118,0.0016753044 34.9131733,0.0016753044 C34.4767936,0.0016753044 33.9842241,0.144913831 33.4625812,0.447306275 L3.50501535,17.8230051 Z" id="path-36"></path>
        <path d="M33.4625812,0.447306275 L3.50501535,17.8230051 C1.71644555,18.8602977 0.266412477,21.3771633 0.266412477,23.4447682 L0.266412477,58.0702387 C0.266412477,60.1375644 1.71644555,60.9724244 3.50501535,59.9348525 L33.4625812,42.559433 C35.251151,41.5221403 36.7014636,39.0052747 36.7014636,36.9376698 L36.7014636,2.31219929 C36.7014636,0.847704026 35.9735118,0.0016753044 34.9131733,0.0016753044 C34.4767936,0.0016753044 33.9842241,0.144913831 33.4625812,0.447306275 Z" id="path-38"></path>
        <filter x="-76.5%" y="-46.2%" width="253.0%" height="192.3%" filterUnits="objectBoundingBox" id="filter-40">
            <feGaussianBlur stdDeviation="6" in="SourceGraphic"></feGaussianBlur>
        </filter>
        <polygon id="path-41" points="0 0.23863475 92.6884818 0.23863475 92.6884818 148.976187 0 148.976187"></polygon>
        <polygon id="path-43" points="0 0.200316046 92.6883867 0.200316046 92.6883867 53.6950667 0 53.6950667"></polygon>
        <polygon id="path-45" points="0.000232344414 -0.0001271027 32.6131033 -0.0001271027 32.6131033 14.4640504 0.000232344414 14.4640504"></polygon>
    </defs>
    <g id="Blockchain-Platform-Isometric" stroke="none" stroke-width="1" fill="none" fill-rule="evenodd">
        <g id="Blockchain-Platform-3" transform="translate(-202.000000, -158.000000)">
            <g id="3" transform="translate(200.000000, 158.000000)">
                <g id="Group" opacity="0.0599999987" transform="translate(9.256198, 35.702479)">
                    <path d="M0.377589183,59.8895674 C7.29359544,26.4503925 172.009036,-5.07048331 214.348062,8.18436813 C256.687088,21.4392196 211.910895,52.9801758 239.695575,69.530351 C267.480254,86.0805262 367.757153,65.7103253 388.490232,74.9735197 C409.22331,84.2367141 390.951917,136.912857 305.337248,178.55555 C261.791898,196.377432 221.731483,186.635304 185.156005,149.329166 C130.292787,93.3699589 -6.53841708,93.3287423 0.377589183,59.8895674 Z" id="Path" fill="#B1BAC9"></path>
                    <path d="M0.377589183,54.8681217 C7.29359544,21.4289468 172.009036,-10.0919291 214.348062,3.16292238 C256.687088,16.4177738 211.910895,47.95873 239.695575,64.5089052 C267.480254,81.0590804 367.757153,60.6888796 388.490232,69.952074 C409.22331,79.2152683 390.951917,131.891411 305.337248,173.534104 C261.791898,191.355987 221.731483,181.613859 185.156005,144.30772 C130.292787,88.3485132 -6.53841708,88.3072966 0.377589183,54.8681217 Z" id="Path" fill="#FFFFFF"></path>
                </g>
                <g id="Group" opacity="0.0599999987" transform="translate(591.074380, 359.669421) scale(-1, 1) translate(-591.074380, -359.669421) translate(382.148760, 260.495868)">
                    <path d="M0.397727273,63.0836777 C7.6825872,27.8610801 181.182851,-5.34090909 225.779959,8.62086777 C270.377066,22.5826446 223.21281,55.8057851 252.479339,73.2386364 C281.745868,90.6714876 387.370868,69.214876 409.209711,78.9721074 C431.048554,88.7293388 411.802686,144.214876 321.621901,188.078512 C275.754132,206.850895 233.557163,196.589187 195.030992,157.293388 C137.241736,98.3496901 -6.88713266,98.3062753 0.397727273,63.0836777 Z" id="Path" fill="#B1BAC9"></path>
                    <path d="M0.397727273,57.7944215 C7.6825872,22.5718239 181.182851,-10.6301653 225.779959,3.33161157 C270.377066,17.2933884 223.21281,50.5165289 252.479339,67.9493802 C281.745868,85.3822314 387.370868,63.9256198 409.209711,73.6828512 C431.048554,83.4400826 411.802686,138.92562 321.621901,182.789256 C275.754132,201.561639 233.557163,191.299931 195.030992,152.004132 C137.241736,93.0604339 -6.88713266,93.0170191 0.397727273,57.7944215 Z" id="Path" fill="#FFFFFF"></path>
                </g>
                <g id="Line" transform="translate(5.289256, 11.900826)" opacity="0.100000001" stroke="url(#linearGradient-1)" stroke-linecap="round" stroke-linejoin="round" stroke-width="4">
                    <path d="M188.267045,294.012194 L246.934379,325.159097 C248.148035,325.803436 249.607469,325.779717 250.799546,325.09628 L359.468948,262.794351 C360.705765,262.085264 362.226506,262.088065 363.460703,262.801705 L417.210744,293.881161" id="Path-11"></path>
                    <path d="M293.16374,482.725831 L255.0502,460.63507 C253.138897,459.527271 252.487528,457.079806 253.595327,455.168503 C253.945775,454.56387 254.448519,454.061603 255.053484,453.711729 L452.174587,339.709302" id="Path-15"></path>
                    <path d="M469.584194,356.452587 L558.062351,407.327212 C559.302695,408.040405 560.829516,408.036795 562.066474,407.317745 L642.518446,360.550609 C643.761924,359.827769 645.297749,359.828188 646.540832,360.551708 L704.770145,394.44329" id="Path-16"></path>
                    <path d="M488.254132,318.172629 L636.746462,232.039536 C638.657394,230.931098 639.307944,228.483415 638.199507,226.572483 C637.842836,225.957588 637.328746,225.448849 636.710153,225.098631 L564.683354,184.320494 C562.76093,183.23211 562.084808,180.791367 563.173192,178.868943 C563.520349,178.255757 564.023325,177.745158 564.63122,177.388817 L642.784091,131.576554" id="Path-17"></path>
                    <path d="M156.570248,241.01612 L114.736057,216.393258 C112.832213,215.272689 112.197243,212.820919 113.317812,210.917075 C113.666146,210.325256 114.160978,209.833083 114.754666,209.487944 L473.383359,0.999813941 C474.624219,0.278442632 476.156459,0.277203501 477.398483,0.996566887 L605.75155,75.3368849" id="Path-18"></path>
                    <path d="M138.33936,292.44174 L0.732545308,373.001368 C-1.17391745,374.117475 -1.81462738,376.567752 -0.698520372,378.474215 C-0.344655922,379.078663 0.161721231,379.579599 0.769957726,379.926912 L246.529601,520.259861 C247.747271,520.955171 249.240118,520.962107 250.464196,520.278141 L296.399793,494.611162" id="Path-19"></path>
                    <path d="M325.637913,501.117585 L444.379638,569.92503 C445.61405,570.640336 447.136007,570.64402 448.373867,569.934698 L690.429163,431.231455" id="Path-20"></path>
                </g>
                <g id="Light-Effect" transform="translate(0.000000, 10.014355)" stroke="url(#linearGradient-2)" stroke-linecap="round" stroke-linejoin="round" stroke-width="4">
                    <path d="M385.839512,534.744784 L449.45598,571.292361 C450.691286,572.002043 452.210822,572.001134 453.44528,571.289976 L516.881899,534.744784" id="Path-21"></path>
                    <path d="M66.2398698,415.375098 L7.07531328,381.418667 C5.15931309,380.319014 4.49753355,377.874343 5.59718731,375.958343 C5.93183663,375.375261 6.40805209,374.885932 6.98183047,374.535571 L66.2398698,338.351358" id="Path-22"></path>
                    <path d="M220.612087,308.517719 L252.278954,326.535082 C253.523681,327.24329 255.052051,327.232021 256.2862,326.505536 L286.843817,308.517719" id="Path-23"></path>
                    <path d="M414.250223,39.3372925 L477.796461,1.65834893 C479.055939,0.911557458 480.622803,0.912613526 481.881273,1.6611021 L545.228065,39.3372925" id="Path-24"></path>
                    <path d="M532.833226,390.119882 L563.147604,408.078184 C564.401309,408.820882 565.959711,408.823048 567.215477,408.083839 L597.73256,390.119882" id="Path-23"></path>
                    <path d="M614.837019,210.400445 L642.032428,225.852105 C643.953187,226.943425 644.625579,229.385198 643.534258,231.305957 C643.188231,231.914975 642.688345,232.422452 642.08461,232.777617 L614.837019,248.806809" id="Path-25"></path>
                </g>
                <g id="Element" transform="translate(117.088345, 0.000000)">
                    <g id="1" transform="translate(279.625939, 64.822377)">
                        <g id="Page-1" transform="translate(0.000000, 165.233509)">
                            <g id="Group-3" transform="translate(0.000000, 14.475303)">
                                <mask id="mask-4" fill="white">
                                    <use xlink:href="#path-3"></use>
                                </mask>
                                <g id="Clip-2"></g>
                                <path d="M125.747234,21.6725355 C119.707737,5.13605062 94.1575527,0.343431494 63.5512227,0.343431494 C32.9453163,0.343431494 7.39513163,5.13605062 1.35563503,21.6725355 L-0.0001271027,21.6725355 L-0.0001271027,94.4396783 C-0.0001271027,114.585033 28.4530832,130.916035 63.5512227,130.916035 C98.6497858,130.916035 127.102572,114.585033 127.102572,94.4396783 L127.102572,21.6725355 L125.747234,21.6725355 Z" id="Fill-1" fill="#5B97F2" mask="url(#mask-4)"></path>
                            </g>
                            <g id="Group-6" transform="translate(0.000000, 0.070330)">
                                <mask id="mask-6" fill="white">
                                    <use xlink:href="#path-5"></use>
                                </mask>
                                <g id="Clip-5"></g>
                                <path d="M127.1027,36.8297019 C127.1027,56.9750561 98.6499129,73.3060583 63.5513498,73.3060583 C28.4527866,73.3060583 0,56.9750561 0,36.8297019 C0,16.6843477 28.4527866,0.353345505 63.5513498,0.353345505 C98.6499129,0.353345505 127.1027,16.6843477 127.1027,36.8297019" id="Fill-4" fill="#E6E6E6" mask="url(#mask-6)"></path>
                            </g>
                            <path d="M127.1027,36.9000321 C127.1027,57.0453863 98.6499129,73.3763884 63.5513498,73.3763884 C28.4527866,73.3763884 0,57.0453863 0,36.9000321 C0,16.7546779 28.4527866,0.423675665 63.5513498,0.423675665 C98.6499129,0.423675665 127.1027,16.7546779 127.1027,36.9000321" id="Effect" fill="#B8E986" filter="url(#filter-7)"></path>
                        </g>
                        <g id="Page-1" transform="translate(0.000000, 88.971890)">
                            <g id="Group-3" transform="translate(0.000000, 14.475303)">
                                <mask id="mask-9" fill="white">
                                    <use xlink:href="#path-8"></use>
                                </mask>
                                <g id="Clip-2"></g>
                                <path d="M125.747234,21.6725355 C119.707737,5.13605062 94.1575527,0.343431494 63.5512227,0.343431494 C32.9453163,0.343431494 7.39513163,5.13605062 1.35563503,21.6725355 L-0.0001271027,21.6725355 L-0.0001271027,94.4396783 C-0.0001271027,114.585033 28.4530832,130.916035 63.5512227,130.916035 C98.6497858,130.916035 127.102572,114.585033 127.102572,94.4396783 L127.102572,21.6725355 L125.747234,21.6725355 Z" id="Fill-1" fill="#5B97F2" mask="url(#mask-9)"></path>
                            </g>
                            <g id="Group-6">
                                <mask id="mask-11" fill="white">
                                    <use xlink:href="#path-10"></use>
                                </mask>
                                <g id="Clip-5"></g>
                                <path d="M63.4710744,66.4052893 C52.5166281,66.4052893 43.6363636,61.3082975 43.6363636,55.0208264 C43.6363636,48.7333554 52.5166281,43.6363636 63.4710744,43.6363636 C74.4255207,43.6363636 83.3057851,48.7333554 83.3057851,55.0208264 C83.3057851,61.3082975 74.4255207,66.4052893 63.4710744,66.4052893 Z" id="Fill-4" fill="#C8FF90" filter="url(#filter-12)" mask="url(#mask-11)"></path>
                            </g>
                            <g id="Group-9">
                                <mask id="mask-14" fill="white">
                                    <use xlink:href="#path-13"></use>
                                </mask>
                                <g id="Clip-8"></g>
                                <path d="M64.0291827,59.3536499 C42.6221211,59.3536499 25.2685283,49.3932835 25.2685283,37.1065266 C25.2685283,24.8197697 42.6221211,14.8594034 64.0291827,14.8594034 C85.4358173,14.8594034 102.789837,24.8197697 102.789837,37.1065266 C102.789837,49.3932835 85.4358173,59.3536499 64.0291827,59.3536499 M64.0291827,0.355959095 C28.6667659,0.355959095 8.53721297e-05,16.8097297 8.53721297e-05,37.1065266 C8.53721297e-05,57.4033236 28.6667659,73.8570942 64.0291827,73.8570942 C99.3911725,73.8570942 128.05828,57.4033236 128.05828,37.1065266 C128.05828,16.8097297 99.3911725,0.355959095 64.0291827,0.355959095" id="Fill-7" fill="#3267B8" mask="url(#mask-14)"></path>
                            </g>
                        </g>
                        <g id="ETH" transform="translate(36.859783, 0.000000)">
                            <g id="Group-4" transform="translate(0.000000, 62.078040)">
                                <mask id="mask-16" fill="white">
                                    <use xlink:href="#path-15"></use>
                                </mask>
                                <g id="Clip-2"></g>
                                <polygon id="Fill-1" fill="#546497" mask="url(#mask-16)" points="27.0497982 67.7881064 64.0154098 67.7881064 64.0154098 -7.11522715 27.0497982 -7.11522715"></polygon>
                                <polygon id="Fill-3" fill="#778ED7" mask="url(#mask-16)" points="-9.91599373 67.7881064 27.0496179 67.7881064 27.0496179 -7.11522715 -9.91599373 -7.11522715"></polygon>
                            </g>
                            <g id="Group-15" transform="translate(0.000000, 39.627737)">
                                <path d="M1.05792715,39.5295525 L24.5234292,52.9990132 C25.9244435,53.8030955 28.1949845,53.7998504 29.5950974,52.9916214 L53.0434721,39.4536515 C54.4434047,38.6454226 54.4425033,37.3381578 53.041489,36.5340754 L29.5761672,23.0646147 C28.1751529,22.2603521 25.9044316,22.2635973 24.5043187,23.0720065 L1.05612428,36.6097962 C-0.343988583,37.4182054 -0.343087145,38.7252899 1.05792715,39.5295525" id="Fill-5" fill="#FF9F00"></path>
                                <path d="M54.0929077,27.5876139 L50.2410649,27.5876139 L29.5950793,15.6677244 C28.1951468,14.8594955 25.9244255,14.85607 24.5232309,15.6603326 L3.74437341,27.5876139 L0.00665260938,27.5876139 L0.00665260938,30.6274417 L0.00989778469,30.6274417 C0.0264842363,31.1427034 0.373537707,31.6552609 1.05610625,32.0495497 L24.5043007,45.5873393 C25.9044136,46.3955682 28.1751349,46.3989937 29.5761491,45.5947311 L53.0414709,32.1252704 C53.7595561,31.7131331 54.1071504,31.1690254 54.0896626,30.6274417 L54.0929077,30.6274417 L54.0929077,27.5876139 Z" id="Fill-7" fill="#E6E6E6"></path>
                                <path d="M53.0415611,29.0854606 L29.5762393,42.554741 C28.1750447,43.3590036 25.9045037,43.3557585 24.5043909,42.5473492 L1.0560161,29.0095596 C-0.343916468,28.2013306 -0.34301503,26.8940658 1.05799927,26.0898032 L24.5233211,12.6205228 C25.9243353,11.8162602 28.1950566,11.8195054 29.5951695,12.6279146 L53.043364,26.1657043 C54.4434768,26.9741135 54.4425754,28.281198 53.0415611,29.0854606" id="Fill-9" fill="#464FFF"></path>
                                <path d="M53.0415611,27.8144336 L29.5762393,41.283714 C28.1750447,42.0879766 25.9045037,42.0847315 24.5043909,41.2763222 L1.0560161,27.7385326 C-0.343916468,26.9303036 -0.34301503,25.6230388 1.05799927,24.8187762 L24.5233211,11.3494958 C25.9243353,10.5452332 28.1950566,10.5484784 29.5951695,11.3568876 L53.043364,24.8946773 C54.4434768,25.7030865 54.4425754,27.010171 53.0415611,27.8144336" id="Fill-9" fill="#46FBFF" filter="url(#filter-17)"></path>
                                <path d="M54.0929077,16.2708763 L50.2410649,16.2708763 L29.5950793,4.35098682 C28.1951468,3.5425776 25.9244255,3.53933242 24.5232309,4.34359503 L3.74437341,16.2708763 L0.00665260938,16.2708763 L0.00665260938,19.3107041 L0.00989778469,19.3107041 C0.0264842363,19.8259659 0.373537707,20.3385233 1.05610625,20.7328121 L24.5043007,34.2706017 C25.9044136,35.0788307 28.1751349,35.0822561 29.5761491,34.2779935 L53.0414709,20.8085328 C53.7595561,20.3963956 54.1071504,19.8522878 54.0896626,19.3107041 L54.0929077,19.3107041 L54.0929077,16.2708763 Z" id="Fill-11" fill="#E6E6E6"></path>
                                <path d="M53.0415611,17.7686329 L29.5762393,31.2380936 C28.1750447,32.0423562 25.9045037,32.0389307 24.5043909,31.2307018 L1.0560161,17.6929121 C-0.343916468,16.8845029 -0.34301503,15.5774184 1.05799927,14.7731558 L24.5233211,1.30369509 C25.9243353,0.49943248 28.1950566,0.502677655 29.5951695,1.31108688 L53.043364,14.8490568 C54.4434768,15.6572858 54.4425754,16.9645506 53.0415611,17.7686329" id="Fill-13" fill="#3FD3B8"></path>
                                <path d="M53.0415611,17.1331194 L29.5762393,30.6025801 C28.1750447,31.4068427 25.9045037,31.4034172 24.5043909,30.5951883 L1.0560161,17.0573986 C-0.343916468,16.2489894 -0.34301503,14.9419049 1.05799927,14.1376423 L24.5233211,0.668181596 C25.9243353,-0.136081018 28.1950566,-0.132835843 29.5951695,0.675573384 L53.043364,14.2135433 C54.4434768,15.0217723 54.4425754,16.3290371 53.0415611,17.1331194" id="Fill-13" fill="#4DFFDE" opacity="0.600000024" filter="url(#filter-18)"></path>
                            </g>
                            <g id="Group-19" transform="translate(0.000000, 0.059134)">
                                <mask id="mask-20" fill="white">
                                    <use xlink:href="#path-19"></use>
                                </mask>
                                <g id="Clip-17"></g>
                                <polygon id="Fill-16" fill="#546497" mask="url(#mask-20)" points="27.0497982 71.9597793 64.0154098 71.9597793 64.0154098 -2.94355429 27.0497982 -2.94355429"></polygon>
                                <polygon id="Fill-18" fill="#778ED7" mask="url(#mask-20)" points="-9.91581344 71.9597793 27.0497982 71.9597793 27.0497982 -2.94355429 -9.91581344 -2.94355429"></polygon>
                            </g>
                        </g>
                    </g>
                    <g id="2" transform="translate(564.335986, 354.052374)">
                        <g id="Group-3" transform="translate(0.000000, 23.230636)">
                            <mask id="mask-22" fill="white">
                                <use xlink:href="#path-21"></use>
                            </mask>
                            <g id="Clip-2"></g>
                            <path d="M75.4483404,13.0035213 C71.8246424,3.08163037 56.4945316,0.206058896 38.1307336,0.206058896 C19.7671898,0.206058896 4.43707898,3.08163037 0.813381015,13.0035213 L-7.62616197e-05,13.0035213 L-7.62616197e-05,56.663807 C-7.62616197e-05,68.7510195 17.0718499,78.5496208 38.1307336,78.5496208 C59.1898715,78.5496208 76.2615435,68.7510195 76.2615435,56.663807 L76.2615435,13.0035213 L75.4483404,13.0035213 Z" id="Fill-1" fill="#8265FC" mask="url(#mask-22)"></path>
                        </g>
                        <g id="Group">
                            <g id="Group-9" transform="translate(0.000000, 12.715596)">
                                <mask id="mask-24" fill="white">
                                    <use xlink:href="#path-23"></use>
                                </mask>
                                <g id="Clip-8"></g>
                                <path d="M38.0676582,35.2878854 C25.3403881,35.2878854 15.0230514,29.3660884 15.0230514,22.0611683 C15.0230514,14.7562482 25.3403881,8.83445118 38.0676582,8.83445118 C50.7946745,8.83445118 61.1122651,14.7562482 61.1122651,22.0611683 C61.1122651,29.3660884 50.7946745,35.2878854 38.0676582,35.2878854 M38.0676582,0.211630519 C17.0434262,0.211630519 5.07568099e-05,9.9939905 5.07568099e-05,22.0611683 C5.07568099e-05,34.1283461 17.0434262,43.910706 38.0676582,43.910706 C59.0916365,43.910706 76.1352657,34.1283461 76.1352657,22.0611683 C76.1352657,9.9939905 59.0916365,0.211630519 38.0676582,0.211630519" id="Fill-7" fill="#5C41D1" mask="url(#mask-24)"></path>
                            </g>
                            <g id="Group-12" transform="translate(23.855701, 7.893699)">
                                <mask id="mask-26" fill="white">
                                    <use xlink:href="#path-25"></use>
                                </mask>
                                <g id="Clip-11"></g>
                                <path d="M1.47118614,0.127145809 C1.03467757,0.389304732 0.62354741,0.665421778 0.237541871,0.953466675 L0.237541871,37.4001554 C4.11409323,39.0997472 8.95705425,40.1098077 14.2119068,40.1098077 C19.4667593,40.1098077 24.3097203,39.0997472 28.1862717,37.4001554 L28.1862717,0.953466675 C27.8005199,0.665421778 27.389136,0.389304732 26.9523736,0.127145809 L1.47118614,0.127145809 Z" id="Fill-10" fill="#13B6AD" mask="url(#mask-26)"></path>
                            </g>
                            <path d="M52.0468339,8.02084489 C52.0468339,12.4506455 45.7892358,16.0416898 38.0701017,16.0416898 C30.3507137,16.0416898 24.0931157,12.4506455 24.0931157,8.02084489 C24.0931157,3.5910443 30.3507137,0 38.0701017,0 C45.7892358,0 52.0468339,3.5910443 52.0468339,8.02084489" id="Fill-13" fill="#00FFC3"></path>
                        </g>
                    </g>
                    <g id="3" transform="translate(0.000000, 217.345616)">
                        <g id="Group-3" transform="translate(0.000000, 20.010919)">
                            <mask id="mask-28" fill="white">
                                <use xlink:href="#path-27"></use>
                            </mask>
                            <g id="Clip-2"></g>
                            <path d="M101.640512,9.57027289 L94.4019119,15.282991 L55.6035083,1.45161841 C52.9727667,-0.0674415857 48.7053646,-0.0736139852 46.0726738,1.43764929 L7.02445048,15.282991 L-6.4972626e-05,9.57027289 L-6.4972626e-05,65.9288281 L0.00610742684,65.9288281 C0.0376191504,66.8969202 0.689619452,67.8601394 1.97217909,68.6008273 L46.0369389,94.0415088 C48.6680054,95.5605688 52.9350826,95.5667412 55.5680982,94.0554779 L99.6646946,68.7434423 C101.014176,67.9689686 101.667476,66.9462994 101.63434,65.9288281 L101.640512,65.9288281 L101.640512,9.57027289 Z" id="Fill-1" fill="#52008F" mask="url(#mask-28)"></path>
                        </g>
                        <g id="Group-6">
                            <mask id="mask-30" fill="white">
                                <use xlink:href="#path-29"></use>
                            </mask>
                            <g id="Clip-5"></g>
                            <path d="M99.6648571,32.201538 L55.5679358,57.5138984 C52.935245,59.0251617 48.6678429,59.0186645 46.0371013,57.4999293 L1.97234152,32.058923 C-0.658724968,30.5401879 -0.657100653,28.0835729 1.97559015,26.5723096 L46.0725114,1.25994916 C48.7055271,-0.251314117 52.9726043,-0.245141718 55.6036708,1.27391828 L99.6684305,26.7145997 C102.299172,28.2336597 102.297873,30.6902747 99.6648571,32.201538" id="Fill-4" fill="#9200FF" mask="url(#mask-30)"></path>
                        </g>
                        <g id="Group-10" transform="translate(10.578512, 6.611570)">
                            <mask id="mask-32" fill="white">
                                <use xlink:href="#path-31"></use>
                            </mask>
                            <g id="Clip-8"></g>
                            <polygon id="Fill-7" fill="#39475B" mask="url(#mask-32)" points="40.47842 58.4143596 83.665594 58.4143596 83.665594 -2.62124891 40.47842 -2.62124891"></polygon>
                            <polygon id="Fill-9" fill="#0D2155" mask="url(#mask-32)" points="-2.7084287 58.4143596 40.4787453 58.4143596 40.4787453 -2.62124891 -2.7084287 -2.62124891"></polygon>
                            <path d="M60.0553489,42.930257 L42.8446955,52.809456 C41.8171787,53.3992892 40.151648,53.3967534 39.1248919,52.804004 L21.9267909,42.8745956 C20.899908,42.2818462 20.900542,41.3230503 21.9280588,40.7332171 L39.1387121,30.8540181 C40.1663558,30.2641848 41.8317597,30.2665939 42.8586426,30.8594701 L60.0567436,40.7887517 C61.0834997,41.3816279 61.0829925,42.3404238 60.0553489,42.930257" id="Fill-4" fill="#8DFFE6" filter="url(#filter-33)" mask="url(#mask-32)"></path>
                        </g>
                    </g>
                    <g id="4" transform="translate(175.401725, 448.672529)">
                        <g id="Group-3" transform="translate(0.000000, 7.480756)">
                            <mask id="mask-35" fill="white">
                                <use xlink:href="#path-34"></use>
                            </mask>
                            <g id="Clip-2"></g>
                            <path d="M2.54205399e-05,20.8989503 L22.1284783,16.9647405 L43.6268831,2.09423305 C49.7487846,-1.58221253 40.7007248,0.0455917383 46.8270749,3.70335323 L41.5173596,9.84889585 L63.434822,2.06512653 L63.434822,40.0015964 L63.4205865,40.0015964 C63.3476296,42.3447346 61.8304046,44.6766879 58.845779,46.468963 L26.7747175,65.6140613 C20.6526889,69.2905069 10.7235531,69.3055051 4.59720296,65.6477436 L4.59707586,65.6477436 C1.45763918,63.773233 -0.0623820049,61.2981621 0.0142609229,58.8354202 L2.54205399e-05,58.8354202 L2.54205399e-05,20.8989503 Z" id="Fill-1" fill="#5B97F2" mask="url(#mask-35)"></path>
                        </g>
                        <path d="M26.7745501,35.158353 L58.8457388,16.0133818 C64.9676403,12.3369362 64.9639544,6.39132614 58.8376042,2.73356466 C52.7112541,-0.924323933 42.7819912,-0.909198712 36.6600897,2.76724687 L4.58902815,21.9122181 C-1.53287337,25.5886637 -1.5291874,31.5341467 4.59716272,35.1920352 C10.7235128,38.8497967 20.6526486,38.8347986 26.7745501,35.158353 Z" id="Fill-4" fill="#3C71C1"></path>
                    </g>
                    <g id="5" transform="translate(469.880841, 31.467953)">
                        <g id="Group-5">
                            <path d="M132.629908,51.0227389 L125.241002,53.9569955 L118.840366,88.7965438 C118.840366,91.4087138 117.004768,94.5890748 114.740462,95.9000483 L87.5584227,119.026035 L88.7963516,126.713095 L1.14549056,76.2622622 L1.14801237,76.2575133 C0.438542913,75.8181011 2.80201209e-05,74.9183258 2.80201209e-05,73.6445053 L2.80201209e-05,29.8918453 C2.80201209e-05,27.2796753 1.83562614,24.0993143 4.09993211,22.7883408 L42.0246054,0.833095342 C43.1849186,0.161266788 44.2303493,0.11433656 44.9762449,0.576375824 L44.9790469,0.571626932 L132.629908,51.0227389 Z" id="Fill-1" fill="#00D4FF"></path>
                            <path d="M129.67541,51.2838162 L91.7507371,73.239341 C89.4864312,74.5503146 87.650833,77.7306755 87.650833,80.3428455 L87.650833,124.095506 C87.650833,126.707676 89.4864312,127.762768 91.7507371,126.451794 L129.67541,104.496549 C131.939716,103.185575 133.775314,100.005214 133.775314,97.3930441 L133.775314,53.6403841 C133.775314,51.0279348 131.939716,49.973122 129.67541,51.2838162" id="Fill-3" fill="#A7F2FF"></path>
                        </g>
                        <g id="Group-12" transform="translate(92.024177, 58.767915)">
                            <g id="Group-11">
                                <mask id="mask-37" fill="white">
                                    <use xlink:href="#path-36"></use>
                                </mask>
                                <g id="Clip-10"></g>
                                <polygon id="Fill-9" fill="#2B344F" mask="url(#mask-37)" points="-7.62286327 15.1363473 -26.1797642 47.2393679 19.2453801 73.4341482 37.8022811 41.3311277"></polygon>
                            </g>
                            <g id="Group-8">
                                <mask id="mask-39" fill="white">
                                    <use xlink:href="#path-38"></use>
                                </mask>
                                <g id="Clip-7"></g>
                                <polygon id="Fill-6" fill="#3C486E" mask="url(#mask-39)" points="10.9339538 -16.9665615 -7.62294713 15.136459 37.8021972 41.3312394 56.3590981 9.22821883"></polygon>
                                <path d="M21.4430826,6.89942581 L2.09197723,18.1232676 C0.936649624,18.7933073 0,20.419078 0,21.7546484 L0,44.1209893 C0,45.4563794 0.936649624,45.9956577 2.09197723,45.3254376 L21.4430826,34.1017762 C22.5984102,33.4317364 23.5352404,31.8059658 23.5352404,30.4703953 L23.5352404,8.10405443 C23.5352404,7.15806295 23.0650196,6.61157025 22.3800934,6.61157025 C22.0982137,6.61157025 21.7800381,6.70409525 21.4430826,6.89942581 Z" id="Clip-7" fill="#FFDE85" filter="url(#filter-40)" mask="url(#mask-39)"></path>
                            </g>
                            <g id="Coin" transform="translate(4.573875, 25.119867)">
                                <path d="M22.1240122,8.09014739 C22.2543983,6.49922562 21.2544204,4.84731676 19.1093574,3.5392489 C14.9622354,1.00828479 8.10539416,0.719121876 3.79528951,2.89467848 C1.65863847,3.97246752 0.548252882,5.45508463 0.478853783,6.98291631 L0.475699278,6.98291631 L0.383167146,9.25310805 L0.387373152,9.25310805 C0.314819549,10.8082788 1.31690048,12.4097155 3.40833696,13.6862384 C7.55545887,16.2172025 14.4123002,16.5053139 18.7224048,14.3308088 C20.9305579,13.2162172 22.041995,11.6715615 22.0430465,10.0901032 L22.1240122,8.09014739 Z" id="Fill-1" fill="#FFD169"></path>
                                <path d="M22.1240122,8.09014739 C22.2543983,6.49922562 21.2544204,4.84731676 19.1093574,3.5392489 C14.9622354,1.00828479 8.10539416,0.719121876 3.79528951,2.89467848 C1.65863847,3.97246752 0.548252882,5.45508463 0.478853783,6.98291631 L0.475699278,6.98291631 L0.383167146,9.25310805 L0.387373152,9.25310805 C0.314819549,10.8082788 1.31690048,12.4097155 3.40833696,13.6862384 C7.55545887,16.2172025 14.4123002,16.5053139 18.7224048,14.3308088 C20.9305579,13.2162172 22.041995,11.6715615 22.0430465,10.0901032 L22.1240122,8.09014739 Z" id="Stroke-3" stroke="#E3A61C" stroke-width="0.729" stroke-linecap="round" stroke-linejoin="round"></path>
                                <g id="Group-8" transform="translate(0.000000, 0.401253)">
                                    <path d="M4.08266487,11.345596 C3.88393109,11.2393944 3.68835181,11.1289867 3.50013304,11.0143731 C-0.646988873,8.48235745 -0.514499684,4.66751001 3.79560496,2.49300491 C8.10570961,0.318499804 14.9625509,0.606611215 19.1096728,3.13757532 C23.2567947,5.66853943 23.1243055,9.48338687 18.8142009,11.657892 C15.1402546,13.5116891 9.61776877,13.5758307 5.49798589,11.9870119" id="Fill-5" fill="#FFD169"></path>
                                    <path d="M4.08266487,11.345596 C3.88393109,11.2393944 3.68835181,11.1289867 3.50013304,11.0143731 C-0.646988873,8.48235745 -0.514499684,4.66751001 3.79560496,2.49300491 C8.10570961,0.318499804 14.9625509,0.606611215 19.1096728,3.13757532 C23.2567947,5.66853943 23.1243055,9.48338687 18.8142009,11.657892 C15.1402546,13.5116891 9.61776877,13.5758307 5.49798589,11.9870119" id="Stroke-7" stroke="#E3A61C" stroke-width="0.729" stroke-linecap="round" stroke-linejoin="round"></path>
                                </g>
                                <g id="Group-12" transform="translate(4.206006, 11.967769)">
                                    <path d="M0.631952401,0.146684459 L0.496308708,0.0846458707" id="Fill-9" fill="#FFD169"></path>
                                    <path d="M0.631952401,0.146684459 L0.496308708,0.0846458707" id="Stroke-11" stroke="#E3A61C" stroke-width="0.729" stroke-linecap="round" stroke-linejoin="round"></path>
                                </g>
                                <path d="M17.5879398,11.3103707 C13.9812897,13.1294683 8.24429751,12.8886745 4.77434256,10.7709505 C1.30543911,8.65427794 1.41584677,5.46191939 5.02249691,3.6428218 C8.62809555,1.8237242 14.3650877,2.06451804 17.8350427,4.18224206 C21.3049976,6.29891458 21.19459,9.49127314 17.5879398,11.3103707" id="Fill-13" fill="#FFE491"></path>
                                <path d="M9.79967853,5.22112555 L10.9910297,6.19691894 C11.7102567,6.02447269 12.4179173,6.18219792 12.956286,6.62277704 C13.616629,7.16535182 13.3800411,7.75103815 12.249677,8.17899926 C11.1392914,8.59749686 10.0499359,8.51022224 9.39379895,7.97290497 C8.83755465,7.51760482 8.91326276,7.06966518 9.44321952,6.78575978 L8.25186832,5.81101789 C7.12465871,6.30312059 6.94695496,7.21687539 7.92695435,8.18530827 L7.00058153,8.53440677 L7.81444369,9.20105872 L8.76605255,8.84249671 C10.146674,9.6794919 11.9384326,9.84562914 13.5451269,9.23891278 C15.1717997,8.6258874 15.5419282,7.645888 14.6502549,6.62172554 L15.5419282,6.28524506 L14.7291176,5.61859311 L13.8658348,5.94350708 C12.6429386,5.09284236 11.1066949,4.80998846 9.79967853,5.22112555" id="Fill-15" fill="#FFD169"></path>
                                <path d="M9.79967853,5.22112555 L10.9910297,6.19691894 C11.7102567,6.02447269 12.4179173,6.18219792 12.956286,6.62277704 C13.616629,7.16535182 13.3800411,7.75103815 12.249677,8.17899926 C11.1392914,8.59749686 10.0499359,8.51022224 9.39379895,7.97290497 C8.83755465,7.51760482 8.91326276,7.06966518 9.44321952,6.78575978 L8.25186832,5.81101789 C7.12465871,6.30312059 6.94695496,7.21687539 7.92695435,8.18530827 L7.00058153,8.53440677 L7.81444369,9.20105872 L8.76605255,8.84249671 C10.146674,9.6794919 11.9384326,9.84562914 13.5451269,9.23891278 C15.1717997,8.6258874 15.5419282,7.645888 14.6502549,6.62172554 L15.5419282,6.28524506 L14.7291176,5.61859311 L13.8658348,5.94350708 C12.6429386,5.09284236 11.1066949,4.80998846 9.79967853,5.22112555 Z" id="Stroke-17" stroke="#E3A61C" stroke-width="0.729" stroke-linecap="round" stroke-linejoin="round"></path>
                            </g>
                        </g>
                        <g id="Coin" transform="translate(116.934484, 116.934484)">
                            <path d="M21.6176271,8.20956336 C21.7447298,6.66145248 20.7711232,5.05487436 18.6840968,3.78257634 C14.6498571,1.31932602 7.97823645,1.03842906 3.78384737,3.15341798 C1.7044472,4.2045573 0.624074255,5.64590191 0.555438797,7.1330035 L0.552896743,7.1330035 L0.463924853,9.34331944 L0.466466907,9.34331944 C0.396560423,10.8545705 1.37270916,12.4141207 3.40635235,13.654643 C7.44186306,16.1178933 14.1134838,16.3987903 18.3078728,14.2825303 C20.4559085,13.1983443 21.5375524,11.6947194 21.5388235,10.1567767 L21.6176271,8.20956336 Z" id="Fill-1" fill="#FFD169"></path>
                            <path d="M21.6176271,8.20956336 C21.7447298,6.66145248 20.7711232,5.05487436 18.6840968,3.78257634 C14.6498571,1.31932602 7.97823645,1.03842906 3.78384737,3.15341798 C1.7044472,4.2045573 0.624074255,5.64590191 0.555438797,7.1330035 L0.552896743,7.1330035 L0.463924853,9.34331944 L0.466466907,9.34331944 C0.396560423,10.8545705 1.37270916,12.4141207 3.40635235,13.654643 C7.44186306,16.1178933 14.1134838,16.3987903 18.3078728,14.2825303 C20.4559085,13.1983443 21.5375524,11.6947194 21.5388235,10.1567767 L21.6176271,8.20956336 Z" id="Stroke-3" stroke="#E3A61C" stroke-width="0.729" stroke-linecap="round" stroke-linejoin="round"></path>
                            <g id="Group-8" transform="translate(0.000000, 0.574504)">
                                <path d="M4.0634733,11.1936805 C3.86900617,11.0907274 3.67962315,10.9826901 3.49659526,10.8708397 C-0.538915446,8.4088604 -0.41054172,4.69619054 3.78384737,2.5799306 C7.97823645,0.464941675 14.6498571,0.744567614 18.6840968,3.20781793 C22.7196075,5.66852619 22.5912338,9.38119605 18.3968447,11.497456 C14.8227168,13.3010433 9.44754366,13.3633236 5.43999554,11.8177548" id="Fill-5" fill="#FFD169"></path>
                                <path d="M4.0634733,11.1936805 C3.86900617,11.0907274 3.67962315,10.9826901 3.49659526,10.8708397 C-0.538915446,8.4088604 -0.41054172,4.69619054 3.78384737,2.5799306 C7.97823645,0.464941675 14.6498571,0.744567614 18.6840968,3.20781793 C22.7196075,5.66852619 22.5912338,9.38119605 18.3968447,11.497456 C14.8227168,13.3010433 9.44754366,13.3633236 5.43999554,11.8177548" id="Stroke-7" stroke="#E3A61C" stroke-width="0.729" stroke-linecap="round" stroke-linejoin="round"></path>
                            </g>
                            <g id="Group-12" transform="translate(3.813081, 12.013747)">
                                <path d="M0.984537511,0.111850376 C0.940051566,0.0915139437 0.896836648,0.0724485387 0.852350703,0.0521121068" id="Fill-9" fill="#FFD169"></path>
                                <path d="M0.984537511,0.111850376 C0.940051566,0.0915139437 0.896836648,0.0724485387 0.852350703,0.0521121068" id="Stroke-11" stroke="#E3A61C" stroke-width="0.729" stroke-linecap="round" stroke-linejoin="round"></path>
                            </g>
                            <path d="M17.2037317,11.3436617 C13.6944262,13.1154734 8.11207559,12.8790623 4.73622789,10.8187276 C1.36038019,8.75966385 1.46841749,5.65327387 4.976452,3.88273327 C8.48575753,2.11219266 14.0681081,2.34733266 17.4439558,4.40766741 C20.8210745,6.46800217 20.7130372,9.57312112 17.2037317,11.3436617" id="Fill-13" fill="#FFE491"></path>
                            <path d="M9.62599585,5.41800677 L10.7851725,6.36746394 C11.4842373,6.19968838 12.1731339,6.35348264 12.6967971,6.78181874 C13.3399367,7.30929494 13.1098808,7.87998606 12.0091715,8.29688292 C10.9287985,8.70361156 9.868762,8.61972377 9.23070645,8.09478963 C8.68924895,7.65247223 8.76296852,7.21650997 9.27900548,6.94069711 L8.11982886,5.99123995 C7.02293256,6.47168815 6.85007289,7.36013602 7.80334314,8.30323805 L6.902185,8.64260226 L7.69403481,9.29209706 L8.61934247,8.9412936 C9.96408903,9.75602191 11.706667,9.91871336 13.2700302,9.32895684 C14.8524589,8.73030312 15.2134305,7.77703288 14.3453191,6.78054771 L15.2134305,6.45262275 L14.4215807,5.80567001 L13.5827029,6.12215573 C12.3917506,5.2921751 10.8970228,5.0189043 9.62599585,5.41800677" id="Fill-15" fill="#FFD169"></path>
                            <path d="M9.62599585,5.41800677 L10.7851725,6.36746394 C11.4842373,6.19968838 12.1731339,6.35348264 12.6967971,6.78181874 C13.3399367,7.30929494 13.1098808,7.87998606 12.0091715,8.29688292 C10.9287985,8.70361156 9.868762,8.61972377 9.23070645,8.09478963 C8.68924895,7.65247223 8.76296852,7.21650997 9.27900548,6.94069711 L8.11982886,5.99123995 C7.02293256,6.47168815 6.85007289,7.36013602 7.80334314,8.30323805 L6.902185,8.64260226 L7.69403481,9.29209706 L8.61934247,8.9412936 C9.96408903,9.75602191 11.706667,9.91871336 13.2700302,9.32895684 C14.8524589,8.73030312 15.2134305,7.77703288 14.3453191,6.78054771 L15.2134305,6.45262275 L14.4215807,5.80567001 L13.5827029,6.12215573 C12.3917506,5.2921751 10.8970228,5.0189043 9.62599585,5.41800677 Z" id="Stroke-17" stroke="#E3A61C" stroke-width="0.729" stroke-linecap="round" stroke-linejoin="round"></path>
                            <path d="M30.4607975,16.6611303 C31.3047594,15.3570566 31.2081613,13.4810207 29.9727231,11.3723869 C27.5819213,7.29366131 21.8381503,3.88857999 17.1417056,3.76783243 C14.8131841,3.70936518 13.1799144,4.4681683 12.4160272,5.74555043 L12.4122141,5.7442794 L11.2898973,7.64827784 L11.2911683,7.6508199 C10.5145708,8.94980949 10.6353184,10.7851725 11.841523,12.8416941 C14.2310538,16.9204198 19.9748247,20.3242301 24.6712695,20.4449776 C27.0773236,20.5059869 28.7410979,19.6938007 29.4706674,18.3376149 L30.4607975,16.6611303 Z" id="Fill-19" fill="#FFD169"></path>
                            <path d="M30.4607975,16.6611303 C31.3047594,15.3570566 31.2081613,13.4810207 29.9727231,11.3723869 C27.5819213,7.29366131 21.8381503,3.88857999 17.1417056,3.76783243 C14.8131841,3.70936518 13.1799144,4.4681683 12.4160272,5.74555043 L12.4122141,5.7442794 L11.2898973,7.64827784 L11.2911683,7.6508199 C10.5145708,8.94980949 10.6353184,10.7851725 11.841523,12.8416941 C14.2310538,16.9204198 19.9748247,20.3242301 24.6712695,20.4449776 C27.0773236,20.5059869 28.7410979,19.6938007 29.4706674,18.3376149 L30.4607975,16.6611303 Z" id="Stroke-21" stroke="#E3A61C" stroke-width="0.729" stroke-linecap="round" stroke-linejoin="round"></path>
                            <g id="Group-26" transform="translate(11.439243, 3.116558)">
                                <path d="M1.87323959,8.37238192 C1.75122099,8.18935403 1.63555754,8.00505512 1.52624922,7.81948518 C-0.863281535,3.74075955 1.00639917,0.531416387 5.70284392,0.652163951 C10.3992887,0.772911516 16.1430597,4.17672181 18.5325904,8.25544744 C20.9233922,12.3341731 19.0537115,15.5435162 14.3572667,15.4227687 C10.3535317,15.3210865 5.58972252,12.8324156 2.79092108,9.57477346" id="Fill-23" fill="#FFD169"></path>
                                <path d="M1.87323959,8.37238192 C1.75122099,8.18935403 1.63555754,8.00505512 1.52624922,7.81948518 C-0.863281535,3.74075955 1.00639917,0.531416387 5.70284392,0.652163951 C10.3992887,0.772911516 16.1430597,4.17672181 18.5325904,8.25544744 C20.9233922,12.3341731 19.0537115,15.5435162 14.3572667,15.4227687 C10.3535317,15.3210865 5.58972252,12.8324156 2.79092108,9.57477346" id="Stroke-25" stroke="#E3A61C" stroke-width="0.729" stroke-linecap="round" stroke-linejoin="round"></path>
                            </g>
                            <g id="Group-30" transform="translate(12.710270, 12.013747)">
                                <path d="M1.08011874,0.138033532 C1.05088512,0.0999027218 1.0216515,0.060500885 0.992417878,0.0236411021" id="Fill-27" fill="#FFD169"></path>
                                <path d="M1.08011874,0.138033532 C1.05088512,0.0999027218 1.0216515,0.060500885 0.992417878,0.0236411021" id="Stroke-29" stroke="#E3A61C" stroke-width="0.729" stroke-linecap="round" stroke-linejoin="round"></path>
                            </g>
                            <path d="M25.0893103,17.3326138 C21.1605658,17.2322027 16.3535417,14.3851022 14.3542163,10.9711237 C12.3548908,7.55968726 13.919525,4.87400722 17.8482695,4.97441835 C21.7782849,5.07482948 26.584038,7.92447201 28.5833635,11.3359085 C30.5826889,14.7486159 29.0180547,17.434296 25.0893103,17.3326138" id="Fill-31" fill="#FFE491"></path>
                            <path d="M21.2173807,8.52732011 L21.7893429,9.91273954 C22.4858657,10.0957674 23.018426,10.5571502 23.2777155,11.1824955 C23.5954722,11.9501958 23.1213792,12.3454852 21.9558474,12.1904199 C20.8119231,12.0391677 19.9171201,11.4633925 19.6019054,10.6995052 C19.3349898,10.0525525 19.6069895,9.70429111 20.1903909,9.70429111 L19.6196998,8.32014271 C18.4262055,8.22354466 17.8529723,8.92515156 18.2469906,10.2063468 L17.2924494,10.0805151 L17.6826547,11.0248882 L18.6638875,11.1545329 C19.4620925,12.5094477 20.9212314,13.4766992 22.5773796,13.6965869 C24.2551353,13.9190166 25.0241066,13.2504564 24.7304994,11.9616351 L25.6494519,12.0836536 L25.2592466,11.1380096 L24.3695277,11.0198041 C23.7136778,9.72589857 22.5265385,8.7764414 21.2173807,8.52732011" id="Fill-33" fill="#FFD169"></path>
                            <path d="M21.2173807,8.52732011 L21.7893429,9.91273954 C22.4858657,10.0957674 23.018426,10.5571502 23.2777155,11.1824955 C23.5954722,11.9501958 23.1213792,12.3454852 21.9558474,12.1904199 C20.8119231,12.0391677 19.9171201,11.4633925 19.6019054,10.6995052 C19.3349898,10.0525525 19.6069895,9.70429111 20.1903909,9.70429111 L19.6196998,8.32014271 C18.4262055,8.22354466 17.8529723,8.92515156 18.2469906,10.2063468 L17.2924494,10.0805151 L17.6826547,11.0248882 L18.6638875,11.1545329 C19.4620925,12.5094477 20.9212314,13.4766992 22.5773796,13.6965869 C24.2551353,13.9190166 25.0241066,13.2504564 24.7304994,11.9616351 L25.6494519,12.0836536 L25.2592466,11.1380096 L24.3695277,11.0198041 C23.7136778,9.72589857 22.5265385,8.7764414 21.2173807,8.52732011 Z" id="Stroke-35" stroke="#E3A61C" stroke-width="0.729" stroke-linecap="round" stroke-linejoin="round"></path>
                        </g>
                    </g>
                    <g id="Group-2" transform="translate(105.495241, 0.000000)">
                        <g id="Page-1">
                            <g id="Group-3" transform="translate(0.000000, 3.346780)">
                                <mask id="mask-42" fill="white">
                                    <use xlink:href="#path-41"></use>
                                </mask>
                                <g id="Clip-2"></g>
                                <path d="M92.6884818,47.1082895 L84.701339,45.7432202 L22.7815423,7.92154956 C20.5717288,6.64570221 18.7845603,4.91146659 16.5731097,6.18076553 L7.91120853,2.93985133 L-8.1855048e-05,0.23863475 L-8.1855048e-05,98.7940225 L0.00510229799,98.7940225 C0.0315687635,99.607116 0.579179035,100.416117 1.65639147,101.038215 L83.0241291,148.015919 C85.2339425,149.291766 88.8178294,149.29695 91.0290071,148.027651 C92.1624266,147.377176 92.7111283,146.518244 92.6832976,145.663677 L92.6884818,145.663677 L92.6884818,47.1082895 Z" id="Fill-1" fill="#4748FF" mask="url(#mask-42)"></path>
                            </g>
                            <g id="Group-6" transform="translate(0.000000, 0.072578)">
                                <mask id="mask-44" fill="white">
                                    <use xlink:href="#path-43"></use>
                                </mask>
                                <g id="Clip-5"></g>
                                <path d="M91.0291162,52.7464925 C88.8179385,54.0157915 85.2337788,54.0106073 83.0242382,52.73476 L1.65650061,5.75705652 C-0.553312839,4.48148202 -0.551948589,2.41818911 1.65922911,1.14889017 C3.87067965,-0.120408776 7.45456651,-0.115224623 9.66437995,1.16062273 L91.0321176,48.1383262 C93.2416582,49.4139007 93.2402939,51.4771936 91.0291162,52.7464925" id="Fill-4" fill="#8081FF" mask="url(#mask-44)"></path>
                            </g>
                        </g>
                        <g id="Page-1" transform="translate(24.149513, 69.906485)">
                            <mask id="mask-46" fill="white">
                                <use xlink:href="#path-45"></use>
                            </mask>
                            <g id="Clip-2"></g>
                            <path d="M0.545397684,8.84736471 C1.31564004,9.20198124 1.94606943,9.39517734 2.56505958,9.39899043 C2.83960141,9.40026145 3.11033016,9.35577551 3.35818042,9.26680362 C3.57425501,9.190542 3.7712642,9.07996265 3.93776873,8.95285995 C4.23137597,8.73170125 4.43728234,8.47622483 4.61014201,8.2347297 C4.8681605,7.8674029 5.06389865,7.51405739 5.29522557,7.19502962 C5.52528145,6.87473081 5.77821582,6.58874974 6.13664544,6.33454434 L6.13537441,6.33454434 C6.28535559,6.2290491 6.40864521,6.1680398 6.50015916,6.13372207 C6.59294413,6.10067537 6.65141137,6.09432024 6.69208423,6.09304921 C6.74038326,6.09432024 6.76961688,6.10067537 6.82045796,6.12355386 C6.90434574,6.16168467 7.05559795,6.28116121 7.21574736,6.50994606 C7.45851351,6.84803925 7.70000864,7.39076777 7.89955988,7.95637479 C8.10165317,8.52452385 8.26688668,9.10919627 8.42830711,9.59218653 L8.42830711,9.5909155 C8.47406408,9.72945744 8.5363444,9.86927041 8.62404527,10.0001862 C8.75369002,10.1997374 8.94688612,10.3827653 9.17312893,10.4958867 C9.39810071,10.6115502 9.64086686,10.6560361 9.8543994,10.6547651 C10.1912216,10.652223 10.4721185,10.5632512 10.7352211,10.4488587 C11.1940619,10.2429524 11.6211269,9.93790587 12.0659864,9.56422393 C12.7281914,9.00497206 13.413275,8.28429975 14.0602277,7.50134712 C14.7059094,6.72093655 15.3083762,5.88332976 15.7875534,5.08766686 L15.7875534,5.08639583 C16.19174,4.41020947 16.8081881,3.55099522 17.4894586,2.90658453 C17.8288228,2.58374368 18.1834393,2.31555698 18.5177194,2.14269731 C18.8532705,1.96475353 19.158317,1.8834078 19.4290458,1.8834078 C19.6705409,1.88467883 19.9005968,1.93933299 20.1789517,2.1045665 C20.5907644,2.35114574 21.1131565,2.89133221 21.6406327,3.90815381 C22.16938,4.91989129 22.6993982,6.3891985 23.1734913,8.40631834 C23.6488554,10.4208961 24.0644812,11.7897922 24.4813781,12.7290812 C24.6936396,13.2006322 24.900817,13.567959 25.1740878,13.8768185 C25.3126297,14.0293418 25.4702371,14.1691547 25.6710593,14.2810051 C25.8693395,14.3915845 26.1159188,14.465304 26.3663111,14.464033 C26.6103483,14.465304 26.8404042,14.3966686 27.0234321,14.3013415 C27.3691514,14.1183137 27.5788708,13.8780896 27.7657118,13.6302393 C28.0834686,13.193006 28.3236927,12.6820532 28.5715429,12.1177172 C28.9375987,11.2775683 29.2960283,10.3255691 29.6722523,9.53244826 C29.8578223,9.13715886 30.0497473,8.78127131 30.2315042,8.51308461 C30.41199,8.24362689 30.5861207,8.06949619 30.6839898,8.00721587 L30.6852608,8.00594484 C31.1847744,7.67166474 31.540662,7.56871155 31.7529235,7.55091717 C32.2702315,7.50643123 32.6540816,7.05013254 32.6095957,6.53155352 C32.5638387,6.01424554 32.10754,5.63039538 31.588961,5.67488133 C30.973784,5.72953549 30.3268312,5.97992781 29.6379346,6.44003958 L29.6392056,6.43876855 C29.3074676,6.6624693 29.0507201,6.94209524 28.8232063,7.24459967 C28.4279169,7.77588895 28.1139732,8.39869218 27.822908,9.04437389 C27.3894878,10.0103544 27.0107218,11.0360732 26.6637314,11.7694558 C26.4934138,12.1329695 26.3256382,12.4227636 26.2150589,12.5574925 L26.1515075,12.62867 L26.1400683,12.6388382 L26.1375262,12.6413803 L26.2824233,12.8333054 L26.1959935,12.6108756 C26.1565916,12.627399 26.1387973,12.6401093 26.1387973,12.6401093 L26.2824233,12.8333054 L26.1959935,12.6108756 L26.3663111,13.0468379 L26.3663111,12.581642 C26.2989467,12.580371 26.2353953,12.5956233 26.1959935,12.6108756 L26.3663111,13.0468379 L26.3663111,12.581642 L26.3663111,13.0188753 L26.5798436,12.6324831 C26.5455259,12.6108756 26.457825,12.580371 26.3663111,12.581642 L26.3663111,13.0188753 L26.5798436,12.6324831 L26.4972269,12.7811933 L26.6039931,12.6464644 L26.5798436,12.6324831 L26.4972269,12.7811933 L26.6039931,12.6464644 L26.5900118,12.6337541 C26.55061,12.5943523 26.455283,12.4710627 26.3434326,12.2575301 C26.175657,11.9385024 25.9672086,11.4262785 25.7435079,10.7195875 C25.5172651,10.0103544 25.2719569,9.10284114 25.0075832,7.97416916 C24.337752,5.14740513 23.5624255,3.23705155 22.6536412,1.95077223 C22.1973426,1.31017463 21.700371,0.824642315 21.1512873,0.492904269 C20.6047457,0.159895196 20.004821,-0.00152523239 19.4290458,-0.000254205399 C18.7782799,-0.000254205399 18.1758131,0.192941898 17.6407108,0.475109891 C16.8374217,0.899632907 16.1599643,1.52370716 15.580376,2.17828606 C15.0020587,2.83540702 14.5266946,3.52811673 14.1720781,4.11787326 L14.1733491,4.11660223 C13.5365646,5.1791808 12.5769392,6.42097418 11.6681549,7.35390799 C11.2169403,7.82164592 10.7733519,8.21312224 10.4161933,8.46351456 C10.2382496,8.58934623 10.0819132,8.67831812 9.97387594,8.72534612 C9.9204928,8.74949563 9.87981994,8.76347693 9.85694145,8.76856104 L9.83914707,8.77110309 L9.8543994,8.87786936 L9.8543994,8.77110309 L9.83914707,8.77110309 L9.8543994,8.87786936 L9.8543994,8.77110309 L9.8543994,9.11809346 L9.95481053,8.78762644 C9.90778253,8.77364514 9.87219378,8.77110309 9.8543994,8.77110309 L9.8543994,9.11809346 L9.95481053,8.78762644 L9.82008167,9.22867281 L10.1581748,8.91600017 C10.1124179,8.86261703 10.024717,8.80796287 9.95481053,8.78762644 L9.82008167,9.22867281 L10.1581748,8.91600017 L9.9065115,9.14859811 L10.2064739,8.97955152 L10.1581748,8.91600017 L9.9065115,9.14859811 L10.2064739,8.97955152 L10.0552217,9.06471033 L10.2141,8.99607487 L10.2064739,8.97955152 L10.0552217,9.06471033 L10.2141,8.99607487 L10.165801,9.01768233 L10.2153711,8.99861692 L10.2141,8.99607487 L10.165801,9.01768233 L10.2153711,8.99861692 L10.2141,8.99607487 C10.1086048,8.68086017 9.9815021,8.24616894 9.82770783,7.77588895 C9.59383886,7.06919794 9.30912882,6.28116121 8.86681142,5.59099355 C8.6443817,5.24654523 8.37746603,4.91989129 8.01903642,4.65678871 C7.84109264,4.52587293 7.63772832,4.41275152 7.41275654,4.33267682 C7.18905579,4.25387315 6.94247655,4.21065823 6.69208423,4.21065823 C6.40864521,4.21065823 6.12266414,4.26658342 5.84939334,4.36699455 C5.57612253,4.46867671 5.31174892,4.61230276 5.05118838,4.79533065 L5.04991736,4.79533065 C4.55040375,5.14867615 4.17545078,5.55159171 3.88819868,5.93035776 C3.67085307,6.21379678 3.50053545,6.48452553 3.35436734,6.71458141 C3.13956378,7.06284281 2.96797514,7.30815102 2.85739579,7.40474907 C2.8014706,7.45559015 2.7684239,7.47465555 2.7353772,7.48863685 C2.70233049,7.50134712 2.6603866,7.51405739 2.56505958,7.51532842 C2.37948964,7.5191415 1.972761,7.43779577 1.33851853,7.13910443 C0.866967514,6.92048778 0.307715636,7.12639416 0.0878279654,7.59794517 C-0.130788678,8.06949619 0.0738466684,8.62874807 0.545397684,8.84736471" id="Fill-1" fill="#82EDFF" mask="url(#mask-46)"></path>
                        </g>
                    </g>
                </g>
            </g>
        </g>
    </g>
</svg>