<?xml version="1.0" encoding="UTF-8"?>
<svg width="21px" height="38px" viewBox="0 0 21 38" version="1.1" xmlns="http://www.w3.org/2000/svg" xmlns:xlink="http://www.w3.org/1999/xlink">
    <!-- Generator: Sketch 52.4 (67378) - http://www.bohemiancoding.com/sketch -->
    <title>facebook (1)</title>
    <desc>Created with Sketch.</desc>
    <g id="Landing-Page" stroke="none" stroke-width="1" fill="none" fill-rule="evenodd">
        <g id="Desktop-HD" transform="translate(-1063.000000, -2622.000000)" fill="#F2F2F2" fill-rule="nonzero">
            <g id="Group-6" transform="translate(971.000000, 2622.000000)">
                <g id="facebook-(1)" transform="translate(92.000000, 0.000000)">
                    <path d="M12.9713687,38 L7.04629403,38 C6.05661748,38 5.25155255,37.1731567 5.25155255,36.1567077 L5.25155255,22.4308776 L1.79474155,22.4308776 C0.805064926,22.4308776 0,21.6037445 0,20.5875854 L0,14.7060394 C0,13.6895905 0.805064926,12.8627472 1.79474155,12.8627472 L5.25155255,12.8627472 L5.25155255,9.91748047 C5.25155255,6.99714663 6.14440684,4.51255796 7.83329306,2.73275753 C9.52980081,0.944839496 11.9006775,0 14.6896121,0 L19.2083636,0.00753780469 C20.1963465,0.00927734375 21,0.836120605 21,1.85083008 L21,7.31170654 C21,8.32815555 20.1952174,9.15499874 19.2058231,9.15499874 L16.1634003,9.15615848 C15.2355432,9.15615848 14.9992742,9.34721373 14.9487459,9.405777 C14.8654731,9.50289913 14.7663925,9.77745054 14.7663925,10.5355835 L14.7663925,12.8624573 L18.9771756,12.8624573 C19.294177,12.8624573 19.6012985,12.9427643 19.8652311,13.0941009 C20.4345916,13.4208374 20.7885717,14.0386505 20.7885717,14.7063294 L20.7863134,20.5878753 C20.7863134,21.6037445 19.9812485,22.4305878 18.991572,22.4305878 L14.7663925,22.4305878 L14.7663925,36.1567077 C14.7663925,37.1731567 13.9610452,38 12.9713687,38 Z M7.42059845,35.7722778 L12.5970643,35.7722778 L12.5970643,21.4335632 C12.5970643,20.7548675 13.1348093,20.2028656 13.7953464,20.2028656 L18.6172675,20.2028656 L18.6192435,15.0904694 L13.7950642,15.0904694 C13.134527,15.0904694 12.5970643,14.5384674 12.5970643,13.8597718 L12.5970643,10.5355835 C12.5970643,9.66525265 12.68316,8.67547607 13.3228083,7.93154911 C14.0956932,7.03222656 15.313735,6.92843624 16.1628357,6.92843624 L18.8309542,6.92727665 L18.8309542,2.23468018 L14.6879184,2.22772217 C10.2058634,2.22772217 7.42059845,5.17443848 7.42059845,9.91748047 L7.42059845,13.8597718 C7.42059845,14.5381775 6.88313575,15.0904694 6.22259861,15.0904694 L2.16904589,15.0904694 L2.16904589,20.2028656 L6.22259861,20.2028656 C6.88313575,20.2028656 7.42059845,20.7548675 7.42059845,21.4335632 L7.42059845,35.7722778 Z" id="Shape"></path>
                </g>
            </g>
        </g>
    </g>
</svg>