<?xml version="1.0" encoding="UTF-8"?>
<svg width="36px" height="36px" viewBox="0 0 36 36" version="1.1" xmlns="http://www.w3.org/2000/svg" xmlns:xlink="http://www.w3.org/1999/xlink">
    <!-- Generator: Sketch 52.4 (67378) - http://www.bohemiancoding.com/sketch -->
    <title>instagram</title>
    <desc>Created with Sketch.</desc>
    <g id="Landing-Page" stroke="none" stroke-width="1" fill="none" fill-rule="evenodd">
        <g id="Desktop-HD" transform="translate(-1133.000000, -2624.000000)" fill="#F2F2F2" fill-rule="nonzero">
            <g id="Group-6" transform="translate(971.000000, 2622.000000)">
                <g id="instagram" transform="translate(162.000000, 2.000000)">
                    <path d="M26.255127,0 L9.74487305,0 C4.37145996,0 0,4.37145996 0,9.74487305 L0,26.2554016 C0,31.62854 4.37145996,36 9.74487305,36 L26.2554016,36 C31.62854,36 36,31.62854 36,26.2554016 L36,9.74487305 C36,4.37145996 31.62854,1.99840144e-15 26.255127,0 Z M33.8895264,26.2554016 C33.8895264,30.4648132 30.4648133,33.8895264 26.255127,33.8895264 L9.74487305,33.8895264 C5.53518675,33.8895264 2.11047363,30.4648132 2.11047363,26.2554016 L2.11047363,9.74487305 C2.11047363,5.53518675 5.53518675,2.11047363 9.74487305,2.11047363 L26.2554016,2.11047363 C30.4648133,2.11047363 33.8895264,5.53518675 33.8895264,9.74487305 L33.8895264,26.2554016 Z" id="Shape"></path>
                    <path d="M18,8 C12.4858953,8 8,12.4858953 8,18 C8,23.5141047 12.4858953,28 18,28 C23.5141047,28 28,23.5141047 28,18 C28,12.4858953 23.5141047,8 18,8 Z M18,25.855967 C13.6684059,25.855967 10.144033,22.3318731 10.144033,18 C10.144033,13.6684059 13.6684059,10.144033 18,10.144033 C22.3318731,10.144033 25.855967,13.6684059 25.855967,18 C25.855967,22.3318731 22.3318731,25.855967 18,25.855967 Z" id="Shape"></path>
                    <path d="M27.9998584,4 C26.3455456,4 25,5.34582881 25,6.99985837 C25,8.65417119 26.3455456,10 27.9998584,10 C29.6541712,10 31,8.65417119 31,6.99985837 C31,5.34554556 29.6541712,4 27.9998584,4 Z M27.9998584,7.82304892 C27.5460555,7.82304892 27.1766678,7.45366127 27.1766678,6.99985837 C27.1766678,6.54577215 27.5460555,6.17666775 27.9998584,6.17666775 C28.4539446,6.17666775 28.8233323,6.54577215 28.8233323,6.99985837 C28.8233323,7.45366127 28.4539446,7.82304892 27.9998584,7.82304892 Z" id="Shape"></path>
                </g>
            </g>
        </g>
    </g>
</svg>