<?xml version="1.0" encoding="UTF-8"?>
<svg width="34px" height="38px" viewBox="0 0 34 38" version="1.1" xmlns="http://www.w3.org/2000/svg" xmlns:xlink="http://www.w3.org/1999/xlink">
    <!-- Generator: Sketch 52.4 (67378) - http://www.bohemiancoding.com/sketch -->
    <title>linkedin</title>
    <desc>Created with Sketch.</desc>
    <g id="Landing-Page" stroke="none" stroke-width="1" fill="none" fill-rule="evenodd">
        <g id="Desktop-HD" transform="translate(-1218.000000, -2623.000000)" fill="#F2F2F2" fill-rule="nonzero">
            <g id="Group-6" transform="translate(971.000000, 2622.000000)">
                <g id="linkedin" transform="translate(247.000000, 1.000000)">
                    <path d="M7.69947551,11 L1.30081405,11 C0.583513,11 0,11.5897178 0,12.3146462 L0,36.6856464 C0,37.4102822 0.583513,38 1.30081405,38 L7.69947551,38 C8.416487,38 9,37.4102822 9,36.6856464 L9,12.3146462 C9,11.5897178 8.416487,11 7.69947551,11 Z M6.77280477,35.749122 L2.22719523,35.749122 L2.22719523,13.250878 L6.77280477,13.250878 L6.77280477,35.749122 Z" id="Shape"></path>
                    <path d="M4.5001436,0 C2.01857348,0 0,2.01857348 0,4.4998564 C0,6.98142652 2.01857348,9 4.5001436,9 C6.98113925,9 9,6.98142652 9,4.4998564 C9,2.01857348 6.98142652,0 4.5001436,0 Z M4.5001436,6.79100046 C3.23666824,6.79100046 2.20899954,5.76333169 2.20899954,4.4998564 C2.20899954,3.23666824 3.23666824,2.20899954 4.5001436,2.20899954 C5.76333169,2.20899954 6.79100046,3.23666824 6.79100046,4.4998564 C6.79100046,5.76304449 5.76333169,6.79100046 4.5001436,6.79100046 Z" id="Shape"></path>
                    <path d="M29.9375794,13.8570159 C28.4156483,12.5666468 26.4808193,11.8765379 24.4915327,11.9139993 C23.2560083,11.93712 22.048721,12.2397377 20.954671,12.7876104 L20.954671,12.2555417 C20.954671,11.5622134 20.401163,11 19.7185703,11 L13.2361007,11 C12.553508,11 12,11.5622134 12,12.2555417 L12,36.7444583 C12,37.4380792 12.553508,38 13.2361007,38 L19.8465024,38 C20.4585019,38 20.954671,37.4960274 20.954671,36.8746952 L20.954671,22.273828 C20.954671,21.023847 21.9176194,19.9661482 23.1473813,19.9289795 C24.4255497,19.8906401 25.4772438,20.9351688 25.4772438,22.2249526 L25.4772438,36.8981085 C25.4772438,37.5065633 25.96304,38 26.5620735,38 L32.9151703,38 C33.5142037,38 34,37.5065633 34,36.8981085 L34,22.6712699 C34,19.2587719 32.5192723,16.0458728 29.9375794,13.8570159 Z M31.7839508,35.7490976 L27.6935811,35.7490976 L27.6935811,22.2249526 C27.6935811,19.7173812 25.6849894,17.6771991 23.2159574,17.6771991 C20.7472136,17.6771991 18.7386219,19.7173812 18.7386219,22.2249526 L18.7386219,35.7490976 L14.2160491,35.7490976 L14.2160491,13.2506098 L18.7386219,13.2506098 L18.7386219,14.886326 L18.7400626,14.886326 C18.7397744,15.1514823 18.8305371,15.4178093 19.0172488,15.6323343 C19.4226553,16.097675 20.1231124,16.1409897 20.5812476,15.7289145 C21.6729925,14.7473091 23.0762118,14.191827 24.5324479,14.1643163 C25.9901248,14.1362203 27.4048695,14.6413636 28.5176483,15.5849223 C30.5936636,17.3450219 31.7839508,19.9278088 31.7839508,22.6712699 L31.7839508,35.7490976 Z" id="Shape"></path>
                </g>
            </g>
        </g>
    </g>
</svg>