<?xml version="1.0" encoding="UTF-8"?>
<svg width="51px" height="44px" viewBox="0 0 51 44" version="1.1" xmlns="http://www.w3.org/2000/svg" xmlns:xlink="http://www.w3.org/1999/xlink">
    <!-- Generator: Sketch 52.4 (67378) - http://www.bohemiancoding.com/sketch -->
    <title>twitter</title>
    <desc>Created with Sketch.</desc>
    <defs>
        <filter x="-27.9%" y="-33.3%" width="155.8%" height="166.7%" filterUnits="objectBoundingBox" id="filter-1">
            <feOffset dx="0" dy="2" in="SourceAlpha" result="shadowOffsetOuter1"></feOffset>
            <feGaussianBlur stdDeviation="2" in="shadowOffsetOuter1" result="shadowBlurOuter1"></feGaussianBlur>
            <feColorMatrix values="0 0 0 0 0   0 0 0 0 0   0 0 0 0 0  0 0 0 0.5 0" type="matrix" in="shadowBlurOuter1" result="shadowMatrixOuter1"></feColorMatrix>
            <feMerge>
                <feMergeNode in="shadowMatrixOuter1"></feMergeNode>
                <feMergeNode in="SourceGraphic"></feMergeNode>
            </feMerge>
        </filter>
    </defs>
    <g id="Landing-Page" stroke="none" stroke-width="1" fill="none" fill-rule="evenodd">
        <g id="Desktop-HD" transform="translate(-967.000000, -2622.000000)" fill="#F2F2F2" fill-rule="nonzero">
            <g id="Group-6" transform="translate(971.000000, 2622.000000)">
                <g id="twitter" filter="url(#filter-1)" transform="translate(0.000000, 2.000000)">
                    <path d="M16.361498,36 C9.1847784,36 3.51255858,34.7285211 0.798816382,32.512249 L0.745998077,32.4690015 L0.698100832,32.4204312 C0.0534558542,31.7663947 -0.157817112,30.9084292 0.119068577,30.0667648 L0.144329454,29.9969033 C0.480266593,29.144926 1.30337818,28.5713966 2.19538316,28.5660738 C4.03122713,28.5338045 5.63742658,28.3119111 7.09501323,27.8810987 C4.77002639,26.7846062 3.1549692,24.8860376 2.1940709,22.1381529 C1.87092827,21.2811855 2.1497823,20.3310694 2.89448674,19.7645262 C3.07820236,19.6244706 3.28586661,19.5186804 3.50566927,19.4478209 C2.21375472,17.9354863 1.25941769,16.2145653 0.725002006,14.3945076 L0.708270825,14.3379531 L0.696788577,14.2800678 C0.51536942,13.3595598 0.921184088,12.4131031 1.66490432,12.0055779 C1.97689275,11.8239381 2.31578253,11.7297914 2.65598447,11.7218073 C2.28920931,10.920729 2.02249361,10.0983597 1.86436699,9.27100023 C1.42541784,6.9782132 1.78760007,4.67977075 2.94041564,2.43954612 L3.20713134,1.89861876 C3.42070077,1.46581032 3.82881191,1.16174653 4.29925508,1.08423358 C4.76969835,1.00705329 5.25195181,1.16474057 5.58887317,1.50639646 L6.07473535,1.99975156 C9.91307962,6.08032691 13.3511863,8.01648775 19.2953709,9.34119439 C19.5607743,7.02744891 20.5472616,4.87671357 22.1386982,3.18406987 C24.0326095,1.17006335 26.5616518,0.0399708704 29.2599751,0.00138072313 L29.2776905,0.00138072313 C31.2464002,0.00138072313 33.6885057,1.1411208 35.1654482,1.94486042 C36.4324298,1.52436089 37.9589098,0.873318425 39.542801,0.185016596 C40.2838966,-0.167617508 41.1975537,-0.00627077584 41.7801947,0.584557668 C42.3513535,1.16374253 42.5098082,1.98045644 42.2066775,2.77421589 C42.0915272,3.09923806 41.9609578,3.41827214 41.8156257,3.73032001 C42.0324757,3.83112016 42.2309542,3.96784907 42.3985947,4.13784534 C42.905453,4.65182616 43.1167259,5.45623108 42.936619,6.18744788 L42.9172632,6.25697666 C42.3103455,8.24037711 41.1444075,9.85584052 39.6025085,10.8698299 C39.3449786,24.7759226 29.0181922,36 16.361498,36 Z M3.21697329,31.088073 C5.77422909,32.555164 10.6476141,33.4427374 16.361498,33.4427374 C21.8549232,33.4427374 27.0389844,31.0511462 30.9583604,26.708424 C34.9098866,22.3301057 37.0859325,16.5159677 37.0859325,10.3368867 L37.0859325,10.2673579 C37.0859325,9.70780075 37.3897195,9.19714671 37.8785342,8.93433446 C38.8702705,8.40172391 39.6733702,7.49452276 40.1956475,6.3344896 C39.656967,6.42065211 39.1094289,6.20142013 38.7738199,5.74432653 C38.3837522,5.21304668 38.3794874,4.49546949 38.7629937,3.95953225 C38.9700019,3.6701061 39.1576542,3.36903644 39.3249667,3.05765387 C37.9572695,3.64016551 36.6584657,4.16246315 35.530911,4.50944182 C35.1211596,4.63519243 34.664495,4.58595673 34.2901744,4.37404361 C32.2827532,3.23995905 30.4131186,2.56197004 29.2858921,2.55864335 C25.1263736,2.623182 21.7443657,6.23568554 21.7443657,10.6156673 C21.7443657,11.0684362 21.5462153,11.4929278 21.2014204,11.7806905 C20.8562976,12.0681206 20.4075066,12.1832257 19.9692136,12.0953998 C13.1153085,10.7261149 9.05388108,8.67285299 4.83039009,4.36905349 C4.22511275,5.83980382 4.05976869,7.32119979 4.33960693,8.78396595 C4.62338193,10.2656945 5.37825628,11.7504172 6.52287029,13.0774525 C6.9578826,13.5811205 7.0156218,14.3016917 6.66656211,14.870231 C6.31881468,15.4367742 5.65776657,15.7015826 5.02230729,15.5289249 C4.52561902,15.3938593 4.06895447,15.2165443 3.6359105,14.9886628 C4.51807353,16.9318098 6.03536772,18.728913 7.94272961,20.0542849 C8.49551677,20.4385231 8.72647355,21.1547696 8.50470255,21.7961644 C8.28260351,22.4385572 7.6622352,22.8520707 6.99167317,22.8015043 C6.26107549,22.7466131 5.613806,22.6058921 5.01804248,22.3686958 C6.08752986,24.5773164 7.79641319,25.7925734 10.4291237,26.2569858 C11.0560532,26.3677661 11.5442119,26.8697707 11.6439432,27.5061754 C11.7440027,28.1425803 11.4333264,28.7733296 10.8713534,29.0757299 C8.6273983,30.2820047 6.17479482,30.9293877 3.21697329,31.088073 Z" id="Shape"></path>
                </g>
            </g>
        </g>
    </g>
</svg>